<?xml version="1.0" encoding="utf-8"?>
<!-- Generator: Adobe Illustrator 19.2.0, SVG Export Plug-In . SVG Version: 6.00 Build 0)  -->
<svg version="1.1" id="Layer_1" xmlns="http://www.w3.org/2000/svg" xmlns:xlink="http://www.w3.org/1999/xlink" x="0px" y="0px"
	 width="21.9px" height="37.2px" viewBox="0 0 21.9 37.2" style="enable-background:new 0 0 21.9 37.2;" xml:space="preserve">
<style type="text/css">
	.st0{fill:#906EAC;}
	.st1{fill:#AEA4D0;}
</style>
<path class="st0" d="M21.4,17.8C16.3,12.4,11.7,6.5,7.2,0.5c-0.8-1-2.5,0-1.7,1c4.4,5.8,8.9,11.6,13.9,17
	C14.7,23.9,11.1,30,6.5,35.4c-0.8,1,0.6,2.4,1.4,1.4c4.8-5.6,8.5-12.1,13.4-17.6C21.8,18.8,21.8,18.2,21.4,17.8z"/>
<path class="st1" d="M14.9,17.6c-4.1-5.8-9-11.1-12.8-17c-0.7-1.1-2.4-0.1-1.7,1c3.8,5.8,8.5,10.9,12.5,16.6
	C9,23.8,4.9,29.5,1.6,35.6c-0.6,1.1,1.1,2.1,1.7,1c3.3-6.2,7.6-12.1,11.5-18C15.1,18.3,15.1,17.9,14.9,17.6z"/>
</svg>
