<?xml version="1.0" encoding="utf-8"?>
<!-- Generator: Adobe Illustrator 19.2.0, SVG Export Plug-In . SVG Version: 6.00 Build 0)  -->
<svg version="1.1" id="Layer_1" xmlns="http://www.w3.org/2000/svg" xmlns:xlink="http://www.w3.org/1999/xlink" x="0px" y="0px"
	 width="21.7px" height="37.2px" viewBox="0 0 21.7 37.2" style="enable-background:new 0 0 21.7 37.2;" xml:space="preserve">
<style type="text/css">
	.st0{fill:#906EAC;}
	.st1{fill:#AEA4D0;}
</style>
<path class="st0" d="M0.4,19.4c5.1,5.4,9.7,11.3,14.2,17.2c0.8,1,2.5,0,1.7-1C12,29.9,7.5,24,2.5,18.7c4.6-5.4,8.2-11.5,12.8-16.9
	c0.8-1-0.6-2.4-1.4-1.4C9.1,6,5.4,12.5,0.4,18C0.1,18.4,0,19,0.4,19.4z"/>
<path class="st1" d="M7,19.6c4.1,5.8,9,11.1,12.8,17c0.7,1.1,2.4,0.1,1.7-1C17.7,29.9,13,24.7,9,19.1c3.9-5.7,7.9-11.4,11.2-17.5
	c0.6-1.1-1.1-2.1-1.7-1c-3.3,6.2-7.6,12.1-11.5,18C6.8,18.9,6.8,19.3,7,19.6z"/>
</svg>
