<?xml version="1.0" encoding="utf-8"?>
<!-- Generator: Adobe Illustrator 19.2.1, SVG Export Plug-In . SVG Version: 6.00 Build 0)  -->
<svg version="1.1" xmlns="http://www.w3.org/2000/svg" xmlns:xlink="http://www.w3.org/1999/xlink" x="0px" y="0px" width="825.3px"
	 height="760.2px" viewBox="0 0 825.3 760.2" style="enable-background:new 0 0 825.3 760.2;" xml:space="preserve">
<style type="text/css">
	.st0{fill:#74477D;stroke:#FBEC95;stroke-width:14;stroke-miterlimit:10;}
	.st1{display:none;fill:#A97C50;}
	.st2{opacity:0.33;fill:#FFFFFF;}
	.st3{fill:#FFFFFF;}
	.st4{fill:#C49A6C;}
	.st5{fill:#6A4F36;}
	.st6{fill:#5C4C3E;}
	.st7{fill:#7B5740;}
	.st8{fill:#A87B50;}
	.st9{fill:#694D2E;}
	.st10{fill:#603913;}
	.st11{fill:#5E3812;}
	.st12{fill:#D1D3D4;}
	.st13{fill:#797C82;}
	.st14{fill:#808285;}
	.st15{fill:#58595B;}
	.st16{fill:#A7A9AC;}
	.st17{fill:#696A6D;}
	.st18{fill:#B6B8BA;}
	.st19{fill:#939598;}
	.st20{fill:#6D6E71;}
	.st21{fill:#FFF6D4;}
	.st22{fill:#3C2415;}
	.st23{fill:#949698;}
	.st24{fill:#515254;}
	.st25{fill:#A8855C;}
	.st26{fill:#B3B5B8;}
	.st27{fill:#C1C3C5;}
	.st28{fill:#F68F75;}
	.st29{fill:#A34A4A;}
	.st30{fill:#FCB875;}
	.st31{fill:#F15A29;}
	.st32{fill:#B14C3A;}
	.st33{fill:#F7941E;}
	.st34{fill:#754C29;}
	.st35{fill:#A21E22;}
	.st36{fill:#8A3F2F;}
	.st37{fill:#5B1815;}
	.st38{fill:#F1F3B9;}
	.st39{fill:#262262;}
	.st40{fill:#FFF685;}
	.st41{fill:#7D371C;}
	.st42{fill:#773D1D;}
	.st43{fill:#A44B4B;}
	.st44{fill:#4F291F;}
	.st45{fill:#4A291F;}
	.st46{fill:#BE634F;}
	.st47{fill:#843635;}
	.st48{fill:#9B6B49;}
	.st49{fill:#C17C4C;}
	.st50{fill:#8E372A;}
	.st51{fill:#853735;}
	.st52{fill:#FED8B1;}
	.st53{fill:#FFFCD5;}
</style>
<g id="Layer_30">
	<rect x="117.3" y="135.4" class="st0" width="578.9" height="526.7"/>
</g>
<g id="pterodactyl">
	<g id="shadows_2_">
		<g>
			<path class="st1" d="M516,332.4c-1.4,0,0.9,5.8,0.2,4.4c16.9,0,45.6-48.7,75-48.7c9,0,21,4.1,26.6,13.5c0-0.6,0.1-1.1,0-1.7
				c-3.6-19.2-7.5-47.8-31.6-46.8c-26.8,7.1-23.4,18.5-65.8,70C518.7,324.8,515.9,332.1,516,332.4z"/>
		</g>
	</g>
	<g id="highlights_2_">
	</g>
	<g id="nostrils_1_">
	</g>
</g>
<g id="triceratops">
	<g id="Body_and_L_leg">
		<g id="r_foot">
		</g>
	</g>
	<g id="head">
		<g id="horn">
		</g>
		<g id="eyes">
		</g>
	</g>
	<g id="l_leg">
	</g>
	<g id="l_toes_and_knee">
	</g>
	<g id="shadows_1_">
	</g>
	<g id="spots">
	</g>
	<g id="highlights_1_">
	</g>
</g>
<g id="raptor">
	<g id="Layer_11">
		<g id="body">
			<g id="belly">
			</g>
		</g>
		<g id="nostrils">
		</g>
		<g id="eyes_1_">
			<g id="Layer_13">
			</g>
		</g>
		<g id="teeth">
		</g>
		<g id="R_hand">
		</g>
		<g id="L_hand">
		</g>
	</g>
	<g id="shadows">
	</g>
	<g id="highlights">
		<path class="st2" d="M700.3,369l-0.2,0.1c0,0,0,0,0,0c-16.3,4.8-32.6,19.9-40.1,19.9c0.9-2.2,1.2-2,1.4-2.8
			c2.6-0.7,19.6-13.2,35.7-19.1C698.1,367.1,700.3,368.1,700.3,369z"/>
	</g>
</g>
<g id="Layer_31">
	<path class="st3" d="M645.6,653.4c-67.2,0-124.2-10.1-172.7-19.2c-17.2,0.7-34.3,1-51.4,1c-41.7,0-64.4,1.2-102.1-13.2
		c-15.5,1-31.1,1.9-46.8,1.9c-17.7,0-15,2.1-14.2-11.7c-36.6-13.2-42.1-47.5,1.4-76.2c0-0.5-0.5,4.8-0.9,10.2
		c-0.4,5.3-0.9,10.6-0.9,10.2c0-32.3,1.9-64.7,1.9-97c0-23.1-1-46.2-4.2-69.2c0.5,0.6,1.2,1.3,1.8,1.9l0,0c0.3,0.2,0.5,0.5,0.8,0.7
		c-2-6.3-3.1-13.1-3.3-20.5v-0.3c0-0.4,0-0.8,0-1.1c0-5.3,0.5-10.6,1.3-15.9c1.6-10.2,3.3-20,5.9-29.7c0.2-0.7,0.4-1.4,0.6-2.1
		c-0.2,0.1-0.4,0.1-0.5,0.1c-0.2,0-0.3-0.4-0.4-1.2v0v0v0v0c-0.1-2.1,0.2-6.5,1.4-12.4c0.1-0.7,0.3-1.3,0.4-2c-0.2,0-0.4,0-0.6,0
		c-2,0-3-1.1-3.3-3.2v0c1.7-18.1,32.5-60.7,48.8-79.8c3.5,8.9,11.3,14.9,19.8,19.3l0,0c65.6,20.5,96,70.5,118.5,95.4l0.1,0.1
		c16,17.7,33.9,31.8,57.7,31.8c16.8,0,48.9-48.2,106.5-63.4c3-2.4,5.1-5.3,6.3-8.2c0.8-1.9,1.2-3.9,1.2-6.1l0.1,0.1
		c1.7,6.8,3.3,14.5,5,23.3c-0.7,0.6-1.4,1.2-2.3,1.7c12.8,67.5,16.9,72,17.3,91.5c0,0.7,0,1.3,0,2c0,0.3,0,0.6,0,0.8v0.2
		c-0.1,8.6-1.3,16.8-3.5,24.4c0.1,0.4,0.2,0.8,0.2,1.2c8.1,42.9,9.4,63.7,19.8,106.5h0.1c5,29.2,9.3,58.4,9.3,88.3
		C665,657.2,667.1,653.4,645.6,653.4"/>
	<path class="st4" d="M789.2,250c-20.9-3.3-55.7-26.9-55.7-26.9l-0.2-0.1c-4.7-1.7-19.7-7-20-7.1c19.8,23.9,18.1,35.6-13.1,36.5
		c-55.4,1.6-99.6-29.4-172.6-67.8c0,42.1,14.5,42.9-1.8,105.6c-2.6,10.1-4.2,19.1-5.5,29.2c20-13.2,39.6-67.8,75-67.4
		c20.3,4.3,26,45.7,44.6,155.5c-6.1,1.6-53,13.8-108.7,28.3c-10.8-7.8-219.9-109.1-270.2-137c0.5-2.3,0.2-2.7,3.2-9.1
		c35.7-77.6,95.3-113.7,105-109.8c20.9,6.4,23,89.2,83.2,134.8c52-128.5,10.6-109.1,1.9-189.5l-0.5,0.9
		c-100-61.3-170.5-28-181.1-49.2C257,48,394.4,10.6,492.5,12c20.2-19.7,35.9-11.3,50.7-1.5c29.6-17.6,60,28.7,71.8,56.1l-0.2,0.1
		c51.1,26.5,61.9,36.2,85.3,55.3C777.6,125.5,878.6,263.8,789.2,250"/>
	<path class="st5" d="M459,89.3c-7.8,118.2,58.5,91.1-8.5,239.3l-3.1-1.4c64.8-158.3-2.1-108.4,9.8-238
		C457.7,89.3,458.1,89.1,459,89.3z"/>
	<path class="st5" d="M527.5,181.7c0,24.3,5.6,42.7,6,63.6c-0.5,36.3-23.3,75.2-10.9,117.4l-2,0.9c-19.6-33.4,4.4-66.1,9.2-107.5
		c2.9-24.9-5.4-41.8-6.7-74.3L527.5,181.7z"/>
	<path class="st5" d="M515.4,322.4c24.7-12.2,35.2-68.4,76.8-70.6l0.2,0c22.9,1.3,27.9,40.8,47.8,157.8l-4.2,0.8
		c-21-111.9-24.4-155.9-44.1-155c-43.1,1.8-46,60.1-74,72.4L515.4,322.4z"/>
	<path d="M574,347c5.6,32.7,1.9,67.2,1.2,71.3l-4.4-0.5c0.3-8.4,5.7-35.9,1.5-70.6L574,347"/>
	<path class="st5" d="M262.4,298.3c0.1,0.4-1,1.8-0.7,1.5l-0.9-0.2c12.1-48.2,79.9-117.7,105.4-120.1c-1-0.1,4-0.4,8,3.6
		c15.6,15.6,24,92.3,80.6,133.4l-4.9,6.8c-69.8-50.2-62.3-147.7-85.7-140c-23.3,8.2-66.1,44.2-93.3,98.2
		c-6.5,12.5-2.9,8.2-10.4,20.3c0.5-3.9,0.3-1.9,1.6-3.4l0.1-0.2L262.4,298.3"/>
	<path d="M330.8,329.9c0,0,0,0.3,0.1,0.8c0,0.1,0.1,0.3,0.1,0.5l0,0.1l0,0.1c0,0,0,0-0.1,0.1c-0.3,0.1-0.4,0-0.5-0.1
		c-0.1-0.2-0.1-0.2-0.2-0.2c-0.1-0.1-0.1-0.2-0.2-0.3c-0.7-0.1-0.5-0.4-0.6-0.6c-0.1-0.2-0.1-0.5-0.2-0.7c-0.4-2.1-0.9-5-1.3-8.5
		c-0.2-1.8-0.3-3.7-0.2-5.7c0-2,0.3-4.1,0.6-6.3c0.6-4.4,1.5-9,2.6-13.5c0.6-2.3,1.2-4.5,1.9-6.7c0.7-2.2,1.4-4.3,2.2-6.4
		c0.8-2.1,1.6-4,2.4-5.8c0.8-1.8,1.6-3.6,2.4-5.1c1.6-3.1,3.1-5.6,4.2-7.3c1.1-1.7,1.8-2.7,1.8-2.7l1.1,0.6c0,0-0.4,1.1-1.1,3
		c-0.7,1.9-1.7,4.6-2.8,7.8c-0.5,1.6-1.1,3.4-1.7,5.2c-0.6,1.9-1.1,3.8-1.7,5.9c-0.6,2-1.1,4.2-1.6,6.3c-0.5,2.2-1,4.4-1.4,6.6
		c-0.8,4.4-1.5,8.9-2,13.1c-0.2,2.1-0.5,4.1-0.8,6c-0.3,1.9-0.6,3.7-0.9,5.4c-0.7,3.3-1.1,6.2-1.3,8.1c0,0.2,0,0.5-0.1,0.7
		c-0.1,0.2,0.2,0.4-0.5,0.6c-0.2,0.1-0.1,0.2-0.1,0.3c0,0,0,0.1-0.1,0c-0.1-0.1-0.2-0.2-0.4-0.1c-0.1,0.1-0.1,0.1-0.1,0.1l0,0.1l0,0
		c0.1-0.1,0.1-0.3,0.2-0.4C330.7,330.2,330.7,329.9,330.8,329.9L330.8,329.9"/>
	<path class="st5" d="M493.1,16.9c-72-1-192.3,21.7-214.8,48.3c-13.7,16.9,16.4,16.2,32.9,16l0,0c57.5,0.5,99,13.2,145.3,38.8
		l-1.7,6.7C414.4,102,367,86.6,311.1,85.1l0,0c-15,0.2-38.9,2-39.5-12.7l0-0.2c2-37.3,157.8-62.6,221.5-60.2L493.1,16.9z"/>
	<path class="st5" d="M466.1,45.1c12.1-15.8,19.4-26.6,27.7-34.4c27.2-25.4,47,1.8,59.8,4.4v1.2c-21.4,1.4-32.2-29.9-63.5,4.4
		c-9.1,10.1-14.4,18.7-23.2,25.1L466.1,45.1z"/>
	<path class="st5" d="M481.7,126.6c25.4-1.4,26.2-7.2,33.3-12.7l0.4,0.2c-2.2,11.5-20.6,14.2-33.7,12.7L481.7,126.6z"/>
	<path class="st5" d="M825.2,233.3c-1.3-34.4-68.8-110.3-125-111.4c0.1,0.1,0.2,0.2,0.4,0.3l-0.8-0.3c0.1,0,0.3,0,0.5,0
		c-19.8-16.2-34.9-30.7-100.5-63L599,60c34.5,20.4,77,44.6,100.1,64.4c56.8,1.4,118.9,78.4,120.4,108.4c0.3,8-11.8,14.2-29.4,11.6
		c-17.9-2.8-34-14.5-50.7-24.3c-10.1-5.9-208.9-69.7-234.9-97.1l0,0l-0.4-0.4l-3,2.9c38.3,38.2,82.7,68.8,145.1,92.5
		c36,13.5,42.4,12.4,49.5,11.3c2-0.3,4.1-0.7,6.9-0.6v-4.6c-2.7,0-4.7,0.3-6.6,0.6c-7.1-9.3-12-15-16.6-20.7
		c29.5,10.7,51.4,18.2,53.9,19.2l0,0l0.1,0l0,0c20.7,11.8,38.2,25.5,60.1,27.4c16.6,1.6,24.6-3.6,28.4-8.9
		C826.1,236.1,825.3,230.5,825.2,233.3 M690.4,225.3c-19.2,0.7-110.9-32.2-172.8-89.3c33.2,19.6,102.5,46.2,153.7,64.9l0,0
		C675.5,205.5,685,217.9,690.4,225.3"/>
	<path class="st5" d="M541,11.9c29.3-20.4,59.9,22,74.1,54.6l-3,1.3C597.3,37.2,570.3-5.3,542,13.4L541,11.9z"/>
	<path class="st6" d="M509,172.6c43.1,14.3,145.5,91.5,205.6,72.1c5.8-1.9,5.2-3.7,5.7-4.7c0-8.7-7.5-17.4-17-28.3l3.3-3
		c24.6,26.4,29.9,42.7-6.5,43.8c-45.4,1.3-82.8-17-189.3-76.6c-1.7-1-2.6-1.6-2.6-1.6L509,172.6"/>
	<path d="M526.7,376.3c0,0,0.4,0.8,1.2,2.3c0.4,0.7,0.8,1.6,1.3,2.7c0.5,1.1,1,2.2,1.6,3.6c0.6,1.3,1.1,2.7,1.7,4.3
		c0.6,1.5,1.1,3.2,1.6,4.9c0.5,1.7,1,3.5,1.5,5.3c0.5,1.8,0.9,3.7,1.3,5.5c0.4,1.9,0.7,3.7,1,5.6c0.3,1.8,0.5,3.7,0.8,5.4
		c0.2,1.8,0.4,3.5,0.5,5.1c0.2,1.6,0.3,3.2,0.3,4.6c0,1.4,0.1,2.7,0,3.9c0,1.2-0.1,2.2-0.2,3c-0.2,1.6-0.4,2.6-0.4,2.6h-5
		c0,0-0.2-0.9-0.4-2.5c-0.1-0.8-0.2-1.8-0.3-2.9c-0.1-1.1-0.2-2.4-0.3-3.7c-0.1-1.4-0.1-2.9-0.2-4.4c0-1.6-0.2-3.2-0.2-4.9
		c-0.1-1.7-0.3-3.5-0.4-5.3c-0.1-1.8-0.4-3.6-0.6-5.4c-0.3-1.8-0.5-3.6-0.8-5.4c-0.3-1.8-0.6-3.5-0.9-5.2c-0.4-1.7-0.7-3.3-1.1-4.8
		c-0.4-1.5-0.7-3-1.1-4.3c-0.4-1.3-0.7-2.5-1.1-3.6c-0.3-1.1-0.6-2-0.9-2.8c-0.5-1.5-0.8-2.4-0.8-2.4L526.7,376.3z"/>
	<path class="st7" d="M517.7,136c61.2,56.5,151.7,89.3,172.1,89.3c0.2,0,0.4,0,0.6,0c-5.4-7.4-14.9-19.8-19.1-24.3l0,0l0,0l0,0
		C620.1,182.2,550.8,155.6,517.7,136"/>
	<path class="st8" d="M699.1,124.4c-7.5,3.5-15.9,14.8-15.3,25.7c4.7-9.2,18-21.6,24.4-24.8C705.2,124.8,702.2,124.5,699.1,124.4
		C699.1,124.4,699.1,124.4,699.1,124.4"/>
	<path class="st9" d="M703.7,123.2c-0.1,0-0.2,0-0.3,0c-1.3,0-2.8,0.4-4.3,1.1c0,0,0.1,0,0.1,0.1c3,0.1,6,0.4,9,0.8
		c0.5-0.2,0.9-0.4,1.3-0.5C707.5,124.4,705.3,123.2,703.7,123.2"/>
	<path class="st4" d="M639,413.9c0,60.8-56.2,96.5-93.6,102.1c-18.6,3-37.1,4.2-55.5,4.2c-84.6,0-183.3-19.3-207.6-88.4
		c-13.9-13-27.3-32.8-27.3-59.1c0-5.3,0.5-10.6,1.3-15.9c1.7-10.9,3.5-21.4,6.5-31.8c-0.2,0.1-0.4,0.1-0.5,0.1
		c-2.8,0,8-96.9,87.2-96.9l7.9,0c32.3,0,60.9,83.2,89,98.2C461.8,334,481,355,481,356.9c0,1.5-0.6,3,0.4,4.3
		c12.2,12.2,14.8,28.3,22.2,43.2c7.4,11.2,12.6,23.1,22.3,30.9c-19-50-8.6-56.3-8.6-75.3c0-1.6-0.4-8.2-0.4-11.3
		c0-22.9,8.2-19.2,19.4-33.7c19.6-26.4,46.2-40.7,59.7-36.2c0.9,0.4,1.3,2.2,2.2,2.6c26.2,14.1,10.1-14.9,37.9,107.7
		C638.1,397.4,639,405.7,639,413.9"/>
	<path class="st10" d="M772.1,206.1c-0.6,0-1.1,0.1-1.6,0.5c-1.9,1.2-1.9,4.6,0,7.5c1.4,2.2,3.5,3.5,5.3,3.5c0.6,0,1.1-0.1,1.6-0.5
		c1.9-1.2,1.9-4.6,0-7.5C776,207.4,773.9,206.1,772.1,206.1"/>
	<path class="st10" d="M794.9,187c-0.5,0-0.9,0.1-1.3,0.4c-1.9,1.2-0.9,3.8,1,6.8c1.5,2.3,3.2,4.2,4.7,4.2c0.4,0,0.8-0.1,1.1-0.4
		c1.6-1,1.5-3.2,0.3-5.6c-0.9-1.3-1.8-2.5-2.8-3.8C796.9,187.6,795.9,187,794.9,187"/>
	<path class="st11" d="M798,188.5c1,1.3,1.9,2.5,2.8,3.8c-0.2-0.5-0.5-0.9-0.8-1.4C799.3,190,798.7,189.2,798,188.5"/>
	<path class="st4" d="M645.6,655.4c-67.2,0-124.2-10.1-172.7-19.2c-17.2,0.7-34.3,1-51.4,1c-41.7,0-64.4,1.2-102.1-13.2
		c-15.5,0.9-31.1,1.9-46.8,1.9c-17.7,0-15,2.1-14.2-11.7c-36.6-13.2-42.1-47.5,1.4-76.2c0-0.9,0-1.9,0-2.8c0-32.3,0.1-41.6,0.1-73.9
		c0-23.1-1-46.2-4.2-69.2c9.8,11.8,44.6,21.9,57.8,25.9c63.9,26.6,91.2,60.8,190.3,60.8c48.3,0,96-11.5,130.4-45.9
		c9.8,45.4,10.4,68.9,21.4,114.3h0.1c5,29.2,9.3,58.4,9.3,88.3C665,659.3,667.1,655.4,645.6,655.4"/>
	<path class="st12" d="M9.4,644c24.7-34.1,65-68.4,109.2-68.4c0.4,0,13.7,0.8,13.7,0.6c0-2.1,36.3,21,36.3,59.3
		c0,27.5-24.2,47.4-40.2,71.2c-5.8,8.7-15.8,16.4-24.8,15.8C60.8,719.3,25.8,682.9,9.4,644"/>
	<path class="st13" d="M6,646.2C29.6,606,77.5,569.8,121.7,572c1,0,11.6,0.4,10.1,0.7c1.5-0.8-2.6,0.9-2.9,2.3
		c-0.4,0.5,0-0.3,0.7-1.1c0.6-0.7,1.4-1.4,2-1.2c0.5-0.2,1.2,0.1,1.2,0.6c0.1,0.4,0.2,0.9,0.3,0.9c35.6,16.7,42.1,61,38.1,62.6
		c-1,0.5-0.6,0.2-0.8,2c-3.1,28.3-22.8,44.2-40,69.5c-6.1,8.6-16.2,17.6-25.7,16.8C104.8,725,40.4,725,6,646.2 M13.6,643.7
		C42.7,707.9,95,722.4,105,720c3.5-0.8,11.3-1.1,21.2-14.7c17.2-25,39.8-43.1,40.3-68.1c-0.1-0.5-0.2-0.4-0.7-0.7
		c-0.7-0.3-0.5,0.1-0.8-3.2c-2.5-33.4-32.2-56.2-32.8-55c0-0.1,0,0.4,0,0.8c-0.1,0.4,0.6,0.7,0.9,0.6c0.5,0.1,1.3-0.5,1.8-1.2
		c0.7-0.8,1.1-1.6,0.7-1c-0.3,1.5-4.5,3.2-3.1,2.4c-2.8,0.3-7.7,0.1-10.9-0.1c-2.1-0.1-3.5-0.3-3.1-0.3c-43.3,1-75.2,29-104.1,61.8
		C12.9,642.9,13.1,642.4,13.6,643.7"/>
	<path class="st14" d="M49.6,633.5c0,19.3-24.3,37.4-30.1,37.4c-8.4,0-17.4-12.8-17.4-23.9C2.2,621.9,49.6,608.3,49.6,633.5"/>
	<path class="st15" d="M33.9,618.1C70.3,619.4,43,668,20.9,673c-6,1.7-17.6-6.2-20.5-21.4c-0.7-4.3-0.2-7.7-0.2-7.3
		C6.2,627,20.7,617.9,33.9,618.1 M18.2,668.4c0.2,0,1.3,0.2,1.5,0.2c0,0,0,0,0,0c0,0,0.1,0-0.2,0c20.3-3.8,47.7-53.9,7-45.6
		c-8.8,2.3-19.1,9.9-21.9,20.7C2.9,651.4,8.4,664.4,18.2,668.4"/>
	<path class="st14" d="M15,672c-0.3-2.5,15.8-34.4,41.3-34.4c45.8,0,0.8,72.1-9,67.2C33.2,698.1,17.2,687.9,15,672"/>
	<path class="st15" d="M17.2,663.6c21.3-39.7,62-31.6,61.6-9.1c-1,20.7-21.6,57.2-33,52.2C30,699.9,16,689.3,13.4,672.2
		C13.5,670.5,13.8,670.1,17.2,663.6 M16.6,671.7c3.9,15.7,17.2,23.1,31.8,30.8l0.5,0.1c7.9-2.6,26.7-31.4,26.1-49.3
		c-0.2-12.6-21.5-21.6-41.2-4.7C19.7,660.5,16.6,671.7,16.6,671.7c0,0.2,0,0,0,0.2L16.6,671.7"/>
	<path class="st14" d="M53,710.1c-8.6-10.5,27-56.2,43.9-56.2c41.2,0,27.6,75.8-6.3,75.8C77.3,729.7,62.3,721.5,53,710.1"/>
	<path class="st15" d="M102.2,652.5c46.3,7.4,14.6,122.5-46.6,62.9c-2.3-2.6-1.4-1.4-3.8-4.4C42.8,699.6,77.8,648.9,102.2,652.5
		 M54.2,709.1c15.1,16.6,34.4,20.5,44,16.5c24.6-9.5,35.2-68.2-1.3-70C81.6,655.9,47.5,698.6,54.2,709.1L54.2,709.1"/>
	<path class="st16" d="M279.2,658c-4.1-0.8-114-4.2-119.6-4.1c-5.6,0.1,1.8-95.1,1.8-95.1l137-11.3L279.2,658z"/>
	<path class="st12" d="M508.8,647.4c-44.2,2.8-78,8.2-112.1,12.5c1.1-3.3,1.6-5.7,2.3-7.4l-4.2-2c-0.2,0.4-10.7,15.8-10.7,15.8
		c-17.2,24.5-12.1,16.5-10.5,46.6c2.9,50.5-114.1,33-142.6-16.8c21.4-65,56.9-110.2,124.9-111.7c21.9,0.4,41.8,5.8,65.4,21.9
		l4.4-6.4c-52.3-35.4-109.5-26.4-143.6,0.3l-6.3-59.9l143.2-39c11.1-1.3,21.5-2.5,30.7-3.5l1.3,4.7l0.1,0l-0.2,0.1l0,0
		c0,0,9.7,3.7,36.4,56.6C511.9,607.8,509,628.1,508.8,647.4"/>
	<path class="st15" d="M402.9,587.7c-0.7,0.1-0.4,0.2-1.2,0.2c-1.4-0.4-1.6-2.4,0.2-3.3c4.6-2.4,18.9-5.3,27.4-1.7l-1.5,4
		c-11.8-4.2-24.5,0.7-24.5,0.7c0-0.1,0.1-0.1,0.1-0.3c0.4-0.8-0.1-1.7-0.7-1.8l0,0c-0.1,0.1,0.3,0.3,0.4,0.3L402.9,587.7z"/>
	<path class="st17" d="M401.9,588.6l0.1-0.2c-0.1,0-0.2,0-0.4,0c-0.9-0.2-1.5-0.9-1.6-1.8c-0.1-0.8,0.3-1.9,1.5-2.5
		c5-2.6,19.3-5.3,27.8-1.7l0.4,0.2l-1.9,4.9l-0.5-0.2c-11.1-3.9-23.3,0.3-24.2,0.6l0,0.1l-0.3,0.1L401.9,588.6z M419.1,581.7
		c-6.8,0-13.9,1.7-17,3.3c-0.8,0.4-1.1,1-1,1.5c0,0.4,0.3,0.8,0.7,0.9c0.3,0,0.4,0,0.4,0l0.2-0.1l0-1.1c-0.2-0.1-0.4-0.3-0.4-0.5
		l-0.1-0.3l0.2-0.2l0.1-0.1l0.2-0.1l0.2,0c0.3,0,0.6,0.2,0.8,0.4l0,0l0,0c0.1,0.1,0.1,0.2,0.2,0.3c0.2,0.3,0.3,0.7,0.2,1
		c3.1-1,13.6-3.8,23.5-0.5l1.2-3.1C425.9,582.2,422.5,581.7,419.1,581.7z"/>
	<path class="st18" d="M412.2,529.7c-0.7,0-1.5,2.2-2.3,8.7c-4.9,10.3-9.2,20.6-18.3,27.5c-1.4,2-8.2,4.2-8.2,6.8
		c0.1,1.5,3.9,1.3,6.1,1.4c3.5,0,24.6-19.7,24.6-36.5C414.1,534.6,413.3,529.7,412.2,529.7"/>
	<path class="st15" d="M449.5,497c15.8-5.4,76.7,88.8,70.6,148.8l0-0.5l-0.1,7.2l-10-0.3c0.2-19.4,2.2-44-22.8-93.1
		c-26.7-52.9-36.4-56.6-36.4-56.6l0,0c0,0,0.7-0.2,0.1,0L449.5,497z"/>
	<path class="st12" d="M410.8,528.4c-4.6,1.7-6.2,2.3-8.1,3.3l-0.2,0.1c-6.8,7.8-6.3,13.3-16.4,25.3l-1.3-1.3
		c-25.2,29.4-63.9,54.3-110.3,63c4.6-1.2-26.1-0.1-32.5-1.3c-4.2,0.2-17.3-6-17.3-6c-15.2,7.6-18.5,38.6-38.8,46.6
		c-33.5,9.1-68.2-32.5-82.6-76c-17.8-53.8,13.9-75.7,24.8-86.3C109.5,477.3,79,454.6,75.5,419c-1.1-10.7,6.1-21.7,12.6-30.9
		c0.9-1.2,1.8-2.4,2.6-3.6c8.3-12.3-0.1-28.2,16.1-41.5c9.6-8.3,19.1-6.9,25.5-14.2c16.2-18.3,20.1-39.9,51.7-40.2
		c2.3-19.2,8.2-32.9,19.4-33.9c6.5-0.8,6.1,3.2,15.6,31.3c26.1-13.5,32-50.8,84.7-16.5c5.6,0.3,10.6-2.1,15.6-4.4
		c9.2-4.3,18.6-8.6,32.3,3.2c4.4,3.7,6.9,6,6.9,6c14.3-12.4,28.5-20.7,32.1-1.5c0.3,1.6,0.4,0.2-3,18.3c18.2,7.3,20.8,31.4,30.7,40
		c8.2,6,23.9,1.3,31.9,22c4,10.1,7.3,32.9,8.2,39.3C492.2,417,508.8,491.6,410.8,528.4"/>
	<path class="st16" d="M455.1,380c-21.7-4.3-41.5-20.8-32.5-45.7C441.1,339.9,448,338.7,455.1,380"/>
	<path class="st15" d="M455.7,380.7l-0.7-0.1c-14.1-2.8-25.9-10.3-31.4-20.1c-4.4-7.8-4.9-16.7-1.5-26.3l0.2-0.4l0.5,0.1
		c1.4,0.4,2.7,0.8,3.9,1.1c15.8,4.5,22.3,6.4,28.9,45L455.7,380.7 M423,334.9c-3.2,9.1-2.7,17.5,1.5,25c5.3,9.4,16.5,16.6,30,19.5
		c-6.5-37.3-12.8-39.1-28.1-43.4C425.3,335.6,424.2,335.3,423,334.9"/>
	<path class="st16" d="M405.7,318.4c-11.8,1.7-21.9-1.7-23.2-10.7c0.6-3.4,3.6-7.3,4.4-11.1C395.6,300,400.8,309.6,405.7,318.4"/>
	<path class="st15" d="M399.9,319.3c-10.1,0-16.9-4.3-17.9-11.6l0-0.1l0-0.1c0.3-1.7,1.2-3.5,2.1-5.3c0.9-1.9,1.9-3.9,2.3-5.8
		l0.1-0.6l0.6,0.2c8.8,3.5,14.2,13.3,19,21.9l0.4,0.8l-0.7,0.1C403.7,319.2,401.8,319.3,399.9,319.3 M383,307.7
		c1.2,7.8,9.7,11.8,21.9,10.3c-4.5-8.2-9.6-17.2-17.6-20.7c-0.4,1.8-1.3,3.6-2.2,5.4C384.2,304.4,383.3,306.1,383,307.7"/>
	<path class="st16" d="M357.5,274.4c-13.4,16.3-32.7,13.8-43.7-5.5C331.8,262,335.6,255.1,357.5,274.4"/>
	<path class="st15" d="M337.5,285.6c-0.6,0-1.2,0-1.8-0.1c-8.7-0.7-16.7-6.6-22.3-16.5l-0.3-0.5l0.5-0.2c2.7-1.1,5.2-2.1,7.4-3.1
		c12.4-5.4,18.1-7.9,36.9,8.7l0.4,0.3l-0.3,0.4C352.1,281.8,344.9,285.6,337.5,285.6 M314.5,269.1c5.4,9.3,13,14.8,21.2,15.5
		c7.6,0.6,15.1-3,21.1-10.1c-18-15.8-23.5-13.4-35.5-8.2C319.4,267.1,317.1,268.1,314.5,269.1"/>
	<path class="st16" d="M141.5,317.3c10.1-16.2,17.2-31.1,44.4-29.6C187,290.6,193.6,330.3,141.5,317.3"/>
	<path class="st15" d="M160.2,320.4c-5.5,0-11.8-0.9-18.8-2.6l-0.7-0.2l0.4-0.6c0.7-1.1,1.4-2.3,2.1-3.4
		c9.2-14.9,17.2-27.8,42.7-26.4l0.3,0l0.1,0.3c0.7,1.8,3.3,15.9-5,25.1C176.7,317.8,169.6,320.4,160.2,320.4 M142.3,317
		c18.4,4.5,31.3,2.8,38.3-5c7.5-8.4,5.6-21.2,4.9-23.8c-24.7-1.2-32.5,11.4-41.5,26C143.5,315.1,142.9,316,142.3,317"/>
	<path class="st16" d="M474.7,476.1c-29.7-23.9-27.9-57.9-9.2-75.5C481,418.6,488.9,448.2,474.7,476.1"/>
	<path class="st15" d="M474.8,476.9l-0.5-0.4c-14.2-11.5-22.4-26.3-23-41.8c-0.5-13.1,4.5-25.7,13.8-34.4l0.4-0.4l0.3,0.4
		c14,16.1,24.8,45.7,9.3,76L474.8,476.9 M465.4,401.4c-8.8,8.5-13.6,20.6-13.1,33.3c0.6,15.1,8.4,29.5,22.2,40.7
		C489.2,445.9,478.9,417.2,465.4,401.4"/>
	<path class="st16" d="M290.6,260.6c-8.7,22.9-33.9,32.9-54.7,11.9C249.4,259.6,261.1,246.2,290.6,260.6"/>
	<path class="st15" d="M260.5,284.6c-8.7,0-17.4-4-24.9-11.7l-0.4-0.4l0.4-0.4c0.6-0.6,1.3-1.2,1.9-1.8
		c12.8-12.4,24.9-24.1,53.4-10.2l0.4,0.2l-0.2,0.4c-4.6,12.2-13.9,20.8-24.8,23.1C264.4,284.4,262.4,284.6,260.5,284.6 M236.6,272.5
		c9,8.9,19.4,12.6,29.5,10.4c10.4-2.2,19.3-10.5,23.9-22.1c-27.6-13.3-39.4-1.9-51.9,10.2C237.6,271.6,237.1,272,236.6,272.5"/>
	<path class="st16" d="M94.8,380.9c5.4-11.8-0.5-26.2,14.3-38.4c5.8-5,11.7-6.4,16.8-8.4C135,362.1,117,381.8,94.8,380.9"/>
	<path class="st15" d="M96.3,381.4c-0.5,0-1,0-1.5,0l-0.7,0l0.3-0.7c1.9-4.1,2.4-8.5,2.9-13.2c0.9-8.6,1.9-17.4,11.6-25.4
		c4.7-4.1,9.6-5.8,13.9-7.3c1.1-0.4,2.1-0.7,3.1-1.1l0.5-0.2l0.2,0.5c4.3,13.3,2.9,25.7-4.1,35C116.2,376.9,106.8,381.4,96.3,381.4
		 M95.5,380.4c10.5,0.2,20-4.2,26-12.1c6.7-8.8,8.2-20.7,4.1-33.6c-0.9,0.3-1.7,0.6-2.6,1c-4.2,1.5-8.9,3.2-13.6,7.1
		c-9.4,7.7-10.4,16.4-11.3,24.7C97.7,372.1,97.2,376.3,95.5,380.4"/>
	<path class="st16" d="M87,446.1c-16.3-27.3-10-40.6-1.6-52.7C111.8,404,102.6,437.2,87,446.1"/>
	<path class="st15" d="M86.9,446.8l-0.3-0.4c-16.5-27.6-10.2-41-1.6-53.3l0.2-0.3l0.4,0.1c10.2,4.1,16.2,12.1,16.9,22.5
		c0.8,12.1-5.8,25.8-15.2,31.1L86.9,446.8 M85.6,394c-8.2,11.9-14.1,24.9,1.6,51.5c8.8-5.4,15.1-18.4,14.3-30
		C100.8,405.6,95.2,398,85.6,394"/>
	<path class="st15" d="M459.2,390.4L459.2,390.4L459.2,390.4c-1-6.6-4.3-29.2-8.3-39.3c-8.1-20.6-23.7-16-31.9-22
		c-9.9-8.7-12.6-32.7-30.7-40c3.4-18.1,3.2-16.7,3-18.3c-3.6-19.1-17.8-10.9-32.1,1.5c0,0-2.6-2.3-6.9-6c-13.6-11.8-23-7.5-32.3-3.2
		c-5,2.3-10,4.7-15.6,4.4c-52.6-34.4-58.6,2.9-84.7,16.4c-9.4-28-9.1-32-15.6-31.3c-11.2,1.1-17.1,14.8-19.4,33.9
		c-31.1-1.6-38.4,23.3-51.7,40.2c-6.1,7.5-15.9,5.9-25.5,14.2c-16.2,13.2-7.7,29.2-16.1,41.5c-7,9.9-16.5,22.5-15.2,34.5
		c3.5,35.6,32.7,59.2,51.3,77.8c-3.4,3.3-7,6.8-10.7,10.4c-51.3,50.2,16.2,166.9,70.4,152.2c18-7.1,19.3-25.4,36.8-45.5
		c1.5,1,3.4,1.7,6.4,2.9c21.1,7.7,37.1,2.6,44.9,1.4l-1.6-3.9c-11.5,9-30.7,0.2-43.2-7.2c44.2-41.7,105.4-29.5,113.5-80.4l-5.1-0.6
		c-3.7,27.9-26.8,36-55.2,45.9c-74.6,25.9-68.7,55.9-87.5,77.6c-8,8.9-20.1,7.8-19.1,7.6c-26.1-2.7-102.2-85.2-58.6-146.3
		c1-0.8,87.5-86.3,89.9-90c0.3,1.4,0.4-2.2-0.9-2.8l0.1,0.1l-0.5-0.2c0.2,0,0.3,0,0.4,0.1c-1.6-2-3.9-8.4-4.8-10.8
		c-27.1-78.3-13.2-151.1,2.1-147.4c0.6,0.1,0.7,0.3,0.9,0.7c18.2,57.7,27,90.7,55.9,130c-4.4,1.2-8.6,2.8-12.5,4.7l0.5,1.4
		c13.4-4.2,30.5-4.6,43.1,1.4l0.4-1.1c0,2.4,0.3,4.5,0.7,6.3l4.4,0.2c0.6-1.7,3-68.3,65.3-125.4c3.9-3.6,12.9-11.8,18.3-11.8l0,0
		c0.4,0,0.9,0,1.1,0.2c1.3,0.4,3.4,3,4,7c0,0.3,0.1,0.8,0,0.7c-3.3,15.4-27.3,117.3-27.1,150.7c22.2,20.8,33.2,46.9,35.2,72.6l2,0
		c3.5-30.4-8.6-53.8-28-76.2c4.7-58.6,4.4-52.5,17.7-122.8c15.1,6,19.9,30.5,30,37.1c11.7,7.1,33.9-1.3,32.1,43.1
		c-0.2,5.8,0.2,10.9,2,19.1c43,27,46.9,81.2-41.6,125.4c-6.2,3.1-8.4,4.2-9.6,5.7c-6,8.4-8.5,21.6-14.4,26.6l1.6,1.6
		c10.1-12.1,9.6-17.6,16.4-25.3l0.2-0.1c1.9-1,3.5-1.6,8.1-3.3C509.7,489.6,493.1,415.1,459.2,390.4 M205.6,416.9L205.6,416.9
		C205.4,416.5,205.4,416.2,205.6,416.9 M204.5,418c-3.8,3.7-20.3,20.1-74.3,74.3l2.1-3C103,471.9,98.6,451.7,89.2,438
		c-4.6-6.6-7.2-15.9-7.2-22l0,0.1c1.4-19.3,21.7-26.7,19.6-45.1c-0.4-4.2-7.3-24.3,18.2-33c19.4-6.8,13-5.8,31.8-30.2
		c8.6-11.5,17.3-15.5,32.4-13.3C180.9,339.8,194.2,407.5,204.5,418 M293.8,387.5c-7.2-1.8-15.2-2-23-0.9
		c-24.2-30-35.2-55.9-48.9-96.1c32.6-23.8,24.7-52.1,75.4-15.5c2.4,1.7,1.4,1.1,4,2.8c15-0.5,38.3-33.1,51,0.9
		C318.3,311.9,297.2,360.7,293.8,387.5"/>
	<path d="M264.5,391.8l-0.2,0.1l-0.1-0.1C264.3,391.8,264.4,391.8,264.5,391.8z"/>
	<path d="M206.6,419.3c-0.7-0.2-1.3-0.6-2-1.3c0.5-0.6,0.8-0.9,0.9-1C205.6,417.7,205.9,419.1,206.6,419.3z"/>
	<path d="M207.7,416l-0.5-0.2C207.4,415.8,207.6,415.9,207.7,416L207.7,416z"/>
	<path class="st15" d="M326.6,512.9c5.8,6.3,10.3,8.3,17.9,8.8l0,0c5.2,0.1,8.5-0.7,13.4-2.3l0.7,1.1c-10.6,9.2-29.5,6.2-33-7
		L326.6,512.9z"/>
	<path d="M147.9,507.1c0,0-0.2-0.3-0.5-0.8c-0.3-0.5-0.9-1.2-1.5-1.8c-0.7-0.7-1.5-1.4-2.4-2c-0.5-0.3-0.9-0.6-1.4-0.9
		c-0.1-0.1-0.2-0.2-0.4-0.2c-0.2,0-0.4,0.1-0.7,0.3c-0.5,0.4-1.2,0.9-1.5,0.9c-0.6-0.1-1.1-0.5-1.5-1c-0.4-0.5-0.7-1.1-1.1-1.5
		c-0.2-0.2-0.4-0.4-0.7-0.5c-0.3-0.1-1.2,1-1.4,0.8c-0.4-0.3-0.5-1.1-0.6-1.7c-0.1-0.7-0.3-1.1-0.7-1.2c-0.3-0.2-0.7-0.2-1-0.2
		c-0.3,0-0.6,0.1-0.9,0.2c-0.2,0.1-0.4,0.2-0.4,0.2l4.1-6.1c0,0,0,0.2,0,0.4c0,0.3,0,0.6,0.1,0.9c0.1,0.3,0.3,0.6,0.6,0.8
		c0.3,0.2,0.7,0.3,1.3,0.1c0.6-0.2,1.3-0.5,1.8-0.2c0.3,0-0.3,1.4-0.1,1.6c0.2,0.2,0.4,0.3,0.7,0.4c0.5,0.2,1.2,0.1,1.8,0.2
		c0.6,0.1,1.2,0.2,1.6,0.7c0.2,0.3,0,1.1,0,1.7c0,0.3,0,0.6,0.1,0.7c0.1,0.1,0.2,0.2,0.4,0.2c0.5,0.3,1,0.5,1.5,0.6
		c1,0.4,2.1,0.6,3,0.6c0.9,0.1,1.7,0,2.3,0c0.6-0.1,1-0.2,1-0.2L147.9,507.1z"/>
	<path class="st19" d="M209,470.3c-4.8,14.9-7.4,28.8-32.3,40.8c-12.5,6-29.8,3.9-37,2.7c-2-0.4-3.8-1.5-5-3.1
		c-4.4-5.9-11.5-12.6-11.5-42.6c0-42.2,35.1-78.3,47.7-78.3c16.6,0,8.9,22.6,10.3,35.3C183.7,447.3,210.4,466.3,209,470.3z"/>
	<path class="st15" d="M211.6,469.9l-0.4,1.1c0,0-0.5,1.2-1.3,3.5c-0.8,2.3-1.8,5.8-3.6,10.2c-1.8,4.3-4.6,9.6-9.2,14.5
		c-4.6,4.9-10.8,9.1-18,12.7c-0.4,0.2-0.9,0.4-1.4,0.7c-0.5,0.3-0.9,0.4-1.4,0.6c-1,0.4-2,0.8-3,1.1c-2,0.7-4.1,1.2-6.3,1.6
		c-4.3,0.8-8.8,1-13.4,0.9c-4.6-0.1-9.3-0.6-14-1.4c-1.4-0.2-2.8-0.8-3.9-1.6c-0.6-0.4-1.1-0.9-1.6-1.4c-0.2-0.3-0.5-0.6-0.7-0.8
		l-0.6-0.7c-1.5-1.9-3.1-3.9-4.3-6.1c-1.3-2.2-2.4-4.6-3.2-7c-0.5-1.2-0.8-2.5-1.2-3.7c-0.3-1.3-0.6-2.5-0.9-3.8
		c-1-5.1-1.5-10.3-1.7-15.5c-0.1-1.3-0.1-2.6-0.1-3.9l0-2l0-0.5l0-0.5l0-1c0-2.7,0.2-5.3,0.5-8c0.6-5.3,1.7-10.6,3.3-15.7
		c3.1-10.2,7.9-19.9,13.8-28.6c3-4.3,6.2-8.4,9.7-12.2c3.5-3.8,7.3-7.3,11.5-10.2c2.1-1.4,4.4-2.7,6.9-3.6c0.6-0.2,1.3-0.4,2-0.5
		c0.4-0.1,0.7-0.1,1.1-0.1c0.4,0,0.8,0,1.1,0c1.3,0,2.7,0.2,4,0.6c1.3,0.4,2.7,1.1,3.8,2c1.1,0.9,2,2.1,2.6,3.3
		c1.2,2.5,1.6,5,1.8,7.3c0.4,4.8-0.1,9.2-0.3,13.4c-0.1,2.1-0.1,4.2-0.1,6.1c0,1,0,1.9,0.1,2.9c0,0.5,0.1,0.9,0.2,1.3
		c0.1,0.5,0.1,1,0.2,1.4c0.6,3.6,1.9,7,3.4,10c1.5,3.1,3.3,5.8,5,8.4c3.5,5.1,7.2,9.2,10.2,12.6c3.1,3.4,5.5,6,7.2,8.1
		c0.8,1.1,1.5,2,1.8,3.1C211.5,469,211.5,469.5,211.6,469.9z M202.2,484.1l4.5-14.6c0,0-0.1,0.2-0.1,0.4c0,0.2,0,0.3,0,0.3
		c0-0.1-0.4-0.8-1.1-1.7c-1.4-1.8-3.8-4.4-6.9-7.8c-3.1-3.4-6.9-7.7-10.6-13.1c-1.9-2.7-3.7-5.7-5.3-9.1c-1.6-3.4-2.9-7.2-3.6-11.4
		c-0.1-0.6-0.1-1-0.2-1.5c-0.1-0.6-0.1-1.1-0.1-1.6c0-1.1,0-2.1,0-3.2c0-2.1,0.3-4.2,0.5-6.4c0.3-4.2,0.7-8.6,0.4-12.8
		c-0.2-2.1-0.6-4.2-1.4-5.9c-0.9-1.7-2.2-2.9-4-3.4c-0.9-0.3-1.9-0.4-3-0.4c-0.3,0-0.5,0-0.7,0c-0.2,0-0.5,0-0.7,0.1
		c-0.5,0.1-1,0.2-1.5,0.4c-2,0.7-4,1.8-6,3.1c-3.9,2.6-7.5,6-10.9,9.6c-3.4,3.6-6.5,7.6-9.4,11.8c-5.7,8.4-10.4,17.7-13.4,27.5
		c-1.5,4.9-2.6,10-3.2,15c-0.3,2.5-0.5,5.1-0.5,7.6l0,1l0,0.5l0,0.5l0,1.9c0,1.3,0,2.6,0.1,3.8c0.2,5.1,0.6,10.1,1.5,15
		c0.2,1.2,0.5,2.4,0.8,3.6c0.3,1.2,0.6,2.4,1,3.5c0.7,2.3,1.7,4.5,2.9,6.5c1.2,2,2.6,3.9,4.1,5.8l0.5,0.7c0.2,0.2,0.3,0.4,0.5,0.6
		c0.3,0.4,0.7,0.7,1.1,0.9c0.8,0.5,1.7,0.9,2.6,1.1c4.6,0.8,9.1,1.2,13.5,1.3c8.8,0.2,17.2-1.1,23.8-4.8c6.9-3.5,12.6-7.6,16.7-12.2
		C198.1,492.4,200.5,488,202.2,484.1z"/>
	<path class="st20" d="M247.7,458v-1.5c0,0-5.8,0.9-9.1,0.9c8-15.6,6.3-28.5,4.9-45.2c-0.2,0-0.5,0-0.8,0l0.8-0.1v0
		c1,0,1.7-0.1,4.2,0.2l0.2-2.5c-26-0.3-40.9,15.3-42.4,37.2c-2.6-2.3-3.4-3.3-5.4-5.8l-1.4,1C209.6,459.9,229.1,463.6,247.7,458
		L247.7,458L247.7,458z M232.8,457.2c-1-0.1-14.5-1.4-23.5-7.2c0-22.2,14.1-35,29.7-37.4C240.2,431.2,241.6,441,232.8,457.2z"/>
	<path class="st21" d="M309.5,466.4l0.4,0.1c-9.4,6.2-12.8,6.7-16.9,7l0,0h-0.2l0.1,0c-5.1-0.5-6.8-1.2-15.7-4.2
		c-8-18.1-12-36.5,7.1-52.2C306.1,424.5,311.6,443.7,309.5,466.4z"/>
	<polygon points="237.3,459.9 237.3,460 237.2,459.9 	"/>
	<path d="M243.5,412.2L243.5,412.2c-0.2,0-0.5,0-0.8,0.1L243.5,412.2z"/>
	<polygon points="293.1,473.4 292.9,473.4 293,473.4 293,473.4 	"/>
	<path d="M243.5,412.2L243.5,412.2c-0.2,0-0.5,0-0.8,0.1L243.5,412.2z"/>
	<path class="st20" d="M331.8,455.9c-5.8,1-10.2,3.1-15.2,6.3c0.6-14.1-4.5-47.1-43.4-49.4l-0.2,1.8c2.9,0.3,6.2,0.9,9.3,1.8
		c-14,14-19.3,27.9-10.1,51.2c-2.3-0.6-5.9-1.6-8.2-1.8l-0.2,0.6c7.4,5.9,21.9,13.2,29.9,12.5c9.2-0.7,19.5-8.6,22.4-11.5
		c7.4-6,9.8-7.6,16.1-10.4L331.8,455.9z M293,473.4L293,473.4l-0.2,0L293,473.4c-5.2-0.5-6.8-1.2-15.7-4.2
		c-7.2-16.3-12.9-32,6.1-51.3c0.4-0.3,0.7-0.6,1-0.8c21.7,7.5,27.2,26.6,25.1,49.4l0.4,0.1C300.2,472.9,296.9,473.2,293,473.4z"/>
	<polygon points="316,467.3 316,467.4 315.9,467.4 	"/>
	<path class="st21" d="M239,412.7c1.2,18.6,2.5,28.4-6.2,44.5c-1-0.1-14.5-1.4-23.5-7.2C209.4,427.4,223.9,415,239,412.7z"/>
	<path class="st21" d="M243.5,412.2L243.5,412.2c-0.2,0-0.5,0-0.8,0.1L243.5,412.2z"/>
	<path class="st22" d="M309.3,448.1c-1.3,1.8-3.4,3-5.7,3c-4,0-7.2-3.5-7.2-7.7c0-4.3,3.2-7.7,7.2-7.7c0.8,0,1.6,0.2,2.4,0.4
		C307.6,439.7,308.7,443.8,309.3,448.1z"/>
	<path class="st22" d="M239.9,430.6c0,5-0.5,9.7-2,14.6C226.6,446.7,227.9,426.3,239.9,430.6z"/>
	<path class="st15" d="M391.6,423.1c0,0,0.3-0.8,1-2.1c0.2-0.3,0.4-0.7,0.6-1.1c0.3-0.4,0.5-0.8,0.8-1.2c0.3-0.4,0.6-0.9,1-1.4
		c0.4-0.5,0.8-0.9,1.2-1.4c0.4-0.5,0.9-1,1.4-1.5c0.5-0.5,1-0.9,1.6-1.4c0.3-0.2,0.6-0.5,0.9-0.7c0.3-0.2,0.6-0.4,0.9-0.7
		c0.6-0.5,1.3-0.9,1.9-1.4c1.4-0.8,2.8-1.7,4.2-2.5c1.5-0.8,3-1.5,4.5-2.2c1.5-0.6,3.1-1.3,4.6-1.9c1.5-0.6,3-1.1,4.5-1.6
		c1.5-0.5,2.9-1,4.2-1.4c1.3-0.4,2.6-0.8,3.8-1.2c1.2-0.4,2.2-0.7,3.2-1c1-0.3,1.8-0.6,2.5-0.8c1.4-0.4,2.2-0.7,2.2-0.7l0.5,1
		c0,0-0.7,0.4-1.9,1.2c-1.2,0.7-3.1,1.8-5.3,2.9c-1.1,0.6-2.3,1.1-3.6,1.8c-1.3,0.6-2.6,1.2-4,1.9c-1.4,0.6-2.8,1.3-4.2,2
		c-1.5,0.7-2.9,1.4-4.3,2.1c-1.4,0.8-2.9,1.4-4.2,2.2c-1.4,0.7-2.7,1.6-3.9,2.3c-1.2,0.8-2.5,1.5-3.5,2.3c-0.5,0.4-1.1,0.7-1.6,1.1
		c-0.5,0.4-1,0.7-1.5,1.1c-0.5,0.3-1,0.7-1.4,1c-0.4,0.3-0.8,0.6-1.2,0.9c-0.4,0.3-0.7,0.6-1.1,0.8c-0.3,0.3-0.6,0.6-0.9,0.8
		c-1.1,0.9-1.8,1.4-1.8,1.4L391.6,423.1z"/>
	<path class="st15" d="M148,335.7c0,0,2.1,2.4,5.3,6c0.8,0.9,1.7,1.9,2.6,2.9c0.9,1,1.9,2.1,2.8,3.3c2,2.3,4,4.8,6,7.4
		c1,1.3,1.9,2.6,2.8,3.9c0.9,1.3,1.8,2.6,2.6,3.9c0.4,0.7,0.8,1.3,1.1,2c0.2,0.3,0.4,0.6,0.5,0.9c0.2,0.3,0.3,0.6,0.5,1
		c0.3,0.6,0.6,1.2,0.9,1.8c0.3,0.6,0.5,1.2,0.8,1.8c0.2,0.6,0.5,1.1,0.7,1.6c0.2,0.5,0.4,1,0.5,1.5c0.3,0.9,0.6,1.8,0.7,2.5
		c0.3,1.4,0.5,2.2,0.5,2.2l-1.9,0.6c0,0-0.4-0.7-1-2c-0.1-0.3-0.3-0.7-0.5-1c-0.2-0.4-0.4-0.8-0.6-1.2c-0.4-0.9-0.9-1.8-1.5-2.9
		c-0.5-1-1.2-2.2-1.8-3.3c-0.6-1.2-1.4-2.4-2.1-3.7c-0.8-1.2-1.6-2.6-2.4-3.8c-0.8-1.3-1.8-2.6-2.7-3.9c-0.9-1.3-1.8-2.6-2.8-3.8
		c-0.9-1.3-1.9-2.5-2.8-3.7c-0.9-1.2-1.8-2.4-2.6-3.5c-0.8-1.1-1.6-2.1-2.3-3.1c-1.4-2-2.6-3.6-3.4-4.8c-0.8-1.2-1.2-1.8-1.2-1.8
		L148,335.7z"/>
	<path class="st15" d="M107.6,392.5c0,0,0.5,0.2,1.4,0.5c0.9,0.3,2.1,0.9,3.5,1.6c0.7,0.4,1.5,0.8,2.3,1.2c0.8,0.5,1.6,1,2.4,1.5
		c0.8,0.6,1.7,1.2,2.5,1.8c0.8,0.6,1.7,1.3,2.5,2c1.6,1.4,3.1,3,4.4,4.5c0.6,0.8,1.3,1.5,1.8,2.3c0.5,0.8,1,1.5,1.5,2.2
		c0.4,0.7,0.8,1.3,1.1,1.9c0.3,0.6,0.6,1.1,0.7,1.5c0.4,0.9,0.6,1.4,0.6,1.4l-1.7,0.9c0,0-0.3-0.4-0.9-1.1c-0.3-0.4-0.6-0.8-1-1.3
		c-0.4-0.5-0.8-1-1.3-1.6c-0.5-0.6-1-1.2-1.6-1.8c-0.6-0.6-1.2-1.3-1.9-2c-0.7-0.6-1.4-1.4-2.1-2c-0.7-0.7-1.5-1.3-2.2-2
		c-0.8-0.7-1.5-1.3-2.3-2c-0.8-0.6-1.5-1.3-2.3-1.9c-1.5-1.2-2.9-2.4-4-3.4c-1.2-1.1-2.1-1.9-2.8-2.6c-0.7-0.7-1-1.1-1-1.1
		L107.6,392.5z"/>
	<path class="st15" d="M380.7,384.9l-0.1-0.1l-0.1,0l0,0l-0.1,0.1l-0.1,0.1c0,0.1,0,0.2-0.1,0.3l0,0.2l0,0.1l0,0l0,0l0,0l0-0.1
		c0,0-0.1-0.1-0.3-0.1l-0.3,0.2c0.1-1,0.2-2.1,0.4-3.1c0.2-1,0.4-2,0.6-3c0.2-1,0.5-2,0.7-3c0.3-1,0.5-2,0.9-3c0.6-2,1.3-3.9,2-5.9
		l1.2-2.9c0.4-1,0.8-1.9,1.3-2.8c0.4-0.9,0.9-1.9,1.3-2.8c0.5-0.9,0.9-1.9,1.4-2.8l1.5-2.7c0.5-0.9,1.1-1.8,1.6-2.6
		c0.6-0.9,1.1-1.8,1.7-2.6l1.8-2.5c1.3-1.7,2.6-3.2,4-4.7l1,0.7c-0.4,0.9-0.9,1.9-1.3,2.8c-0.5,0.9-1,1.8-1.4,2.7l-2.8,5.4l-2.7,5.4
		l-1.3,2.7c-0.5,0.9-0.9,1.8-1.3,2.7c-0.9,1.8-1.7,3.6-2.6,5.5l-1.3,2.8c-0.4,0.9-0.8,1.9-1.2,2.8c-0.4,0.9-0.8,1.9-1.2,2.8
		l-1.2,2.8l-2.4,5.6l-0.1,0.2l-0.2,0c-0.2,0-0.2-0.1-0.3-0.1l0-0.1l0-0.1l0-0.1l0-0.1l0-0.1l0.1-0.2c0.1-0.1,0.1-0.3,0.2-0.4
		l0.1-0.2c0.1-0.1,0.1-0.1,0.2-0.1l0.1,0l0.1,0L380.7,384.9L380.7,384.9z"/>
	<path class="st15" d="M281.9,364.1c0,0-0.1-1.1-0.2-3.1c-0.1-2-0.2-4.9-0.1-8.3c0-1.7,0.1-3.6,0.2-5.5c0.1-2,0.3-4,0.5-6.2
		c0.2-2.1,0.5-4.3,0.8-6.6c0.3-2.2,0.7-4.5,1.1-6.8c0.5-2.3,0.9-4.5,1.5-6.7c0.5-2.2,1.1-4.4,1.7-6.4c0.3-1,0.7-2,1-3
		c0.3-1,0.6-2,1-2.9c0.7-1.9,1.4-3.6,2.1-5.2c0.4-0.8,0.7-1.5,1-2.3c0.4-0.7,0.7-1.4,1-2c0.6-1.2,1.2-2.3,1.7-3.2
		c1-1.7,1.6-2.7,1.6-2.7l1,0.6c0,0-0.4,1.1-1.2,2.9c-0.4,0.9-0.8,2-1.3,3.3c-0.2,0.6-0.5,1.3-0.8,2c-0.2,0.7-0.5,1.5-0.7,2.3
		c-0.2,0.8-0.6,1.6-0.8,2.5c-0.2,0.9-0.5,1.8-0.8,2.7c-0.5,1.9-1,3.8-1.5,5.9c-0.4,2.1-0.9,4.2-1.3,6.3c-0.5,2.2-0.8,4.4-1.2,6.6
		c-0.3,2.2-0.7,4.4-0.9,6.6c-0.3,2.2-0.5,4.4-0.8,6.5c-0.1,1.1-0.2,2.1-0.3,3.1c-0.1,1-0.3,2-0.4,3c-0.2,1.9-0.5,3.8-0.7,5.4
		c-0.2,1.7-0.5,3.2-0.6,4.6c-0.2,1.4-0.4,2.6-0.6,3.6c-0.3,2-0.6,3.1-0.6,3.1L281.9,364.1z"/>
	
		<ellipse transform="matrix(0.9577 -0.2876 0.2876 0.9577 -157.0452 60.4907)" class="st15" cx="127.4" cy="564.8" rx="4.9" ry="11.5"/>
	
		<ellipse transform="matrix(0.4193 -0.9079 0.9079 0.4193 -414.1083 507.0979)" class="st15" cx="189.3" cy="577.2" rx="11.5" ry="4.9"/>
	<polygon class="st15" points="459.2,390.4 459.2,390.4 459.2,390.4 	"/>
	<path class="st13" d="M398.9,652.4c-1.1,2.9-1.7,8-6,15.9c-7.2,13.4-13.2,17.7-13.2,22c-0.1,0.1-0.2,1.1-0.2,1.2
		c-0.4,15.4,2.7,15.4,1.6,24.6c-7.3,55.2-120.8,44.3-157.3-19.5c23.8-74,61.8-123.7,139.9-119.8c22.9,1.6,43.3,10.2,62,22.9
		l-4.4,6.4c-23.7-16.1-43.5-21.5-65.4-21.9c0.1,0,0,0,0,0c-68.5,1.5-104,47.3-125.4,113l-0.2-2.5c27.3,50.7,146.2,69,143.3,18
		c-1.7-30-6.7-22.1,10.5-46.6c0,0,10.5-15.5,10.7-15.8L398.9,652.4z"/>
	<path class="st14" d="M219.3,692.1c6.6-10.2,19.5-32.2,30.7-31.9c9.9,0,16,16.8,16,28c0,17.6-11.4,35.7-20.4,35.7
		C232.5,724,214.2,700.2,219.3,692.1z"/>
	<path class="st15" d="M263.3,668.9c13.1,25.8-5.3,70.7-30.6,52.2c-10.4-7.5-19.4-21.9-15.5-29.5
		C231.3,667.3,250.8,644.2,263.3,668.9z M231.1,713.5c12.3,12.9,21.4,9.8,28.7-6.4c10.5-23.4-1.3-47.4-11.9-44.7
		c-8.6,2.3-18.2,17.2-22.9,24.6C221,693.3,215.3,696.3,231.1,713.5z"/>
	<path class="st14" d="M241.9,727.1c-4.6,0,9.8-43,34.3-43c25.4,0,30,41.4,30,53.6C306.2,769.9,241.9,740.9,241.9,727.1z"/>
	<path class="st15" d="M239.5,725.1c7.7-44.9,52.1-63.2,65.5-10.7c6.9,27.7,5,42.5-23.7,39.6C264.6,751.8,236.4,735.4,239.5,725.1z
		 M245.8,730.4C245.8,730.4,245.9,730.6,245.8,730.4c2.6,2,17.9,16,36.2,18.9c19.8,2.4,22-4.6,22.1-11.5c0-20.4-6.5-50.9-28-52.1
		c0,0-0.1,0,0,0c-22.1,0.8-33.2,34.1-33.2,40.1C243.3,726.6,242.3,726.9,245.8,730.4z"/>
	<path class="st14" d="M326.1,690.3c19.8,0,33.2,25.6,33.2,45.8c0,24.4-20.4,24.8-56.9,18.7C293.4,750.4,298.1,690.3,326.1,690.3"/>
	<path class="st15" d="M326.5,688.7c31.4,1.2,60,74.3,1.5,71.4c-8.9-0.5-17.6-2-26.3-3.5c-1.8-1-3-1.6-3.9-3.4
		C293.8,727,302.9,687.8,326.5,688.7 M303.1,753.2l-0.5-0.2c10.5,1.6,40.3,6.3,48.9-2c16.8-12.7-6.7-73.5-34.2-56.6
		C299,705.5,296.4,750,303.1,753.2"/>
	<path class="st23" d="M90.6,396.6c-0.2,0.2-0.3,0.4-0.5,0.6c2.1,3.2,7.5,11.1,7.6,18.7c-0.3,10.8-3.1,18.7-6.6,25
		c0.2,0.3,0.4,0.6,0.5,0.9c6.4-6.4,10.5-16.9,9.8-26.4C101,407.5,97.1,400.9,90.6,396.6"/>
	<path class="st24" d="M91.1,396c-0.2,0.2-0.3,0.4-0.5,0.6c6.5,4.3,10.4,10.8,10.9,18.9c0.7,9.5-3.4,20-9.8,26.4
		c0.1,0.1,0.1,0.2,0.2,0.3c5.3-4.2,9.5-13.4,10.4-21.2C103.9,409.4,95.1,399,91.1,396"/>
	<path class="st24" d="M91.1,441c-0.5,1-1.1,1.9-1.6,2.8c0.8-0.4,1.6-0.9,2.4-1.5c-0.1-0.1-0.1-0.2-0.2-0.3
		C91.5,441.6,91.3,441.3,91.1,441 M89.4,395.1c-0.3,0-0.3,0.2-0.1,0.7c0,0.1,0.3,0.7,0.8,1.5c0.1-0.2,0.3-0.4,0.5-0.6
		c0.2-0.2,0.3-0.4,0.5-0.6C90.3,395.4,89.7,395.1,89.4,395.1"/>
	<path class="st24" d="M125.4,333.5c-0.1,0,0.1,0.4,0.5,1.2c0-0.2,0-0.4,0-0.6C125.6,333.7,125.5,333.5,125.4,333.5"/>
	<path class="st23" d="M125.9,335.7C125.9,335.7,125.8,335.7,125.9,335.7c-2.2,32.9-18.7,39.9-24.5,42.1c-0.2,0.8-0.3,1.5-0.6,2.3
		c8.3-1.1,15.7-5.2,20.6-11.8C128,359.7,129.6,348.2,125.9,335.7"/>
	<path class="st24" d="M126.2,335.6c-0.1,0-0.2,0.1-0.4,0.1c3.7,12.4,2.1,24-4.4,32.6c-5,6.6-12.3,10.7-20.6,11.8
		c-0.1,0.2-0.2,0.5-0.2,0.7c0.1,0,0.2,0,0.3,0c5,0,18.4-5.2,23.9-16.3C131.3,351.4,128,340.1,126.2,335.6"/>
	<path class="st24" d="M101.4,377.8c-1.2,0.5-2,0.7-2,1c-1.1,1.2-0.5,1.9,1.1,2c0.1-0.2,0.2-0.5,0.2-0.7
		C101.1,379.4,101.3,378.6,101.4,377.8 M125.9,334.7c0,0.4,0,0.7-0.1,1.1c0,0,0,0,0.1,0c0.1,0,0.2-0.1,0.4-0.1
		C126.1,335.2,126,334.9,125.9,334.7"/>
	<path class="st23" d="M183.6,303.7c-2,3.3-6.9,10.5-18.5,12.5c-4.5,0.8-9.5,1.6-14.3,1.6c-2.1,0-4.2-0.2-6.3-0.6
		c0,0.1-0.1,0.1-0.1,0.2c0,0,0,0,0,0c1.4,0.3,3.7,0.7,5.9,1.1c3.5,0.5,6.8,0.8,9.8,0.8c9.1,0,16-2.5,20.4-7.5c1.2-1.4,2.2-2.8,3-4.4
		C183.6,306.2,183.6,304.9,183.6,303.7"/>
	<path class="st18" d="M183.6,309.6c-0.6,1-1.4,2-2.2,3c-0.6,0.7-1.2,1.3-1.9,1.9c1.7-1.2,3.1-2.5,4.1-4
		C183.6,310.2,183.6,309.9,183.6,309.6"/>
	<path class="st24" d="M144.5,317.5L144.5,317.5C144.5,317.5,144.5,317.5,144.5,317.5C144.5,317.5,144.5,317.5,144.5,317.5
		 M183.6,307.5c-0.8,1.5-1.7,3-3,4.4c-4.4,5-11.3,7.5-20.4,7.5c-3,0-6.3-0.3-9.8-0.8c3,0.6,6.2,1.1,7.7,1.3c0.9,0.1,1.8,0.2,2.8,0.2
		c6.2,0,13.7-2.1,18.7-5.6c0.7-0.6,1.3-1.2,1.9-1.9c0.8-0.9,1.6-1.9,2.2-3C183.6,308.9,183.6,308.2,183.6,307.5"/>
	<path class="st24" d="M142.9,317c-0.4,0,0.3,0.2,1.6,0.4l0,0c0-0.1,0.1-0.1,0.1-0.2c-0.2,0-0.5-0.1-0.7-0.2
		C143.4,317,143.1,317,142.9,317 M184.8,302c-0.2,0-0.6,0.7-1.2,1.7c0,1.3,0,2.6-0.1,3.9c0,0.7,0,1.4,0,2.1c0,0.3,0,0.6,0,0.9
		c1.1-1.6,1.7-3.4,1.5-5.2C185.1,302.9,185.1,302,184.8,302"/>
	<path class="st18" d="M279.7,277.3c-2.2,1.9-4.7,3.4-7.2,4.6C275.3,280.7,277.7,279.1,279.7,277.3"/>
	<path class="st23" d="M285.6,267c-5,4.8-11,10.8-21.1,10.9c-7.6,0-18.9-1.8-25.1-3.9c-0.2,0.2-0.4,0.4-0.6,0.7
		c6.7,5.9,14.2,8.9,21.6,8.9c1.9,0,3.8-0.2,5.6-0.6c8.3-1.8,15.6-7.3,20.5-15.3C286.3,267.4,286,267.2,285.6,267"/>
	<path class="st24" d="M286.6,267.6c-4.9,8-12.2,13.6-20.5,15.3c-1.9,0.4-3.8,0.6-5.6,0.6c-7.4,0-14.9-3.1-21.6-8.9c0,0,0,0-0.1,0.1
		c2,3,7.9,8.9,22.5,9.3c0.3,0,0.6,0,0.9,0c3.9,0,7.3-0.8,10.3-2.2c2.6-1.2,5-2.7,7.2-4.6c3.6-3.2,6.1-6.8,7.3-9.4
		C286.9,267.8,286.8,267.7,286.6,267.6"/>
	<path class="st24" d="M238.1,273.5c0.1,0.3,0.3,0.7,0.7,1.2c0,0,0,0,0.1-0.1c0.2-0.2,0.4-0.5,0.6-0.7
		C239,273.8,238.5,273.6,238.1,273.5 M287.7,265c-0.7,0.6-1.4,1.3-2.1,2c0.3,0.2,0.7,0.4,1,0.6c0.1,0.1,0.2,0.1,0.3,0.2
		C287.5,266.6,287.8,265.6,287.7,265"/>
	<path class="st23" d="M317.8,270.5c-0.6,0.3-1.1,0.7-1.7,1c2.1,3.1,4.5,5.8,7.1,7.8c1.4,0.9,3,1.9,4.7,3c2.5,1.2,5.1,2,7.8,2.2
		c0.6,0,1.2,0.1,1.7,0.1c4.7,0,9.3-1.6,13.6-4.7c0.4-0.4,0.9-0.9,1.3-1.3c0,0,0,0,0,0c0,0,0,0,0,0c-3.9,1.5-7.9,2.3-12,2.3
		C332.1,280.9,324.1,277.6,317.8,270.5"/>
	<path class="st24" d="M351,279.9c-4.2,3.1-8.9,4.7-13.6,4.7c-0.6,0-1.2,0-1.7-0.1c-2.7-0.2-5.3-1-7.8-2.2c0.4,0.2,0.7,0.5,1.1,0.7
		c2.4,1.7,5.2,2.3,8.1,2.3c4.2,0,8.4-1.4,11.4-2.9C349.4,281.6,350.2,280.8,351,279.9 M316.1,271.6C316,271.6,316,271.6,316.1,271.6
		c1,3.6,3.6,5.6,7.1,7.8C320.6,277.3,318.2,274.7,316.1,271.6"/>
	<path class="st24" d="M352.3,278.6C352.3,278.6,352.3,278.6,352.3,278.6c-0.4,0.5-0.9,0.9-1.3,1.3c-0.8,0.8-1.7,1.7-2.5,2.6
		C352,280.7,353.9,278.8,352.3,278.6 M315.5,267.7c0,1.5,0.2,2.8,0.5,3.9c0,0,0,0,0.1,0c0.6-0.3,1.1-0.7,1.7-1
		C317,269.6,316.2,268.7,315.5,267.7"/>
	<path class="st18" d="M392.2,318.3c2.2,0.8,4.8,1.2,8.1,1.2c1,0,2.4-0.2,3.8-0.5c-1.5,0.2-2.9,0.2-4.2,0.2
		C397.1,319.3,394.5,318.9,392.2,318.3"/>
	<path class="st23" d="M385.2,305.7c-0.3,1.8-0.7,3.5-1,5.1c0.2,0.5,0.4,0.9,0.6,1.4c2.7,3.9,8.1,6,15.1,6c1.6,0,3.2-0.1,4.9-0.3
		c-0.8-1.4-1.5-2.8-2.3-4.2C396.2,312.9,390.1,310,385.2,305.7"/>
	<path class="st24" d="M384.8,312.3c1.2,2.3,3.5,4.6,7.4,6c2.3,0.7,4.9,1,7.7,1c1.4,0,2.8-0.1,4.2-0.2c0.6-0.1,1.1-0.3,1.6-0.4
		c-0.9-1.6-1.7-3.2-2.6-4.7c-0.2,0-0.4-0.1-0.6-0.1c0.8,1.4,1.6,2.8,2.3,4.2c-1.7,0.2-3.4,0.3-4.9,0.3
		C392.9,318.3,387.5,316.1,384.8,312.3"/>
	<path class="st25" d="M409.8,314.7c0.1,0.3,0.3,0.6,0.4,0.8c0-0.1,0-0.2,0-0.3C410.2,315,410,314.9,409.8,314.7"/>
	<path class="st24" d="M403.2,313.9c0.9,1.6,1.8,3.2,2.6,4.7c2.2-0.7,4.1-1.7,4.4-3.1c-0.1-0.3-0.3-0.6-0.4-0.8
		c-0.2-0.1-0.4-0.3-0.4-0.7c-0.9,0.1-1.7,0.1-2.6,0.1C405.6,314.1,404.4,314,403.2,313.9 M384.1,304.8c-0.4,0.9-0.6,1.8-0.6,2.7
		c0,0.9,0.1,2.1,0.6,3.4c0.3-1.7,0.6-3.4,1-5.1C384.8,305.4,384.5,305.1,384.1,304.8"/>
	<path class="st18" d="M421.5,336.3c-0.1,0.3-0.2,0.6-0.3,0.9C421.3,336.9,421.4,336.6,421.5,336.3"/>
	<path class="st23" d="M422.6,336c-1.1,3.3-1.6,6.5-1.7,9.6c0.2,2.8,0.6,5.8,1.1,8.5c0.6,2,1.4,3.9,2.5,5.8
		c4.6,8.1,13.5,14.5,24.5,18c0-0.4,0-0.8,0-1.1c0-0.2,0-0.3,0-0.5c-10.5-7.9-26.8-24.4-26.1-40.2C422.8,336.1,422.7,336,422.6,336"
		/>
	<path class="st24" d="M422,354.1c0.6,2.9,1.4,5.5,2.4,7.3c5.4,9.7,17.8,15.2,24.5,17.2c0-0.2,0-0.5,0-0.7c-11-3.5-19.9-10-24.5-18
		C423.4,358,422.6,356.1,422,354.1 M421.7,335.8c-0.1,0.1-0.2,0.3-0.3,0.5c-0.1,0.3-0.2,0.6-0.3,0.9c-0.4,1.9-0.5,5-0.3,8.4
		c0.1-3.1,0.6-6.3,1.7-9.6C422.3,335.9,422,335.8,421.7,335.8"/>
	<path class="st24" d="M449,376.3c0,0.2,0,0.3,0,0.5c0,0.4,0,0.8,0,1.1c0,0.2,0,0.5,0,0.7c2,0.6,3.6,0.9,4.3,0.9
		c0.2,0,0.4,0,0.4-0.1C452.3,378.6,450.7,377.6,449,376.3 M422.4,335.2c-0.3,0-0.5,0.2-0.7,0.5c0.3,0.1,0.6,0.2,0.9,0.3
		c0.1,0,0.2,0.1,0.3,0.1c0-0.2,0-0.5,0-0.7C422.8,335.3,422.6,335.2,422.4,335.2"/>
	<path class="st25" d="M468.1,398.4C468,398.4,468,398.4,468.1,398.4C468,398.4,468,398.4,468.1,398.4
		C468.1,398.4,468.1,398.4,468.1,398.4"/>
	<path class="st18" d="M458.1,457.8c2.5,4.9,5.4,8.5,7.9,10.9C462.9,465.2,460.2,461.6,458.1,457.8"/>
	<path class="st23" d="M462.4,404.6c-6.9,8.2-10.5,18.9-10.1,30.1c0.5,13.7,7.1,26.9,18.6,37.6c0,0,0,0,0,0c0.6-0.9,1.2-1.8,1.7-2.8
		c-2.5-4.6-10.8-14.6-14.2-34.7c-1.6-9.1-0.1-21.1,5.3-28.9C463.3,405.4,462.9,405,462.4,404.6"/>
	<path class="st24" d="M461.8,404c-5.4,7-11,19-10.1,29.5c0.8,10.3,3.4,18.3,6.4,24.3c2.2,3.8,4.8,7.5,7.9,10.9
		c1.9,1.8,3.6,3,4.9,3.6c-11.5-10.7-18.1-23.9-18.6-37.6c-0.4-11.2,3.2-21.9,10.1-30.1C462.2,404.4,462,404.2,461.8,404"/>
	<path class="st24" d="M472.6,469.5c-0.5,0.9-1.1,1.8-1.7,2.8c0.7,0.3,1.2,0.4,1.6,0.4c0.4,0,0.6-0.2,0.6-0.5
		C473.6,471.7,473.4,470.8,472.6,469.5 M468,398.4c-1.7,0.6-3.9,2.6-6.2,5.6c0.2,0.2,0.4,0.4,0.6,0.6c0.5,0.4,0.9,0.8,1.3,1.3
		c0.3-0.5,0.7-1,1.1-1.4C465.7,402,468,400.8,468,398.4C468,398.4,468,398.4,468,398.4"/>
	<path class="st18" d="M124.3,685.2c0,0.5,0,0.9,0,1.4c0,0,0,0.1,0,0.1c0.1-0.4,0.2-0.8,0.3-1.1
		C124.5,685.4,124.4,685.3,124.3,685.2"/>
	<path class="st24" d="M123.9,684.7c0.2,0.6,0.3,1.2,0.4,1.9c0-0.5,0-0.9,0-1.4C124.2,685.1,124.1,685,123.9,684.7"/>
	<path class="st18" d="M138.3,363.4c-5,0-9.1,5-9.1,11.2c0,6.2,4.1,11.2,9.1,11.2s9.1-5,9.1-11.2
		C147.4,368.4,143.3,363.4,138.3,363.4"/>
	<path class="st18" d="M250.5,307.7c-4.6,0-8.3,4.4-8.3,9.8c0,5.4,3.7,9.8,8.3,9.8c4.6,0,8.3-4.4,8.3-9.8
		C258.8,312.1,255.1,307.7,250.5,307.7"/>
	<path class="st18" d="M269.9,307.7c-2.1,0-3.8,1.6-3.8,3.6s1.7,3.6,3.8,3.6c2.1,0,3.8-1.6,3.8-3.6S272,307.7,269.9,307.7"/>
	<path class="st18" d="M264.5,327.2c-1.7,0-3,2.1-3,4.7c0,2.6,1.3,4.7,3,4.7c1.7,0,3-2.1,3-4.7C267.5,329.4,266.1,327.2,264.5,327.2
		"/>
	<path class="st18" d="M411.5,369.5c-0.9,0-1.7,0.1-2.6,0.4c-4.6,1.5-7,6.5-5.5,11.3c1.2,3.9,4.7,6.3,8.5,6.3c0.9,0,1.7-0.1,2.6-0.4
		c4.6-1.5,7-6.5,5.5-11.3C418.7,372,415.2,369.5,411.5,369.5"/>
	<path class="st18" d="M400.6,389.8c-2.1,0-3.7,1.7-3.7,3.7s1.7,3.7,3.7,3.7s3.7-1.7,3.7-3.7S402.7,389.8,400.6,389.8"/>
	<path class="st18" d="M413.3,443.1c-6,0-10.9,4.9-10.9,10.9s4.9,10.9,10.9,10.9c6,0,10.9-4.9,10.9-10.9S419.3,443.1,413.3,443.1"/>
	<path class="st18" d="M438.7,441.6c-2.3,0-4.2,1.9-4.2,4.2c0,2.3,1.9,4.2,4.2,4.2s4.2-1.9,4.2-4.2
		C442.8,443.5,441,441.6,438.7,441.6"/>
	<path class="st18" d="M422.4,426.7c-1.9,0-3.4,1.5-3.4,3.4s1.5,3.4,3.4,3.4s3.4-1.5,3.4-3.4S424.3,426.7,422.4,426.7"/>
	<path class="st18" d="M142.4,350.5c-2.2,0-4,1.8-4,4c0,2.2,1.8,4,4,4c2.2,0,4-1.8,4-4C146.4,352.3,144.6,350.5,142.4,350.5"/>
	<polyline class="st26" points="15.9,672.4 15.9,672.7 15.9,672.5 15.9,672.4 	"/>
	<polyline class="st27" points="47.6,641.3 47.6,641.3 47.6,641.3 	"/>
	<polyline class="st26" points="52.4,700.6 52.4,700.6 52.3,700.8 52.4,700.6 	"/>
	<path class="st26" d="M302.6,753l0.5,0.2l-0.2-0.1C302.8,753.1,302.7,753.1,302.6,753"/>
	<path class="st17" d="M321.2,605.4c0,0,0,0.2,0,0.6c0,0.2,0.1,0.3,0.1,0.4c0.1,0.2,0.1,0.4,0.2,0.7c0.2,0.5,0.5,1,1,1.6
		c0.2,0.3,0.5,0.5,0.7,0.8c0.3,0.3,0.5,0.5,0.8,0.7c0.6,0.5,1.2,0.9,1.9,1.2c0.3,0.2,0.6,0.3,0.9,0.4c0.3,0.1,0.6,0.2,0.9,0.3
		c0.3,0.1,0.5,0.1,0.7,0.1c0.2,0,0.4,0.1,0.6,0.1c0.3,0,0.5,0,0.5,0v2c0,0-0.2,0-0.6,0c-0.2,0-0.4,0-0.7-0.1
		c-0.3-0.1-0.6-0.1-0.9-0.2c-0.3-0.1-0.7-0.2-1.1-0.3c-0.4-0.1-0.8-0.3-1.1-0.5c-0.8-0.4-1.5-0.9-2.2-1.4c-0.4-0.3-0.7-0.6-1-0.9
		c-0.3-0.3-0.6-0.6-0.9-1c-0.5-0.7-0.9-1.4-1.2-2c-0.1-0.3-0.2-0.6-0.3-0.9c-0.1-0.3-0.1-0.6-0.2-0.8c0-0.4,0-0.6,0-0.6L321.2,605.4
		z"/>
	<path class="st17" d="M305.3,608.1c0,0,0.2,0.6,0.6,1.6c0.2,0.5,0.5,1,0.7,1.6c0.3,0.6,0.7,1.3,1.2,2.1c0.5,0.7,1,1.5,1.7,2.3
		c0.3,0.4,0.6,0.8,1,1.2c0.4,0.4,0.7,0.8,1.1,1.2c0.4,0.4,0.8,0.8,1.2,1.1c0.4,0.4,0.9,0.7,1.3,1.1c0.5,0.3,0.9,0.7,1.4,1
		c0.5,0.3,1,0.6,1.5,0.9c1,0.6,2.1,1.1,3.1,1.5c0.5,0.2,1.1,0.4,1.6,0.5c0.5,0.2,1,0.3,1.6,0.4c1,0.2,2,0.3,3,0.4c0.5,0,0.9,0,1.4,0
		c0.1,0,0.5,0,0.7,0c0.2,0,0.4,0,0.6,0c0.8-0.1,1.6-0.1,2.2-0.3c0.7-0.1,1.2-0.2,1.7-0.3c0.9-0.2,1.5-0.3,1.5-0.3l1.7,3.8
		c0,0-0.1,0.1-0.4,0.3c-0.3,0.2-0.7,0.4-1.3,0.7c-0.6,0.2-1.3,0.5-2.1,0.7c-0.8,0.2-1.8,0.4-2.9,0.4c-0.3,0-0.5,0-0.8,0
		c-0.3,0-0.5,0-0.8,0c-0.6,0-1.2-0.1-1.8-0.1c-1.2-0.2-2.5-0.3-3.7-0.7c-0.6-0.2-1.3-0.4-1.9-0.6c-0.6-0.2-1.3-0.5-1.9-0.8
		c-1.2-0.5-2.4-1.2-3.6-1.9c-0.6-0.4-1.1-0.7-1.7-1.1c-0.5-0.4-1.1-0.8-1.6-1.2c-0.5-0.4-1-0.9-1.5-1.3c-0.5-0.4-0.9-0.9-1.4-1.4
		c-0.5-0.4-0.8-0.9-1.2-1.4c-0.4-0.5-0.8-0.9-1.1-1.4c-0.7-0.9-1.3-1.8-1.8-2.7c-0.5-0.9-0.9-1.7-1.3-2.4c-0.3-0.8-0.7-1.5-0.9-2
		c-0.4-1-0.6-1.6-0.6-1.6L305.3,608.1z"/>
	<path class="st17" d="M330.1,595.1c0,0,0.5,0,1.4,0c0.2,0,0.5,0,0.7,0c0.3,0,0.6,0.1,0.9,0.1c0.7,0.1,1.5,0.1,2.2,0.3
		c0.4,0.1,0.8,0.2,1.2,0.3c0.4,0.1,0.8,0.3,1.3,0.4c0.9,0.3,1.8,0.7,2.7,1.1c0.9,0.5,1.8,1,2.6,1.6c0.9,0.6,1.7,1.2,2.5,1.9
		c0.8,0.7,1.6,1.3,2.3,2c0.8,0.7,1.4,1.4,2.1,2.1c1.3,1.4,2.4,2.8,3.3,4c0.9,1.2,1.6,2.2,2.1,2.9c0.5,0.7,0.8,1.1,0.8,1.1l-1.9,1.7
		c0,0-0.4-0.3-1-0.9c-0.6-0.6-1.5-1.5-2.5-2.6c-1-1.1-2.2-2.3-3.4-3.7c-0.6-0.7-1.2-1.4-1.9-2c-0.6-0.7-1.3-1.3-2-2
		c-0.7-0.6-1.4-1.2-2.2-1.7c-0.7-0.6-1.5-1-2.2-1.4c-0.8-0.4-1.5-0.8-2.2-1c-0.4-0.1-0.7-0.3-1.1-0.4c-0.4-0.1-0.7-0.2-1-0.3
		c-0.7-0.2-1.3-0.2-1.8-0.3c-0.3,0-0.5-0.1-0.7-0.1c-0.3,0-0.5,0-0.7,0c-0.9,0-1.4,0-1.4,0L330.1,595.1z"/>
	<path class="st28" d="M774.5,525.8c-2.7,23-34.8,34.8-60.8,35.5c-48,1.4-58.1-11.3-68.3-25.7c-24.3-34.8-24.6-26.4-50.2-46
		c-50.4-38.7-36.2-65.6-35.4-70.2c0,0.1,0,0.2,0,0.3c-0.1,0.3,0.3-0.5,0.5-1.4c5.5-0.1,10.3-2,12.1-6.9l-0.3-0.2
		c-6.7,7.1-17.1,4.6-26.8,3.3l-0.2,0.6c3,1.3,6.7,2.4,10.5,2.9c-4.5,14.2-3.4,28.8,9.2,46.2c22,30.7,47.2,34.4,65.6,57.7
		c5.6,7.1,10,14.1,14.9,20.4c-27.9-1.8-56.2-18.9-74.9-36.6l-1.1,1.1c5.5,5.9,9.2,10.3,13.7,14.6c-3.7,0.8-8.9,1.5-13.6-2.6
		l-1.5,1.4c4.4,5.8,12.6,6.6,18.6,4.4c8.2,7.3,24.9,18.5,36.5,22.8c6.6,37.2,2.9,72.8-1,107.5H445.4c2.5-3.2,5.6-7,11.7-14.4
		c86.5-103.3,72.9-125.5,48.6-177.4c-17.6-37.6-21.5-65.4,55.3-109c37.8-21.4,37.7-22,49.7-19.5c15.3,2.8,28.6,13.2,44.5,17h0
		c5,4.4,8.4,8,11.3,14.3l2.1-0.5c-0.5-4.8-1.7-8.7-3.4-12.5c4.6-0.2,14.4-1.1,14.4-1.2c24-0.7,24.7,13.1,30.5,28
		c5,13.1,24.9,33.2,24.3,63.1c-4.9-7.2-8.8-14.2-10.7-20.6l-1.6,0.3C726.4,457.6,778,493.9,774.5,525.8"/>
	<path class="st29" d="M738.5,448.8c5.1-34-17.4-58.5-22.5-71.2c-10.3-26.4-15.9-33-48.8-32.6c-18,0.2-40.6-13.1-66.4-14.6
		c-3.4,0.1-25.7,7.4-43.3,17.8c-136.3,79.2-20,108.1-41.9,191.9c-9.1,38-49,74-78.1,114.9c2.4,0,5.1,0,7.9,0.1
		c2.5-3.2,5.6-7,11.7-14.3c86.5-103.3,72.9-125.5,48.6-177.4c-17.6-37.6-21.5-65.4,55.3-109c37.8-21.4,37.7-22,49.7-19.5
		c15.3,2.8,28.6,13.2,44.5,17h0c5,4.4,8.4,8,11.3,14.3l2.1-0.5c-0.5-4.8-1.7-8.7-3.4-12.5c4.6-0.2,14.4-1.1,14.4-1.2
		c24-0.7,24.7,13.1,30.5,28c5,13.1,24.9,33.2,24.3,63.1c-4.9-7.2-8.8-14.2-10.7-20.6l-1.6,0.3c4.2,34.9,55.7,71.2,52.2,103.1
		c-2.7,23-34.8,34.8-60.8,35.5c-48,1.4-58.1-11.3-68.3-25.7c-24.3-34.8-24.6-26.4-50.2-46c-50.4-38.7-36.2-65.6-35.4-70.2
		c0,0.1,0,0.2,0,0.3c-0.1,0.3,0.3-0.5,0.5-1.4c5.5-0.1,10.3-2,12.1-6.9l-0.3-0.2c-6.7,7.1-17.1,4.6-26.8,3.3l-0.2,0.6
		c3,1.3,6.7,2.4,10.5,2.9c-4.5,14.2-3.4,28.8,9.2,46.2c22,30.7,47.2,34.5,65.6,57.7c5.6,7.1,10,14.1,14.9,20.4
		c-27.9-1.8-56.2-18.9-74.9-36.6l-1.1,1.1c5.5,5.9,9.2,10.3,13.7,14.6c-3.7,0.8-8.9,1.5-13.6-2.6l-1.5,1.4c5.8,7.6,16,5.4,18.6,4.4
		c8.3,7.3,24.9,18.5,36.5,22.8c6.6,37.3,2.8,73-1,107.8c2.6,0,5.2,0,7.8,0c3.8-38.1,6.8-70.1-0.7-105.8c8.8,2.4,17.2,3.1,25.8,3.1
		c3.2,2.8,6.9,5.2,11.3,7.2c18.3,8.5,49.1,8.3,68.4,3.6c13.5-3.3,26.7-9.3,35.4-18.3C797.7,516.6,761.4,480.3,738.5,448.8"/>
	<path class="st30" d="M611,655.2h-80.9c27.5-47.4,37.5-82.3,46.8-129.5c3.6,0.5,7.2,0,9.5-0.8c8.2,7.2,23.2,16.9,30.4,20.2
		C619.9,580.1,619.3,620.3,611,655.2"/>
	<path class="st31" d="M541,638.3c23.8,3.8,47.8,2,71.4-2.8l0.7,3c-24.3,5.7-46.2,7.1-72.5,1.9L541,638.3"/>
	<path class="st31" d="M556.5,603.6c19.7,4.6,40.4,2.8,59.5-3.3l0.8,3.1c-18.2,3.8-32.4,7.7-61.1,5.8L556.5,603.6z"/>
	<path class="st31" d="M569.4,568.6c19,6.8,40.5,4,46.7,0.5l0.7,3.3c-9.1-0.7-25.2,6-48.4-1L569.4,568.6z"/>
	<path class="st32" d="M611,655.2h-4.9c13.4-55.1,8-91,7.1-112c0.7,0.4,2.8,1.5,3.6,1.8C619.9,580.1,619.3,620.3,611,655.2"/>
	<path class="st31" d="M576.1,542.2c17.8,5.6,28.2,5.6,39.1,5.8l0.1,1c-12.4,2.4-28,1.9-40.3-3.7L576.1,542.2z"/>
	<path class="st32" d="M580.4,525.8c-7.3,57.6-35.4,116.4-68.5,164.7l-2.8-1.9c45.8-68.5,57.3-109.7,67.8-163
		C578.1,525.8,579.3,525.9,580.4,525.8"/>
	<path class="st33" d="M524.1,571.1c-5.3,0-10.1-1.3-14.4-3.2c0.3-0.6,0.6-1.2,0.9-1.8c2.6-4.8,4.7-9.4,6.5-13.8
		c0.3-0.7,0.5-1.3,0.8-1.9c10.1,7,19.9,12.2,20.9,13.6C541.8,567.9,529.8,571.1,524.1,571.1z"/>
	<path class="st34" d="M540.4,562.8c-0.7-0.9-2.5-2-7.5-5.1c-3.8-2.3-9.1-5.5-14.4-9.2c-0.2,0.6-0.5,1.3-0.7,1.9
		c-0.2,0.6-0.5,1.3-0.8,1.9c5,3.4,9.9,6.4,13.8,8.8c2.9,1.8,5.9,3.6,6.3,4.1l0,0c-0.9,1.8-8.7,3.9-13.1,3.9h-0.1
		c-4.9,0-9.4-1.2-13.4-3c-0.3,0.6-0.6,1.2-0.9,1.8c-0.3,0.6-0.6,1.2-1,1.7c5,2.3,10.1,3.5,15.3,3.5h0.1c4,0,14.5-1.8,16.7-6.1
		C541.6,565.6,541.4,564.1,540.4,562.8z"/>
	<path class="st33" d="M460.1,637.1c0.5-0.6,0.9-1.1,1.4-1.6c6-7.2,11.5-14.1,16.5-20.6c0.4-0.5,0.8-1.1,1.2-1.6
		c10.1,6.2,22.5,9.3,22.9,11.3C503.6,629.1,484.7,645.2,460.1,637.1z"/>
	<path class="st34" d="M458.7,638.8c0.5-0.6,0.9-1.1,1.4-1.7c0.5-0.6,0.9-1.1,1.4-1.6c21.8,6.7,38.7-7,38.7-10
		c0,0-16.7-7.1-22.2-10.5c0.4-0.5,0.8-1.1,1.2-1.6c0.4-0.5,0.8-1.1,1.2-1.6c5,3.1,10.6,5.3,15,7.1c5.5,2.2,8.1,3.3,8.6,5.2
		C506.4,631.4,484,647.4,458.7,638.8z"/>
	<path class="st33" d="M549.1,531.5c0,2.9-7.1,4.6-12.9,4.6c-4.5,0-8.9-1.3-13.2-3.4c0.1-0.7,0.2-1.4,0.3-2.1
		c0.7-4.7,0.9-9.1,0.7-13.4c0-0.8-0.1-1.7-0.2-2.5C538.2,524.2,549.1,528.8,549.1,531.5z"/>
	<path class="st34" d="M551.1,531.5c0,5.2-9.8,6.6-14.9,6.6c-4.7,0-9.2-1.3-13.6-3.4c0.1-0.7,0.3-1.3,0.4-2c0.1-0.7,0.2-1.4,0.3-2.1
		c4.2,2.1,8.5,3.4,12.9,3.4c5.8,0,10.1-1.5,10.8-2.5c-0.9-1.2-5.2-3.7-9.3-6.1c-3.8-2.2-8.5-4.9-13.7-8.3c0-0.8-0.1-1.7-0.2-2.5
		c-0.1-0.9-0.2-1.7-0.3-2.6c6.2,4.2,11.8,7.4,16.2,10C547.7,526.8,551.1,528.7,551.1,531.5z"/>
	<path class="st33" d="M521.7,595.7c-0.5,3-6,6.8-20.1,6.2c-2.8-0.1-7.3-0.6-12.2-2.4c0.4-0.6,0.8-1.2,1.2-1.7
		c4.7-6.5,8.7-12.7,12.3-18.4c0.4-0.6,0.7-1.2,1.1-1.7C512.3,584.9,522.4,591.1,521.7,595.7z"/>
	<path class="st34" d="M523.7,596c-0.6,4-6.1,8-19.5,8c-0.9,0-1.7,0-2.7-0.1c-2.8-0.1-7.8-0.6-13.3-2.7c0.4-0.6,0.8-1.1,1.2-1.7
		c0.4-0.6,0.8-1.2,1.2-1.7c4.9,1.7,9.1,2,11,2.1c13,0.5,17.8-2.9,18-4.6c0.4-2.2-5.5-6.9-10.2-10.6c-2.1-1.7-4.4-3.5-6.5-5.3
		c0.4-0.6,0.7-1.2,1.1-1.7c0.3-0.6,0.7-1.2,1-1.7c2.2,2,4.6,3.9,6.9,5.7C518.9,587.1,524.4,591.5,523.7,596z"/>
	<path class="st35" d="M688.6,520.9c-4,0-4-11.1,0-11.1C692.5,509.8,692.5,520.9,688.6,520.9z"/>
	<path class="st36" d="M642,422.7c0,0,0.6-0.5,1.6-1.3c0.5-0.4,1.2-0.9,2-1.4c0.4-0.3,0.8-0.5,1.3-0.8c0.5-0.3,1-0.5,1.5-0.8
		c0.5-0.3,1.1-0.6,1.6-0.8c0.6-0.3,1.2-0.5,1.8-0.7c1.2-0.5,2.6-0.9,4-1.3c1.4-0.3,2.9-0.7,4.4-0.9c1.5-0.3,3.1-0.3,4.6-0.5
		c1.6,0,3.1-0.1,4.6,0.1c1.5,0,3,0.3,4.4,0.5c0.7,0.1,1.4,0.3,2.1,0.4c0.7,0.1,1.3,0.3,2,0.4c1.3,0.3,2.5,0.7,3.6,1.1
		c0.5,0.2,1.1,0.4,1.6,0.6c0.5,0.2,0.9,0.4,1.4,0.6c0.9,0.4,1.6,0.7,2.2,1c1.2,0.6,1.9,1,1.9,1l-0.3,0.6c0,0-0.7-0.3-1.9-0.7
		c-0.6-0.2-1.4-0.5-2.2-0.7c-0.4-0.1-0.9-0.3-1.4-0.4c-0.5-0.1-1-0.2-1.6-0.4c-0.5-0.1-1.1-0.3-1.7-0.4c-0.6-0.1-1.2-0.2-1.8-0.3
		c-1.2-0.2-2.6-0.4-4-0.5c-1.4-0.1-2.8-0.2-4.3-0.2c-1.5-0.1-2.9,0.1-4.4,0.1c-1.5,0.2-2.9,0.2-4.3,0.5c-1.4,0.2-2.8,0.6-4.2,0.8
		c-0.7,0.2-1.3,0.4-1.9,0.6c-0.6,0.2-1.3,0.3-1.9,0.6c-0.6,0.2-1.2,0.4-1.7,0.6c-0.6,0.2-1.1,0.4-1.6,0.6c-0.5,0.2-1,0.4-1.5,0.6
		c-0.4,0.2-0.9,0.4-1.3,0.6c-0.4,0.2-0.8,0.4-1.1,0.5c-0.4,0.2-0.7,0.4-1,0.5c-1.2,0.6-1.9,1-1.9,1L642,422.7z"/>
	<path class="st36" d="M650.1,437.3c0,0,0.7-0.4,1.8-1c0.6-0.3,1.3-0.6,2.2-1c0.9-0.4,1.8-0.8,2.9-1.2c1.1-0.4,2.2-0.8,3.5-1.2
		c1.2-0.4,2.6-0.7,4-1.1c1.4-0.3,2.8-0.6,4.3-0.8c1.5-0.3,3-0.4,4.5-0.6c0.8-0.1,1.5-0.1,2.3-0.1c0.8-0.1,1.5-0.1,2.3-0.1
		c0.8,0,1.5,0,2.2,0c0.7,0.1,1.5,0.1,2.2,0.2c0.7,0,1.4,0.2,2.1,0.3c0.7,0.1,1.4,0.2,2,0.3c1.3,0.3,2.5,0.5,3.6,0.9
		c0.5,0.2,1.1,0.3,1.6,0.5c0.5,0.2,0.9,0.4,1.4,0.6c0.9,0.3,1.6,0.6,2.2,1c1.2,0.6,1.9,1,1.9,1l-0.3,0.7c0,0-0.7-0.2-1.9-0.7
		c-0.6-0.2-1.4-0.5-2.2-0.7c-0.4-0.1-0.9-0.2-1.4-0.4c-0.5-0.1-1-0.2-1.6-0.3c-1.1-0.2-2.3-0.4-3.5-0.5c-0.6-0.1-1.3-0.1-1.9-0.2
		c-0.7,0-1.3-0.1-2-0.1c-1.4,0-2.8,0-4.2,0c-1.4,0-2.9,0.2-4.4,0.3c-1.5,0.2-2.9,0.4-4.3,0.6c-1.4,0.2-2.8,0.6-4.2,0.8
		c-0.7,0.2-1.3,0.3-2,0.5c-0.7,0.1-1.3,0.3-1.9,0.4c-1.2,0.3-2.4,0.6-3.5,0.9c-1.1,0.3-2.1,0.5-3,0.8c-0.9,0.2-1.7,0.4-2.3,0.6
		c-1.3,0.3-2,0.5-2,0.5L650.1,437.3z"/>
	<path class="st36" d="M662.3,467.6c0,0,0.9-0.5,2.4-1.4c0.7-0.4,1.7-0.9,2.8-1.5c0.5-0.3,1.1-0.6,1.7-0.9c0.6-0.3,1.3-0.6,2-0.9
		c0.7-0.3,1.4-0.6,2.1-0.9c0.8-0.3,1.5-0.6,2.3-0.9c1.6-0.7,3.3-1.2,5.1-1.8c1.8-0.5,3.7-1.1,5.6-1.5c1.9-0.5,3.9-0.8,5.9-1.2
		c2-0.3,4-0.6,6-0.7c2-0.2,3.9-0.2,5.8-0.2c0.9,0,1.9,0.1,2.8,0.1c0.9,0.1,1.8,0.1,2.7,0.2c0.9,0.1,1.7,0.2,2.5,0.3
		c0.8,0.1,1.6,0.3,2.3,0.5c0.7,0.2,1.4,0.3,2.1,0.5c0.7,0.2,1.3,0.4,1.9,0.6c0.6,0.2,1.1,0.4,1.6,0.5c0.5,0.2,0.9,0.4,1.4,0.6
		c1.6,0.7,2.5,1.2,2.5,1.2l-0.2,0.6c0,0-1-0.1-2.7-0.5c-0.8-0.2-1.9-0.3-3-0.5c-0.6-0.1-1.2-0.2-1.9-0.3c-0.7-0.1-1.4-0.2-2.1-0.3
		c-1.4-0.2-3-0.3-4.7-0.4c-1.7-0.1-3.4-0.2-5.2-0.2c-0.9,0-1.8,0-2.8,0c-0.9,0-1.9,0.1-2.8,0.1c-1.9,0-3.9,0.3-5.8,0.5
		c-1.9,0.3-3.9,0.5-5.7,1c-1.9,0.3-3.7,0.9-5.5,1.3c-1.8,0.5-3.5,0.9-5.1,1.5c-0.8,0.3-1.6,0.5-2.3,0.8c-0.8,0.3-1.5,0.6-2.2,0.8
		c-0.7,0.3-1.4,0.5-2,0.7c-0.6,0.3-1.2,0.5-1.8,0.7c-1.1,0.5-2.1,0.9-2.8,1.3c-1.6,0.7-2.5,1.2-2.5,1.2L662.3,467.6z"/>
	<path class="st37" d="M707.1,389.4c-17,5.2-5.7,3.2-13.8-13.5c-0.2-0.3-0.1-0.8,0.3-1c7.5-5,7.3-4.2,6.6-5.9
		c-18.3,5.3-28.7,18.7-43.1,20.5c-0.6,0.1-1-0.5-0.8-1c0.9-2.3,2.2-5.7,3.5-7.4l-1-0.6c-0.8,1.6-3.9,5.4-5,7.9
		c-1.2,2.6-3.3-4.2-3.4-6.9l-1,0.2c0.2,0.6,0.9,5.5,1.2,7.4c0.1,0.4-0.2,0.8-0.7,0.9c-23,3.2-46.3-24.7-58.5-29.1
		c-2.8-1-10.7,6.3-12.9,14.2l0.5,0.2c2.2-3.3,7.9-12.1,11.8-12.3l-0.2-0.1l0.3,0.1l-0.2,0c2.1,0.8,4.5,2.5,7.4,4.7
		c0.3,0.3,0.4,0.7,0.2,1.1c-3.4,4.7-5,19.4-3.9,33.9c0.8,3.3-12.8-7.8-16.6-5.8l0.1,0.4c8.3-1.8,18.9,27.4,70.8-3
		c1.2-0.1,2.3-0.2,3.5-0.4c-0.1,0-0.2,0-0.3,0l0.7,0c-0.1,0-0.2,0-0.3,0.1c4.1,0.3,7.9-0.2,11.8-1.5c0.2-0.1,0.5,0,0.7,0.1
		c12.4,8.5,35,4.7,42.8-2.5L707.1,389.4z M597.5,404.7c-0.6-1-3.5-17.3,3.4-33.4c0.2-0.5,0.8-0.6,1.2-0.3c9.7,7.9,22.6,19,36.4,22.4
		c0.7,0.2,0.8,1.1,0.2,1.4C625.9,401.5,611.1,407.6,597.5,404.7z M692.9,393.1c-17.8,3.5-28-1-25.1-2.3c6.3-2.8,13.1-7.4,22.1-13.4
		C692.5,375.6,694.5,392.8,692.9,393.1z"/>
	<path class="st38" d="M601.4,370.3c10.3,8.3,24.2,20.7,39.3,23.5c-13.3,7.2-28.9,14-43.1,10.9l0-0.1
		C593,384.8,599.8,373.9,601.4,370.3z"/>
	<path class="st38" d="M693.5,393c-9.5,1.9-19.3,2.4-27.3-1.5c6.9-2.8,14.3-7.9,24.5-14.6C693.6,383.4,693.6,389.2,693.5,393z"/>
	<path class="st39" d="M621.8,385.8c-0.6,9.5-14.3,9-14.3-0.5c0-3,1.7-5.5,4.1-6.7C614.9,381.1,618.3,383.6,621.8,385.8z"/>
	<path class="st39" d="M678.3,391.3c-2.2,0-4.2-1.5-4.8-3.5c2.6-1.5,5.3-3.1,8.2-5.1C685,385.8,682.8,391.3,678.3,391.3z"/>
	<path class="st40" d="M564.8,464.4c-4.6,2.1-10.5,5-10.9,5c-2.1,0-1.3-12.3,2.6-19.7c0.2,0.5,0.4,1,0.6,1.5
		c1.5,3.6,3.6,7.3,6.2,11.1C563.8,463,564.3,463.7,564.8,464.4z"/>
	<path class="st41" d="M564.8,464.4c-0.5-0.7-1-1.4-1.5-2.1c-4,2-6.7,3.6-8.9,4.8c-0.1-0.4-0.1-1.1-0.2-2c-0.1-3.7,0.8-9.3,2.8-14
		c-0.2-0.5-0.4-1-0.6-1.5c-0.2-0.4-0.4-0.9-0.5-1.3c-4.3,7.2-7.3,22.3-2.2,22.8l0,0l0.4,0c1.5-0.3,8.9-3.4,12.1-4.7
		C565.8,465.8,565.3,465.1,564.8,464.4z M554.6,467.8C554.8,468,554.7,468.1,554.6,467.8z"/>
	<path class="st40" d="M581.2,482.6c-2.7,2.1-5,4.2-7,4.2c-4.6,0-5.2-7.6-3.5-14.8c0.4,0.5,0.8,0.9,1.2,1.3c2.6,2.9,5.2,5.6,7.9,8
		C580.3,481.8,580.8,482.2,581.2,482.6z"/>
	<path class="st41" d="M581.2,482.6c0.5,0.4,0.9,0.8,1.4,1.2c-2.7,2.3-5.8,5.2-8.5,4.9c-7.2-0.7-6.5-10.7-4.4-18
		c0.3,0.4,0.7,0.8,1,1.2c0.4,0.5,0.8,0.9,1.2,1.3c-2.2,12.1,2.6,11.4,2.6,11.4s0.6,0,3.3-2c0.4-0.3,1.2-0.9,1.9-1.4
		C580.3,481.8,580.8,482.2,581.2,482.6z"/>
	<path class="st40" d="M607.1,501.5c-10.8,7.5-17.9,20.9-17.9-7.2c0-1.7,0.2-3.3,0.8-4.7c0.3,0.2,0.6,0.5,1,0.7
		c4.9,3.6,9.8,6.8,14.6,10.1C606,500.8,606.6,501.2,607.1,501.5z"/>
	<path class="st41" d="M608.8,502.7c-9.7,6.2-19.3,19.8-20.6-0.9c-0.4-7.4-0.1-10.3,0.9-12.8c0.3,0.2,0.6,0.5,0.9,0.7
		c0.3,0.2,0.6,0.5,1,0.7c-0.9,3.1-0.6,7-0.3,11.2c1.4,14.8,4.5,6.8,14.9-1.2c0.5,0.4,1.1,0.7,1.6,1.1
		C607.7,501.9,608.2,502.3,608.8,502.7z"/>
	<path class="st40" d="M630.4,522.1c-3.5,3.1-6.6,6.9-10,10.3c-2.2,2.2-9-14.7-5.8-25.6c0.4,0.3,0.8,0.6,1.1,0.9
		c4.8,3.7,9.3,7.9,13.5,12.9C629.6,521.1,630,521.6,630.4,522.1z"/>
	<path class="st41" d="M631.6,523.6c-9.3,8.3-9.8,11.8-12.7,10.5c-4.2-2.2-8.8-18.3-5.4-28.1c0.3,0.3,0.7,0.5,1,0.8
		c0.4,0.3,0.8,0.6,1.1,0.9c-2.4,11.1,2.7,20.3,4.2,22.7c1.8-2,6.3-6.9,9.3-9.7c0.4,0.5,0.8,1,1.2,1.5
		C630.8,522.6,631.2,523.1,631.6,523.6z"/>
	<path class="st40" d="M681.9,564.8c-9.5,9.2-23.6,13.4-15.8-4.8c0.3,0.1,0.6,0.3,0.9,0.4c3.8,1.7,8.2,3,12.8,4
		C680.5,564.5,681.2,564.7,681.9,564.8z"/>
	<path class="st41" d="M681.9,564.8c0.7,0.1,1.4,0.3,2.1,0.4c-11.7,12-27.5,13.2-18.7-5.6c0.3,0.1,0.5,0.3,0.8,0.4
		c0.3,0.1,0.6,0.3,0.9,0.4c-5.9,17.2,5.6,10.6,12.8,4C680.5,564.5,681.2,564.7,681.9,564.8z"/>
	<path class="st40" d="M734.6,563.5c-5.8,8.7-14.6,13.4-12.5,2.2c0.4,0,0.8-0.1,1.3-0.2c3.1-0.4,6-0.9,8.7-1.5
		C732.9,563.9,733.7,563.7,734.6,563.5z"/>
	<path class="st41" d="M737,562.9c-7.6,12.3-18.3,15.2-16.1,3c0.4,0,0.8-0.1,1.2-0.1c0.4,0,0.8-0.1,1.3-0.2
		c-1.4,9.1,4.4,4.5,8.7-1.5c0.9-0.2,1.7-0.4,2.5-0.6C735.4,563.3,736.2,563.1,737,562.9z"/>
	<path class="st33" d="M510.2,692c-6,7-12,10.3-0.9,10.3c3.5,0,6.8-1.3,9.9-3.3"/>
	<path class="st42" d="M511,692.7c-1.1,1-7.9,7.4-7.1,8.1c0.2,1,8.8,1.8,14.5-3.1l1.8,2.8c-8.2,3.9-21.4,4.2-16.6-2.1
		c1.5-1.8,4.4-4.8,5.9-7L511,692.7z"/>
	<path class="st33" d="M539.6,693.9c-9.7,17.8,5.5,10.8,11.1,0.5"/>
	<path class="st42" d="M540.7,694.5c-1.4,1.9-5.3,9.1-3.1,9.3c-1,0.1,7.2,0.9,11.8-10l2.3,1.2c-7.2,10.7-16.4,13-16.3,7.4
		c0.1-2.5,2-6.9,2.9-9.2L540.7,694.5z"/>
	<path class="st33" d="M564,690.9c-0.5,3.7-0.7,7.6-2.1,11.2c7.1,0.5,11.4-5.6,13.1-12.5L564,690.9"/>
	<path class="st42" d="M565.2,691c-0.9,3.4-1.1,7.2-2.7,11.3l-0.6-1c7.6,0.2,8.9-6.1,11.4-12.2l3.4,0.8c-1.1,6.9-6.4,13.2-15.8,12.8
		c1-2.5,2-4.8,1.9-12L565.2,691"/>
	<path class="st28" d="M554.3,630c13.4-7.9,28.1,22.3,28.1,40.9c0,24.5-18,21.7-23.5,17.8L554.3,630"/>
	<path class="st43" d="M553.2,628.2c3.2-4.7,15.6-6.4,24.9,16.1c18.2,43.6-6.8,56.6-21,47l3.6-5c14.6,13.2,28.4-13.9,10.7-46.6
		c-4.7-10.2-8.7-10.9-16.1-7.8L553.2,628.2"/>
	<path class="st28" d="M527.7,627c18.1-14.4,38.3,11.7,38.1,41.7c0.1,21.4-16.6,31.4-28.4,24.1L527.7,627"/>
	<path class="st43" d="M526,624.8c1.3-1.9,8.3-5.8,14.7-4.3l-0.4-0.1c30.4,4.8,39.6,80.6,2.6,76.9c-2.4-0.2-5.7-1.2-8-2.5l3.9-4.6
		c2.2,1.6,4.9,2.2,7.7,2.3c19.8,0.4,22.9-32.5,11.5-53.4c-12.7-24-28.2-12.6-28.7-10.1L526,624.8"/>
	<path class="st28" d="M542.9,677.7c0,8.6-10.2,22.3-20,22.3c-24.9,0-11.7-25.3-11.7-35.2c0.1-3.3-0.8-6.5-3.1-9.5
		c-2.6-0.6-11-0.4-20.3-0.2c-4.7,0.1-9.7,0.2-14.2,0.2c0.6-1.6,1.2-3,1.9-4.3l-1.9,0.2c8.9-15.1,22.1-28.7,37.7-28.7
		C537.4,622.5,542.9,648.7,542.9,677.7"/>
	<path class="st43" d="M542.4,655.5c-7.1-38.8-35.6-51.5-70-5.6c-1.5,2.2-2.1,3.5-2.8,5.3c13.5,0.1,18.9,0.2,34.8-0.2
		c4.5,7.2,3.2,6.2,4.3,8.6l0.2,0.7c2.8,9.7-7.1,20.4-0.8,30.5c9.9,16,36.3,0.9,36.1-17.5C544.2,669.1,543.6,661.8,542.4,655.5
		 M541.7,677.6c-0.8,10.2-11,20.8-18.6,20.8h0c-22.9-0.9-10.1-23.6-9.8-27.3c0.2-1.1-2.4-19.9-11.2-24.2l-1.2,1.1
		c0.5,1.5,1.7,3.6,2.9,5.5c-11.2,0.2-23.7,0.6-29.9,0.9c8.6-14.1,19.1-29.6,37.7-30.6c-1,0,23.2-4,28.7,31.6
		C541.4,663.1,541.6,670.9,541.7,677.6L541.7,677.6"/>
	<path class="st44" d="M527.8,674.4c0,0,0.2,0.1,0.4,0.2c0.3,0.1,0.7,0.3,1.1,0.4c1,0.3,2.3,0.4,3.6,0.3c1.3-0.1,2.7-0.4,3.7-0.6
		c1-0.2,1.7-0.3,1.7-0.3l0.1,0.7c0,0-0.7,0.1-1.7,0.3c-1,0.2-2.4,0.4-3.7,0.4c-1.4,0.1-2.8-0.1-3.8-0.4c-0.5-0.1-0.9-0.3-1.2-0.4
		c-0.3-0.1-0.4-0.2-0.4-0.2L527.8,674.4z"/>
	<path class="st44" d="M529,669.7c0,0,0.2,0.1,0.5,0.3c0.3,0.2,0.8,0.4,1.3,0.5c1.1,0.4,2.7,0.5,4.3,0.3c1.6-0.2,3.1-0.6,4.3-0.9
		c1.2-0.3,1.9-0.5,1.9-0.5l0.1,0.6c0,0-0.8,0.2-2,0.4c-1.2,0.3-2.8,0.6-4.4,0.8c-1.6,0.2-3.3,0-4.4-0.4c-0.6-0.2-1-0.4-1.4-0.6
		c-0.3-0.2-0.5-0.3-0.5-0.3L529,669.7z"/>
	<path class="st44" d="M528.8,662.3c0,0,0.2,0.1,0.5,0.2c0.3,0.1,0.8,0.2,1.4,0.3c1.2,0.2,2.8,0.1,4.3-0.3c1.6-0.3,3.1-0.8,4.3-1.2
		c1.2-0.3,2-0.5,2-0.5l0.2,0.9c0,0-0.8,0.2-1.9,0.5c-1.2,0.3-2.7,0.7-4.3,1c-1.6,0.3-3.3,0.4-4.5,0.2c-0.6-0.1-1.1-0.3-1.5-0.4
		c-0.3-0.1-0.5-0.2-0.5-0.2L528.8,662.3z"/>
	<path class="st44" d="M553.4,675.2c0,0,0.5,0.1,1.4,0.1c0.2,0,0.4,0,0.7-0.1c0.2,0,0.5-0.1,0.7-0.1c0.5-0.1,1-0.3,1.5-0.5
		c1-0.4,2-0.9,2.8-1.3c0.8-0.4,1.3-0.6,1.3-0.6l0.5,1.3c0,0-0.5,0.2-1.3,0.5c-0.8,0.3-1.9,0.7-3,1c-0.6,0.2-1.1,0.3-1.7,0.3
		c-0.3,0-0.5,0.1-0.8,0.1c-0.3,0-0.5,0-0.7,0c-0.9-0.1-1.4-0.3-1.4-0.3L553.4,675.2z"/>
	<path class="st44" d="M554.3,669c0,0,0.5,0.3,1.4,0.4c0.2,0,0.4,0,0.7,0c0.2,0,0.5,0,0.8-0.1c0.5-0.1,1.1-0.3,1.6-0.5
		c1-0.5,2-1.1,2.6-1.7c0.7-0.5,1.1-0.9,1.1-0.9l0.8,1c0,0-0.5,0.3-1.3,0.8c-0.8,0.5-1.8,1.1-3,1.4c-0.6,0.2-1.2,0.3-1.8,0.3
		c-0.3,0-0.5,0-0.8,0c-0.3,0-0.5-0.1-0.7-0.1c-0.4-0.1-0.8-0.3-1-0.4c-0.2-0.1-0.4-0.2-0.4-0.2L554.3,669z"/>
	<path class="st44" d="M554.2,663.4c0,0,0.4,0.2,1.2,0.3c0.2,0,0.4,0,0.6,0c0.2,0,0.4,0,0.6-0.1c0.4-0.1,0.9-0.2,1.4-0.4
		c0.9-0.3,1.8-0.8,2.5-1.1c0.7-0.3,1.2-0.5,1.2-0.5l0.4,1.1c0,0-0.5,0.1-1.2,0.4c-0.7,0.2-1.7,0.6-2.7,0.9c-0.5,0.1-1,0.2-1.5,0.2
		c-0.3,0-0.5,0-0.7,0c-0.2,0-0.4,0-0.6-0.1c-0.4-0.1-0.7-0.2-0.9-0.3c-0.2-0.1-0.3-0.2-0.3-0.2L554.2,663.4z"/>
	<path class="st44" d="M572.2,677.2c0,0,0.2,0,0.5,0c0.3,0,0.7,0,1.2,0c1-0.1,2.3-0.5,3.5-1.1c1.2-0.6,2.3-1.4,3.2-2
		c0.9-0.6,1.5-1,1.5-1l1.1,2.1c0,0-0.6,0.3-1.6,0.7c-1,0.4-2.3,1-3.7,1.4c-1.4,0.4-2.9,0.6-4,0.5c-0.5,0-1-0.1-1.3-0.2
		c-0.3-0.1-0.5-0.1-0.5-0.1L572.2,677.2z"/>
	<path class="st44" d="M573,670.5c0,0,0.2,0,0.5,0c0.3,0,0.7-0.1,1.3-0.2c1-0.2,2.4-0.8,3.6-1.5c1.2-0.7,2.4-1.6,3.3-2.2
		c0.9-0.6,1.5-1.1,1.5-1.1l0.9,1.5c0,0-0.6,0.4-1.6,0.9c-1,0.5-2.3,1.3-3.7,1.9c-1.4,0.6-2.9,1.1-4,1.2c-0.6,0.1-1.1,0.1-1.4,0.1
		c-0.3,0-0.5,0-0.5,0L573,670.5z"/>
	<path class="st44" d="M572.9,665.7c0,0,0.1,0,0.4-0.1c0.2-0.1,0.5-0.2,0.9-0.4c0.7-0.4,1.7-1,2.5-1.7c0.9-0.7,1.7-1.5,2.4-2.1
		c0.7-0.6,1.2-0.9,1.2-0.9l0.8,1.2c0,0-0.5,0.3-1.2,0.7c-0.7,0.5-1.6,1.1-2.6,1.8c-1,0.6-2,1.2-2.8,1.5c-0.4,0.2-0.8,0.3-1,0.3
		c-0.2,0-0.4,0.1-0.4,0.1L572.9,665.7z"/>
	<path class="st33" d="M663.8,702.3c-2.1,5.1-10,9.7-14.7,5.9c5.2-7.7,5.1-9.7,6.4-12.2C657.2,699.9,660,702.2,663.8,702.3z"/>
	<path class="st33" d="M692.5,693.9c0.5,7.5-5.9,15.1-11.8,15c0.6-3.3,1.3-11.6,0.6-16.1C685.2,694.3,689.4,694.6,692.5,693.9z"/>
	<path class="st33" d="M710.5,695.9c-1.3-1.7-1.9-8.5-5.1-12.4c2.8-0.8,7.7-1.9,10.1-2.9C719,687.3,713.6,697.1,710.5,695.9z"/>
	<path class="st28" d="M664,700.3c-0.1,0-2.2-0.2-2.9-0.5c-12.5-3.1-0.4-27.9-8.1-40.2c-3.5-4.4-8.2-6.7-10.8-18.1l-1,0.1
		c-0.1,3.1-0.1,5.9,1.9,10.1c-15.4,0.9-27.3,1.2-33.9,1.3c2.3-10.2,31.4-40.4,48.3-31.9c13.5,5.9,27.1,29.4,27,40.6
		C684.8,675.8,679.2,701.3,664,700.3z"/>
	<path class="st28" d="M689.9,693.4c-5.6,1.8-8.3-1.3-9.7-2.6c17.8-37.8-8.6-66.7-21.3-72c13.5-4.4,31.4,6.5,37.2,19.6
		C706.3,659,705.8,690,689.9,693.4z"/>
	<path class="st28" d="M715.7,678.7c-4.9,4.4-9.6,5.1-13.1,3.3c3.5-22.2,0.9-55.7-25.6-64.5C703,613.1,729,666.9,715.7,678.7z"/>
	<path class="st42" d="M656.4,693.8c-0.4,1-6.4,15.4-7.4,14.4l0.2,0.1c3.5,1.6,10.6,0.6,15.8-8l2.6,1.4c-7.8,14.6-24.1,9.5-20.1,5.3
		c1.7-1.8,5-8,6.4-15.3L656.4,693.8z"/>
	<path class="st42" d="M681,691.8c0.6,0.2,0.7,0.9,1,1.5c0.2,9.8-1.4,16.4-1.3,15.4c0.1,1.3,11.4-3.6,11.4-14.2c0-0.4,0-0.8,0.2-1.2
		l1.6-0.1c1.2,2.4-0.9,12.8-10.1,16.7c-10,3.6-1.5-6.3-3.9-16.2l0,0.1c-0.2-0.5-0.1-1.4,0.5-2L681,691.8z"/>
	<path class="st42" d="M704.2,682.7c0,0,0.3-0.2,0.5,0c5.2,2.5,5.1,11.1,6.1,12.5c0,0,0.1,0.1,0,0l0,0c0,0-0.5,0.1,0.2,0l0.1-0.1
		c1.9-0.4,8.3-8.7,3.9-14.8l1.7-1.3c6.9,8.7-4.6,23.1-8,17.5c-1.4-2.6-0.4-8.7-4.6-12.9c-0.2-0.2-0.1-0.5-0.1-0.5L704.2,682.7z"/>
	<path class="st43" d="M683.1,647.3c-23.7-56.4-68.7-16.9-75.1,3c-0.4,1.2-0.8,2.5-0.8,4l0,1.1v0.2l1.3-0.1l3.8-0.2
		c14.8-0.7,26.9-0.9,33-1c0.2,0.3,0.4,0.6,0.5,0.9h0c6.5,9.7,11.1,9.4,9.2,18.8c-7.8,34.8,16.3,34,25.4,17
		C684.5,683.5,690.3,664.5,683.1,647.3z M682.2,676.4c-2.1,10.9-6.6,22.5-17.6,23.2c0,0-1.1-0.1-1.2-0.1c-14.8-1.1-1.3-28.1-9.9-40
		c-4.6-6.4-7.9-7-10.8-18.1l-1,0.1c0,1.7-0.4,5.3,1.9,10.1c-11.1,0.7-22.8,1-33.9,1.3c1.6-6.3,44.6-64.1,70.2-4.4
		C683.9,657.4,684.7,663.3,682.2,676.4z"/>
	<path class="st43" d="M679.9,690c31.2,17.8,29.9-60.4-7.8-70.7l0.6,0.1c-1,0-8.8-3-16.6,1.8l-2.2-3.9c6.1-3.2,12.1-4.2,19.4-2.2
		l-0.6-0.1c0.1,0,0.2,0,0.3,0c44.7,12.5,40.8,100.6,5.9,76.8L679.9,690z"/>
	<path class="st43" d="M701.8,681.3c4.9,2.2,15.4,1.5,15.8-10.9c0,0.3,0,0.1,0,0.1c-0.9-14.1-16.8-61.5-44.9-51.1l-0.4,0v-4.3h0
		l-0.7,0.1c30.6-11,50.4,38.4,48.8,57.5l0,0.1c-2.2,11.5-13.5,12.8-19.3,10L701.8,681.3z"/>
	<path class="st28" d="M673.4,678.1c2.7-0.3,3.4,0.7,9.3-1.8"/>
	<path class="st45" d="M673.4,678c0,0,0.6-0.2,1.5-0.2c0.4,0,1-0.1,1.5-0.1c0.5,0,1.1-0.1,1.7-0.3c0.6-0.1,1.1-0.3,1.6-0.5
		c0.5-0.2,1-0.3,1.4-0.5c0.8-0.3,1.4-0.5,1.4-0.5l0.3,0.7c0,0-0.5,0.3-1.4,0.6c-0.8,0.3-2,0.7-3.2,1c-0.6,0.1-1.2,0.2-1.8,0.1
		c-0.6,0-1.1-0.1-1.5-0.1c-0.4,0-0.8-0.1-1.1-0.1c-0.3,0-0.4,0-0.4,0L673.4,678z"/>
	<path class="st28" d="M673.9,673.9c2.6,0,7.5-0.9,10.1-1.5"/>
	<path class="st45" d="M673.9,673.8c0,0,0.6-0.1,1.6-0.3c0.9-0.2,2.2-0.5,3.4-0.7c2.5-0.5,4.9-1,4.9-1l0.4,1.4c0,0-0.6,0.2-1.6,0.4
		c-1,0.2-2.2,0.4-3.5,0.6c-1.3,0.2-2.6,0.2-3.6,0.2c-1,0-1.6-0.2-1.6-0.2L673.9,673.8z"/>
	<polyline class="st28" points="675.1,668.5 676.1,668.5 683.8,666.4 	"/>
	<path class="st45" d="M675.1,668.3c0.4,0,0.7-0.1,1.1-0.1l-0.1,0c1.2-0.5,2.5-1,3.7-1.4c0.6-0.2,1.3-0.4,1.9-0.6
		c0.6-0.2,1.3-0.3,1.9-0.4l0.3,1.1c-0.6,0.3-1.2,0.5-1.9,0.7c-0.6,0.2-1.3,0.3-1.9,0.5c-1.3,0.3-2.6,0.6-3.9,0.8l-0.1,0l0,0
		c-0.4-0.1-0.7-0.1-1.1-0.2L675.1,668.3z"/>
	<path class="st28" d="M693.3,674.9c2.2,0.8,7.8-2.3,8.9-2.8"/>
	<path class="st45" d="M693.3,674.8c0,0,0.1,0,0.4,0.1c0.1,0,0.3,0,0.4,0c0.2,0,0.4-0.1,0.6-0.1c0.8-0.2,1.9-0.6,3-1.1
		c1.1-0.5,2.1-1.1,2.8-1.5c0.4-0.2,0.7-0.4,0.9-0.5c0.3-0.1,0.4-0.2,0.4-0.2l0.7,1.7c0,0-0.1,0-0.3,0.1c-0.2,0.1-0.6,0.2-1,0.4
		c-0.8,0.3-2,0.7-3.1,1.1c-1.2,0.3-2.4,0.6-3.3,0.7c-0.2,0-0.4,0-0.6,0c-0.2,0-0.4,0-0.5-0.1c-0.2-0.1-0.4-0.1-0.4-0.1L693.3,674.8z
		"/>
	<path class="st28" d="M694.1,668.8c3.2-0.4,6.3-2.3,8.7-4.4"/>
	<path class="st45" d="M694,668.6c0,0,0.6-0.1,1.5-0.4c0.9-0.3,2-0.8,3-1.4c1-0.6,2-1.4,2.7-1.9c0.7-0.6,1.2-0.9,1.2-0.9l0.7,0.8
		c0,0-0.4,0.5-1.2,1c-0.8,0.6-1.9,1.2-3,1.8c-1.1,0.5-2.4,0.9-3.3,1.1c-0.9,0.2-1.6,0.2-1.6,0.2L694,668.6z"/>
	<path class="st28" d="M693.5,664c3.6-1.5,6.1-4.7,9.5-6.6"/>
	<path class="st45" d="M693.4,663.9c0,0,0.2-0.1,0.4-0.2c0.3-0.1,0.7-0.4,1.1-0.7c0.5-0.3,0.9-0.7,1.4-1.2c0.5-0.5,1.1-0.9,1.6-1.4
		c1.1-0.9,2.3-1.9,3.2-2.5c0.9-0.6,1.6-0.9,1.6-0.9l0.3,0.5c0,0-0.1,0.1-0.4,0.3c-0.3,0.2-0.6,0.4-1.1,0.7c-0.9,0.6-2,1.6-3.1,2.5
		c-0.6,0.5-1.1,0.9-1.7,1.3c-0.6,0.3-1.2,0.7-1.7,0.9c-0.5,0.3-0.9,0.4-1.2,0.6c-0.3,0.1-0.5,0.2-0.5,0.2L693.4,663.9z"/>
	<path class="st28" d="M711.1,669.1c2.7-1.1,4.4-3.6,6.6-5.3"/>
	<path class="st45" d="M711.1,669c0,0,0.1-0.1,0.3-0.2c0.2-0.1,0.5-0.3,0.8-0.6c0.6-0.5,1.3-1.2,2.1-2c0.7-0.8,1.4-1.6,2-2.2
		c0.6-0.6,1.2-0.8,1.2-0.8l0.8,1.1c0,0-0.3,0.4-0.9,0.9c-0.6,0.5-1.4,1.2-2.3,1.8c-0.9,0.7-1.8,1.3-2.5,1.7
		c-0.8,0.4-1.3,0.5-1.3,0.5L711.1,669z"/>
	<path class="st28" d="M710,663.2c2.8-1.3,5.1-3.6,7.2-5.9"/>
	<path class="st45" d="M710,663.2c0,0,0.5-0.3,1.2-0.8c0.7-0.5,1.6-1.2,2.4-2.1c0.4-0.4,0.8-0.8,1.2-1.2c0.4-0.4,0.8-0.7,1.1-1
		c0.7-0.6,1.1-0.9,1.1-0.9l0.4,0.3c0,0-0.3,0.5-0.9,1.2c-0.6,0.7-1.3,1.6-2.4,2.3c-1,0.7-2,1.3-2.8,1.7c-0.8,0.4-1.4,0.6-1.4,0.6
		L710,663.2z"/>
	<path class="st28" d="M709.3,657.2c1.5-0.8,4-3.1,5.1-4.1"/>
	<path class="st45" d="M709.2,657.1c0,0,0.4-0.2,0.8-0.6c0.5-0.4,1.1-0.9,1.7-1.4c0.6-0.5,1.2-1.1,1.6-1.5c0.4-0.4,0.7-0.7,0.7-0.7
		l0.4,0.4c0,0-0.3,0.3-0.8,0.6c-0.5,0.4-1.1,0.9-1.7,1.4c-0.6,0.5-1.3,1-1.8,1.3c-0.5,0.3-0.9,0.5-0.9,0.5L709.2,657.1z"/>
	<path class="st28" d="M681.4,351.9c-0.6,0-1.1,0-1.7,0c0,0-9.6,0.9-14.3,1.2c0,0,0,0,0,0c1.2,2.7,2.3,5.4,3.1,8.3
		c6.8-4.5,17.8-5,25.8-7.2C691.1,352.7,686.9,351.9,681.4,351.9"/>
	<path class="st29" d="M697,353.3L697,353.3L697,353.3c0.2,0.3,0.2,0.5,0.2,0.7l0-0.1C697.3,353.7,697.2,353.5,697,353.3
		 M661.8,344.7c1.1,2.8,2.4,5.6,3.6,8.4c4.7-0.2,14.3-1.1,14.3-1.2c0.6,0,1.2,0,1.7,0c5.5,0,9.6,0.8,12.9,2.2c0,0,0,0,0,0
		c1-0.3,1.9-0.5,2.7-0.9l0,0c1.3-0.5,2.5-1.1,3.5-1.7c-6.4-4.8-15.4-6.5-30.5-6.5c-0.9,0-1.8,0-2.7,0c-0.1,0-0.3,0-0.4,0
		C665.2,345,663.5,344.9,661.8,344.7"/>
	<path class="st46" d="M753.3,501.2c-1.2,0-2.9,2-2.9,4.8c0,4.3,3.7,8.8,8.1,8.8c0.9,0,1.5,0,1.7,0c1.3,0-6.2-0.7-5.3-9.6
		c-0.6-0.6-0.6-1.5-0.6-2.3C754.4,501.7,753.9,501.2,753.3,501.2"/>
	<path class="st46" d="M569.5,505.6c0.1,0.3,0.2,0.5,0.4,0.8l0.1-0.1C569.8,506.1,569.6,505.8,569.5,505.6"/>
	<path class="st47" d="M569.9,506.3L569.9,506.3c0.2,0.6,0.5,1,0.9,1.4C570.5,507.2,570.2,506.8,569.9,506.3"/>
	<path class="st48" d="M586.4,524.8c-0.8,0.3-2.2,0.6-3.9,0.8c0,0,0,0,0,0C584,525.5,585.3,525.2,586.4,524.8
		C586.4,524.8,586.4,524.8,586.4,524.8"/>
	<path class="st46" d="M604.3,537.9c3.2,2,6.3,3.9,8.9,5.3c0,0,0,0,0,0c0.3,0.1,0.8,0.4,1.3,0.7c0,0,0.1,0,0.1,0
		C611.2,542.1,607.7,540.1,604.3,537.9 M586.4,524.8C586.4,524.8,586.4,524.8,586.4,524.8C586.4,524.8,586.4,524.8,586.4,524.8
		C586.4,524.8,586.4,524.8,586.4,524.8 M572.3,510.2c2.4,3.9,4.9,7.9,7.6,11.8c1.1-0.1,2.1-0.3,3-0.5
		C579.4,518.1,576.3,514.5,572.3,510.2"/>
	<path class="st47" d="M570.8,507.7c0.5,0.8,1,1.7,1.6,2.5c3.9,4.3,7,7.8,10.6,11.3l0,0c-0.9,0.2-1.9,0.4-3,0.5
		c0.8,1.2,1.7,2.4,2.6,3.6c1.7-0.2,3.1-0.6,3.9-0.8c0,0,0,0,0,0c0,0,0,0,0,0c4.6,4.1,11.5,9,17.9,13.1c3.4,2.2,6.9,4.2,10.3,5.9
		c1.7-0.6,3.2-1.8,3.2-3.5c0-6.5-13.4-5.7-38.9-26.1c-1.6-1.6-3.6-2.8-5.5-4C572.5,509.4,571.6,508.6,570.8,507.7"/>
	<path class="st49" d="M586.4,524.8C586.4,524.8,586.4,524.8,586.4,524.8C586.4,524.8,586.4,524.8,586.4,524.8
		c-1.1,0.4-2.4,0.7-3.9,0.9c7.6,10.1,16.7,18.5,29,18.8c0.5,0,1.2-0.1,1.8-0.2c0-0.3,0-0.7,0-1c-2.6-1.4-5.7-3.2-8.9-5.3
		C597.9,533.9,591.1,528.9,586.4,524.8"/>
	<path class="st50" d="M613.2,543.2C613.2,543.2,613.2,543.2,613.2,543.2c0,0.4,0,0.7,0,1c0.4-0.1,0.8-0.2,1.3-0.3
		C614,543.6,613.5,543.4,613.2,543.2"/>
	<path class="st51" d="M539.6,690.8c-0.2,0.2-0.3,0.4-0.5,0.6c0.1,0.9,0.6,1.4,1.8,1.4c0.4,0,1.1-0.2,2-0.7
		C541.8,691.8,540.6,691.4,539.6,690.8 M534.7,623.2c-2.3,0-1.6,0.9-5.1,0.9c-1.2,0-1.9,0.6-2.3,1.3c1,0.8,1.9,1.6,2.8,2.6
		c1.2-1.3,3.7-2.9,6.9-3.4C536.1,623.6,535.3,623.2,534.7,623.2"/>
	<path class="st51" d="M527.3,625.3c-0.2,0.4-0.3,0.8-0.3,1.3c0,3.1,8,3.1,10.4,13.6c0.3,1,4.3,18,5.3,25.8
		c1.6,12.4-4,21.9-3.6,25.3c0.2-0.2,0.3-0.4,0.5-0.6c2.9-3.9,4.8-8.6,4.7-13.5c-0.1-8.2-0.7-15.5-1.9-21.8
		c-2.2-12-6.4-21.5-12.3-27.5C529.3,627,528.3,626.1,527.3,625.3"/>
	<path class="st51" d="M562.4,687.6c-0.5,0.8-0.9,1.5-1.5,2.2c1.1,1.2,3.1,2,3.8,2c0.6,0,1.8-0.9,2.9-2.2
		C566,689.5,564.2,688.9,562.4,687.6 M557.6,627.9c-1,0-2.7,1-1.6,2.1c-0.2,0.1-0.3,0.2-0.3,0.3c0.3,0.3,0.5,0.7,0.8,1
		c2-0.7,3.7-1.2,5.2-1.2c0,0,0,0,0,0C560.4,628.7,559.1,627.9,557.6,627.9"/>
	<path class="st51" d="M555.7,630.4c-0.1,0.1-0.1,0.3-0.1,0.4c0,0.3,9.9,21.6,9.9,36.2c0,11.7-5.4,21.1-5.4,21.1
		c0,0.6,0.3,1.2,0.8,1.7c0.5-0.7,1-1.4,1.5-2.2c8.4-14.4,5.1-41.1-6-56.2C556.2,631.1,555.9,630.7,555.7,630.4"/>
	<path class="st28" d="M547.2,416.1c2.2,1,4.6,1.6,7.1,1.8C551.8,417.6,549.4,416.9,547.2,416.1 M573.5,408.2
		c-5.4,2.2-10.9,2.9-16.5,2.9c-5.6,0-11.3-0.7-16.9-1.3c1.3,2.2,3,3.9,5.1,5.2l0.1-0.4c4.6,0.6,9.4,1.5,13.8,1.5
		c3.3,0,6.4-0.5,9.1-1.9c0.1-0.1,0.2-0.3,0.3-0.5C570.9,412.8,572.8,410.7,573.5,408.2"/>
	<path class="st29" d="M568.2,414.2c-2.7,1.4-5.9,1.9-9.1,1.9c-4.5,0-9.2-0.9-13.8-1.5l-0.1,0.4c0.6,0.4,1.3,0.8,2,1.1
		c2.2,0.8,4.6,1.4,7.1,1.8c0.6,0.1,1.3,0.1,1.9,0.1c3.3,0,6.7-0.7,9.5-2.2C566.6,415.3,567.5,415,568.2,414.2"/>
	<path class="st52" d="M606.7,580.4c-1,0-1.3,1.4-1.3,2.4c0,0.5,0.1,0.9,0.5,1.2c0.2,0.7,0.2,1.3,0.2,2c0,2.2-0.7,4.3-0.7,6.3
		c0,0.4,0.2,2.6,0.6,2.6c1.9,0,4.8-3.5,4.8-8.3C610.9,582.1,607.7,580.4,606.7,580.4"/>
	<path class="st52" d="M608.7,555.9c-1.3,0-2.7,0.8-2.7,2c0,0.2,0,0.4,0.1,0.7c-0.1,1.4-0.4,2.9-0.4,4.4c0,1.9,0.4,2.7,1,2.7
		c1.4,0,3.8-4.3,3.8-7.6C610.6,556.9,610.5,555.9,608.7,555.9"/>
	<path class="st52" d="M606.2,612.7c-2.2,0-2.4,2.2-2.4,4.3c-0.2,0.4-0.2,0.9-0.2,1.4c0,0.5,0.1,1,0.1,1.5c0,0.3,0,0.6-0.1,0.8
		c-3,7.5-2.2,10.7-0.3,10.7c2.1,0,5.6-4.3,5.6-11C608.8,618.2,608.4,612.7,606.2,612.7"/>
	<circle class="st3" cx="304.6" cy="440.8" r="1.8"/>
	<circle class="st3" cx="237.2" cy="435.5" r="1.8"/>
	<circle class="st3" cx="613.9" cy="384" r="1.5"/>
	<circle class="st3" cx="678.4" cy="385.8" r="1.5"/>
	<path class="st53" d="M540.1,75.3c-7.5,6.4-16.7,13.6-26.4,12.2l0.5-0.2c-2.4-3.6-14.4-29.8,22.1-47.3c2.4,4.1,9.3,13.1,3.6,35.3
		L540.1,75.3z"/>
	<path class="st10" d="M526.4,68.3c-0.7,4.7-5.3,7.9-9,7.3c-3.7-0.5-7.6-4.9-6.9-9.6c0.7-4.7,5.6-7.8,9.3-7.3
		C523.5,59.3,527,63.6,526.4,68.3z"/>
	<path class="st5" d="M513,87.8c-14.7-16.7,3.6-45.6,30.2-54.1l0.8,3.1c-12.6,4.1-23.2,13.4-28.3,22c-8.2,12.9-3,20.2-1.5,28.5
		L513,87.8z"/>
	<path class="st5" d="M538.9,36.7c7.1,12.2,7.9,25.6,6.8,39.3l-5.9-0.8c2.7-17.2,0.4-27-4.3-36.8L538.9,36.7z"/>
	<path class="st5" d="M500.6,83.4c27.2,13.3,34.4-9.3,50.6-15.2l1,1.8c-20,18.7-32.5,27.9-52.7,15.6L500.6,83.4z"/>
	<path class="st3" d="M518.2,66.4c-2.2-0.3-1.7-3.6,0.5-3.3C520.8,63.4,520.3,66.7,518.2,66.4z"/>
	<path class="st53" d="M585.9,49.9c-3.9,4.8-5.4,7-15.4,9.8l0-0.3l-0.2-0.1c-0.1-1.3-7.4-12.4-0.8-33.8
		C579.3,27,584.4,39.2,585.9,49.9z"/>
	<path class="st10" d="M575.6,45.7c0.5,7.9-10.6,8.1-11,0.7C564.1,39.1,575.1,37.9,575.6,45.7z"/>
	<path class="st5" d="M570.5,61.7l-0.1,0.1c0.1,0.1-0.6,0-0.8-0.1c-2.4-1-9.9-12.8-1.9-38.2l2.4,0.7c-2.9,10.8-4.7,28.3,0.5,35.1
		l0.2,0.1L570.5,61.7z"/>
	<path class="st5" d="M562.2,24.4c0,0-0.1-0.8,0.3-0.8c19.4-5.9,29.5,19.9,28.5,27.3l-4.4,0.2c-0.3-1.6-2.4-28.1-23.4-24.9
		c-0.4,0.2-0.7-1-0.6-0.6L562.2,24.4z"/>
	<path class="st5" d="M563.6,62.3c9.4-2.8,15-3.9,19-7.7c3-2.6,7.1-9.7,12.9-12.3l0.5,0.5c-0.9,2.4-8.6,14.9-15.9,17.9
		c-4,2-11.7,3-16.1,3.5L563.6,62.3z"/>
	<path class="st3" d="M569.9,45.4c-2,0.1-2.2-3-0.2-3.1C571.7,42.1,571.9,45.2,569.9,45.4z"/>
</g>
</svg>
