<?xml version="1.0" encoding="utf-8"?>
<!-- Generator: Adobe Illustrator 19.2.1, SVG Export Plug-In . SVG Version: 6.00 Build 0)  -->
<svg version="1.1" id="Layer_1" xmlns="http://www.w3.org/2000/svg" xmlns:xlink="http://www.w3.org/1999/xlink" x="0px" y="0px"
	 width="127.5px" height="170.5px" viewBox="0 0 127.5 170.5" style="enable-background:new 0 0 127.5 170.5;" xml:space="preserve"
	>
<style type="text/css">
	.st0{fill:#008C47;}
	.st1{fill:#00A651;}
	.st2{fill:#006838;}
</style>
<g id="legs_front_left">
	<g>
		<path class="st0" d="M54.2,0c-26.5,0-48,16.4-48,36.7s21.5,36.7,48,36.7s48-16.4,48-36.7S80.7,0,54.2,0"/>
	</g>
	<g>
		<path class="st1" d="M35.1,174.6C13.1,139.8,0.9,99,0.9,58c0-14.4-4.7-51,53.4-51c31.4,0,49.9,20,49.9,37c0,8.2-2.3,23.2-2.3,35.1
			c0,25.1,23.3,89,23.3,89c0,5-26.6,20.3-49.5,20.3c-11.1,0-35.4-6.4-46-20.6"/>
	</g>
	<g>
		<path class="st2" d="M1.1,36.9C1,79,14.4,134.8,37.6,171l-8.6,1.4C6.1,128.9-2,108.3,0.4,36.9H1.1z"/>
	</g>
	<g>
		<path class="st2" d="M105.1,61.1c-4.4,34.5,11.5,67.8,22.4,109.3h-8.1c-9.7-41.1-23.3-69.4-16.2-109.6L105.1,61.1z"/>
	</g>
	<g>
		<path class="st2" d="M17.5,113.3c1-5.9,1.6-10.4,6.4-13.1c8.3-4.4,17.7,5.9,18.4,8.5l-1,0.9c-2.5-0.9-9.2-11-17.5-4.4
			c-2.8,2.2-4.2,5.2-5.1,8.3L17.5,113.3z"/>
	</g>
	<g>
		<path class="st2" d="M24.4,121.6c1.1-4.1,8-5.5,10.6-3.4l-1.2,2.5c-1-0.1-6.3-1.7-7.8,1.5L24.4,121.6z"/>
	</g>
	<g>
		<path class="st2" d="M24.6,136.4c1.7,2.7,4,4,6.9,4.3c0.3,0,1.5,0.1,1.7-0.1c2.3-0.7,3.9-1.5,5.8-4.1c1.2-1.9,5.2-4.1,6.2-5.9
			l1.5,0.7c-0.5,1.2-0.6,14.9-15.6,11.3c-3.5-0.8-5.8-2.9-7.6-5.7L24.6,136.4z"/>
	</g>
</g>
</svg>
