<?xml version="1.0" encoding="utf-8"?>
<!-- Generator: Adobe Illustrator 19.2.1, SVG Export Plug-In . SVG Version: 6.00 Build 0)  -->
<svg version="1.1" id="plates" xmlns="http://www.w3.org/2000/svg" xmlns:xlink="http://www.w3.org/1999/xlink" x="0px" y="0px"
	 width="753.4px" height="536.3px" viewBox="0 0 753.4 536.3" style="enable-background:new 0 0 753.4 536.3;" xml:space="preserve"
	>
<style type="text/css">
	.st0{fill:#66A371;}
	.st1{fill:#345E2D;}
	.st2{fill:none;}
	.st3{fill:#7F56A3;}
	.st4{fill:#426F4A;}
	.st5{fill:none;stroke:#424743;stroke-width:5;stroke-miterlimit:10;}
	.st6{fill:none;stroke:#424743;stroke-width:4;stroke-miterlimit:10;}
	.st7{display:none;}
	.st8{display:inline;fill:#00A651;}
	.st9{fill:#00A651;}
	.st10{fill:#FFDCAE;stroke:#006838;stroke-miterlimit:10;}
	.st11{fill:#9474B4;}
	.st12{fill:#684685;}
	.st13{fill:#006838;}
	.st14{fill:#F79A70;}
	.st15{opacity:0.36;fill:#426F4A;}
	.st16{fill:#437F61;}
	.st17{fill:#F9ED32;}
	.st18{fill:#414042;}
</style>
<g>
	<path class="st0" d="M350.7,166.8c-15.6-20.4-39.6-45.3-39.6-71.3c0-17.4,2.8-8.7,38.5-85.4c2.5-5.3,6.7-7.3,11.2-7.3
		c18.3,0,58.7,68.5,58.7,87.6c0,24.9-17.1,38-17.1,57.3c0,4,0.7,8.1,2.3,11.8"/>
	<path class="st1" d="M350.1,167.3c0,0-1-1-3-3c-1.9-1.9-4.7-4.8-8.2-8.6c-1.7-1.9-3.6-4-5.6-6.4c-2-2.4-4.1-5-6.2-7.9
		c-4.2-5.8-8.7-12.6-12.6-20.8c-0.4-1-0.9-2.1-1.4-3.1c-0.2-0.5-0.5-1.1-0.7-1.6c-0.2-0.6-0.4-1.1-0.6-1.7c-0.4-1.1-0.8-2.2-1.2-3.4
		c-0.3-1.2-0.6-2.4-0.9-3.6c-0.4-1.2-0.5-2.4-0.7-3.7c-0.1-0.6-0.2-1.2-0.3-1.9l-0.1-0.9l-0.1-1c-0.1-1.3-0.1-2.6-0.2-3.9
		c0-1.4,0-2.5,0.1-3.8c0.1-2.7,0.5-5.5,1.4-8.2c0.4-1.4,1-2.6,1.6-3.9c0.6-1.2,1.2-2.4,1.8-3.6c2.5-4.6,5.1-9.4,7.7-14.2
		c5.1-9.6,10.3-19.6,15.5-29.8c2.5-5.1,5.1-10.3,7.6-15.5c1.3-2.6,2.5-5.3,3.8-7.9c0.3-0.6,0.8-1.5,1.3-2.1c0.5-0.7,1-1.3,1.6-1.9
		c1.2-1.2,2.7-2.2,4.3-2.9c1.6-0.7,3.3-1,4.9-1.1l0.6,0l0.2,0l0.2,0l0.3,0c0.2,0,0.3,0,0.6,0l0.7,0.1c0.9,0.2,1.7,0.4,2.5,0.7
		c3.1,1.2,5.6,3,7.9,4.9c4.6,3.9,8.6,8.2,12.3,12.7c1.9,2.2,3.6,4.5,5.4,6.8c1.8,2.3,3.5,4.5,5.2,6.8c1.7,2.3,3.2,4.7,4.7,7.1
		c1.5,2.4,2.9,4.8,4.3,7.1c5.5,9.6,10.4,19.1,14.1,28.7c0.9,2.4,1.7,4.8,2.4,7.3c0.6,2.5,1.2,5.1,1.1,8c0,1.2-0.1,2.3-0.1,3.5
		c-0.1,1.2-0.3,2.5-0.4,3.7c-0.1,1.2-0.4,2.4-0.6,3.5c-0.2,1.2-0.5,2.3-0.8,3.4c-1.2,4.5-2.8,8.5-4.4,12.3
		c-1.6,3.7-3.3,7.2-4.7,10.3c-1.4,3.2-2.6,6.1-3.5,8.9c-0.9,2.7-1.5,5.2-1.8,7.5c-0.1,1.1-0.1,2.2-0.2,3.2c0,1.1,0,2,0.1,2.9
		c0.1,1.8,0.4,3.2,0.7,4.4c0.3,1.2,0.6,2.1,0.8,2.6c0.2,0.6,0.3,0.9,0.3,0.9l-5.9,2.5c0,0-0.2-0.4-0.5-1.1c-0.3-0.7-0.7-1.8-1.1-3.3
		c-0.8-2.9-1.6-7.4-1-13c0.4-2.8,0.9-5.8,2-8.9c1-3.1,2.5-6.3,4.1-9.5c1.6-3.3,3.4-6.5,5-10.1c0.8-1.8,1.6-3.6,2.4-5.4
		c0.3-0.9,0.7-1.9,1-2.9c0.3-1,0.6-2,0.9-3c0.3-1,0.5-2,0.7-3c0.2-1,0.5-2.1,0.6-3.1c0.1-1,0.3-2,0.4-3.2c0.1-1.2,0.1-2.3,0.2-3.5
		c0.1-1.8-0.3-4-0.9-6.2c-0.6-2.2-1.3-4.5-2.1-6.8c-3.4-9.1-8.1-18.5-13.4-27.9c-1.3-2.3-2.7-4.7-4.2-7c-1.4-2.3-3-4.6-4.4-7
		c-1.4-2.4-2.9-4.7-4.5-7.1c-1.6-2.3-3.3-4.6-5-6.8c-3.5-4.4-7.2-8.7-11.5-12.3c-2.1-1.8-4.4-3.4-6.8-4.3c-0.6-0.2-1.2-0.4-1.7-0.5
		l-0.4-0.1c-0.1,0-0.4,0-0.5,0l-0.3,0c0,0-0.2,0,0,0l-0.1,0l-0.5,0c-1.3,0-2.5,0.3-3.6,0.8c-2.2,0.9-3.9,2.7-5,5.1
		c-1.2,2.6-2.4,5.2-3.7,7.9c-2.4,5.3-4.9,10.5-7.3,15.7c-4.9,10.4-9.9,20.6-15.1,30.2c-2.6,4.8-5.1,9.5-7.6,14.2
		c-0.6,1.2-1.1,2.3-1.7,3.4c-0.5,1.1-1,2.2-1.3,3.3c-0.7,2.2-1.1,4.4-1.1,6.7c0,1.1-0.1,2.5,0,3.6c0.1,1.2,0.1,2.3,0.2,3.5l0,0.9
		l0.1,0.8c0.1,0.6,0.2,1.1,0.3,1.7c0.2,1.1,0.3,2.2,0.7,3.3c0.3,1.1,0.6,2.2,0.9,3.2c0.4,1,0.7,2.1,1.1,3.1c0.2,0.5,0.4,1,0.5,1.5
		c0.2,0.5,0.4,1,0.7,1.5c0.4,1,0.9,2,1.3,2.9c3.7,7.6,8.1,14.2,12.2,19.8c1,1.4,2,2.8,3,4.1c1,1.3,1.9,2.6,2.8,3.9
		c1.8,2.5,3.5,4.7,4.9,6.8c3,4.1,5.2,7.5,6.6,9.9c1.4,2.4,2.2,3.6,2.2,3.6L350.1,167.3z"/>
</g>
<g>
	<path class="st0" d="M460.9,148.9c-6.9-12.1-12.7-27.6-12.7-42c0-36.6,37.5-38.9,64.9-65.7c2.4-2.3,5.4-3.4,8.6-3.4
		c7,0,16.5,5.4,16.5,17.1c0,6.3-2,12.5-2,18.2c0,7.9,6.2,13.6,6.2,30.2c0,31.6-27.1,56.9-50.9,76.1"/>
	<path class="st1" d="M459.8,149.5c0,0-0.7-1-2.1-3c-0.7-1-1.5-2.2-2.4-3.7c-0.9-1.5-1.7-3.3-2.7-5.3c-0.9-2.1-1.8-4.4-2.7-6.9
		c-0.9-2.6-1.7-5.4-2.4-8.5c-0.7-3.1-1.3-6.4-1.6-9.9c-0.1-0.9-0.1-1.8-0.2-2.7c0-0.5,0-0.9,0-1.4l0-0.7l0-0.4l0-0.4
		c0-0.9,0.1-1.8,0.1-2.7c0-0.9,0.2-2,0.3-3c0.5-4,1.5-8,3.4-12c1.8-3.9,4.5-7.6,7.6-10.9c3.1-3.3,6.8-6.1,10.6-8.7
		c3.8-2.6,7.8-5,11.9-7.4c8.1-4.8,16.4-9.6,24-15.6c0.9-0.8,1.9-1.5,2.8-2.3c0.9-0.8,1.8-1.6,2.7-2.4l2.7-2.5c0.6-0.6,1.2-1,1.9-1.4
		c0.6-0.4,1.3-0.7,2-1c1.4-0.6,2.9-0.9,4.3-1.1c0.4,0,0.7-0.1,1.1-0.1l0.3,0l0.1,0l0.2,0l0.5,0c0.3,0,0.6,0,1,0.1l1.1,0.2
		c2.9,0.5,5.5,1.6,7.9,3.2c2.4,1.6,4.4,3.8,5.8,6.3c1.4,2.5,2.1,5.4,2.3,8.2l0.1,1l0,0.6l0,0.5c0,0.6,0,1.3-0.1,2
		c-0.1,1.3-0.3,2.6-0.4,3.9c-0.4,2.5-0.8,5-1.1,7.3c-0.2,1.2-0.3,2.3-0.3,3.5l0,0.8l0,0.1c0,0,0,0.2,0,0l0,0.2l0,0.5
		c0,0.3,0,0.7,0.1,0.9l0.1,0.7c0.3,2,1.1,4.3,2,6.5c1.7,4.6,3.1,9.5,3.7,14.4c0.2,1.2,0.2,2.4,0.3,3.7c0,0.6,0,1.2,0.1,1.8
		c0,0.6,0,1.1,0,1.9c0,1.2,0,2.3-0.1,3.5c-0.1,1.2-0.2,2.4-0.3,3.6c-0.6,4.7-1.7,9.2-3.2,13.4c-3.1,8.4-7.5,15.6-12,21.8
		c-4.6,6.2-9.3,11.4-13.7,15.8c-4.4,4.4-8.4,8-11.7,10.9c-3.3,2.9-6,5.1-7.8,6.6c-1.8,1.5-2.8,2.3-2.8,2.3l-3.1-3.9
		c0,0,1-0.8,2.8-2.3c1.8-1.5,4.5-3.7,7.7-6.5c3.3-2.8,7.2-6.4,11.5-10.6c4.2-4.3,8.9-9.3,13.2-15.2c4.4-5.9,8.5-12.7,11.4-20.6
		c1.4-3.9,2.5-8,3-12.3c0.2-1.1,0.2-2.1,0.3-3.2c0.1-1,0.1-2.3,0.1-3.4c0-1,0-2.2-0.1-3.3c-0.1-1.1-0.1-2.2-0.3-3.3
		c-0.5-4.5-1.7-8.8-3.4-13.3c-0.8-2.3-1.7-4.6-2.2-7.5l-0.1-1.1c-0.1-0.4,0-0.6-0.1-1l0-0.5l0-0.2c0-0.3,0-0.1,0-0.2l0-0.1l0-1
		c0.1-1.3,0.2-2.6,0.4-3.9c0.3-2.5,0.8-5,1.2-7.4c0.2-1.2,0.3-2.4,0.4-3.5c0-0.6,0.1-1.1,0.1-1.7l0-0.5c0,0,0-0.2,0-0.4l0-0.8
		c-0.2-4.4-2.4-8.4-6-10.8c-1.8-1.2-3.9-2.1-5.9-2.4l-0.7-0.1c-0.2,0-0.6,0-0.9-0.1l-0.5,0c0,0-0.2,0,0,0l-0.1,0l-0.2,0
		c-0.3,0-0.5,0-0.8,0c-1,0.1-2,0.3-2.9,0.7c-0.5,0.2-0.9,0.4-1.3,0.7c-0.4,0.3-0.8,0.6-1.1,0.8l-2.7,2.6c-0.9,0.9-1.9,1.7-2.9,2.5
		c-1,0.8-2,1.6-2.9,2.4c-7.9,6.2-16.5,11.2-24.6,15.9c-4,2.4-8,4.7-11.6,7.2c-3.7,2.5-7,5.1-9.9,8.1c-2.8,2.9-5.2,6.1-6.7,9.6
		c-1.6,3.4-2.5,7-2.9,10.5c-0.1,0.9-0.2,1.7-0.2,2.6c0,0.9-0.1,1.8-0.1,2.7l0,0.2l0,0.1c0,0,0-0.1,0,0l0,0.3l0,0.6
		c0,0.4,0,0.8,0,1.3c0,0.8,0.1,1.7,0.2,2.5c0.3,3.3,0.8,6.4,1.5,9.3c1.3,5.8,3.2,10.7,4.7,14.7c0.4,1,0.8,1.9,1.1,2.8
		c0.4,0.9,0.7,1.7,1,2.5c0.6,1.6,1.1,2.9,1.5,4c0.4,1.1,0.8,1.9,1,2.5c0.2,0.6,0.4,0.8,0.4,0.8L459.8,149.5z"/>
</g>
<g>
	<path class="st0" d="M547.7,190c3.1-27.1,21.6-56.3,50.3-56.3c6.8,0,15.7,2.5,16,2.5c5,0,10.4-4.5,16.1-4.5c5.9,0,10.1,4,10.1,10.9
		c0,10.6-13.8,21.1-15.5,48.6c-1.9,30-38.9,25.9-60.6,34.1"/>
	<path class="st1" d="M546.7,189.9c0,0,0.1-1,0.3-2.9c0.3-1.9,0.7-4.7,1.5-8.2c0.9-3.5,2.2-7.7,4.1-12.3c2-4.6,4.7-9.6,8.5-14.6
		c3.7-4.9,8.6-9.8,14.8-13.6c6.1-3.8,13.7-6.2,21.6-6.2c4,0,7.9,0.6,11.8,1.4c1,0.2,1.9,0.4,2.9,0.6l1.4,0.3l0.3,0.1
		c0.1,0-0.1,0-0.2,0c-0.2,0,0,0,0,0l0.1,0l0.7,0c0.7-0.1,1.6-0.3,2.4-0.6c0.9-0.3,1.8-0.6,2.7-1c1.8-0.7,3.7-1.6,5.8-2.2
		c1-0.3,2.2-0.5,3.3-0.6l0.9,0l0.2,0l0.2,0l0.1,0l0.4,0c0.5,0,1.1,0.1,1.7,0.2c1.2,0.2,2.3,0.6,3.4,1.1c1.1,0.6,2.1,1.3,2.9,2.2
		c0.8,0.9,1.5,1.9,2,3c0.5,1.1,0.8,2.2,1,3.4c0.1,0.6,0.2,1.1,0.2,1.7l0,0.8l0,0.2l0,0.1c0,0,0,0.3,0,0.2l0,0.4l-0.1,1.5
		c-0.1,0.6-0.2,1.2-0.4,1.7c-0.5,2.2-1.4,4.2-2.3,6.1c-1.8,3.7-3.7,7.2-5.4,10.8c-1.7,3.5-3.1,7.1-4.2,10.8
		c-0.5,1.8-1.1,3.6-1.4,5.5c-0.2,0.9-0.4,1.8-0.6,2.7c-0.1,0.9-0.3,1.8-0.4,2.8l-0.2,1.4l-0.1,1.4c-0.1,0.9-0.2,1.8-0.2,2.7
		c-0.1,0.9-0.2,1.9-0.3,2.8c-0.1,0.9-0.3,1.9-0.5,2.9c-0.2,1-0.5,1.9-0.7,2.9c-0.3,0.9-0.7,1.8-1,2.7c-0.8,1.8-1.8,3.5-3,4.9
		c-2.3,3-5.2,5.4-8.2,7.1c-3,1.8-6.1,3-9,4.1c-6,2-11.5,3.1-16.4,4.1c-4.9,1-9.1,1.7-12.5,2.5c-3.4,0.8-6,1.5-7.7,2.1
		c-0.9,0.3-1.5,0.5-2,0.7c-0.4,0.2-0.7,0.2-0.7,0.2l-1.8-4.7c0,0,0.3-0.1,0.7-0.3c0.5-0.2,1.2-0.4,2.1-0.7c1.9-0.6,4.7-1.3,8.2-2.1
		c3.5-0.7,7.8-1.5,12.6-2.4c4.8-0.9,10.2-1.9,15.8-3.7c2.8-0.9,5.6-2,8.3-3.6c2.7-1.5,5.1-3.5,7.1-6c1-1.2,1.8-2.6,2.5-4.1
		c0.3-0.8,0.6-1.5,0.9-2.3c0.2-0.8,0.5-1.6,0.6-2.4c0.1-0.8,0.4-1.6,0.4-2.5c0.1-0.9,0.2-1.8,0.3-2.7c0.1-1,0.2-1.9,0.3-2.9l0.1-1.4
		l0.2-1.4c0.2-1,0.3-1.9,0.5-2.9c0.2-1,0.4-1.9,0.6-2.9c0.4-1.9,1-3.8,1.5-5.8c1.2-3.8,2.7-7.6,4.5-11.3c1.7-3.7,3.7-7.2,5.4-10.7
		c0.5-0.9,0.8-1.8,1.2-2.6c0.2-0.4,0.3-0.9,0.5-1.3c0.2-0.4,0.3-0.9,0.4-1.3l0.3-1.2l0.1-1.5l0-0.4c0-0.2,0,0.1,0,0.1l0-0.1l0-0.2
		l0-0.7c0-0.4-0.1-0.9-0.2-1.3c-0.2-0.9-0.4-1.7-0.7-2.4c-0.4-0.7-0.8-1.4-1.3-2c-0.6-0.6-1.2-1.1-1.9-1.4c-0.7-0.4-1.5-0.6-2.3-0.8
		c-3.4-0.7-6.9,0.9-10.6,2.4c-1.9,0.8-3.8,1.5-6.3,1.8l-0.7,0l-0.1,0c-0.1,0,0.1,0-0.2,0c-0.1,0-0.2,0-0.3,0l-0.2,0l-0.4-0.1
		l-1.4-0.3c-0.9-0.2-1.9-0.4-2.8-0.6c-3.8-0.8-7.5-1.4-11.1-1.4c-7.3,0-14.2,2.2-20,5.6c-5.8,3.4-10.4,8-14,12.7
		c-3.7,4.7-6.3,9.5-8.4,13.9c-2,4.4-3.4,8.4-4.3,11.8c-1,3.4-1.5,6.1-1.8,7.9c-0.3,1.9-0.4,2.9-0.4,2.9L546.7,189.9z"/>
</g>
<g>
	<path class="st0" d="M604.4,271.8c5-23.3,23.4-53.5,49.5-53.5c8.7,0,12.3,2.9,16.3,2.9c4.2,0,8.6-2.1,12.8-2.1c5.1,0,8,3.4,8,7.1
		c0,1.7-17.2,28.2-20.7,31.9c-14.6,14.9-34.9,20.6-54.9,25.3"/>
	<path class="st1" d="M603.8,271.7c0,0,0.1-0.9,0.3-2.5c0.3-1.6,0.8-4,1.7-6.8c1.9-5.8,5.1-13.9,10.9-22.6c1.5-2.2,3.1-4.4,4.9-6.5
		c1.8-2.2,3.9-4.2,6.2-6.2c4.6-3.9,10.2-7.5,16.7-9.2c3.2-0.9,6.7-1.3,10.2-1.3c0.8,0,1.8,0.1,2.6,0.1c0.9,0.1,1.7,0.2,2.6,0.3
		c1.7,0.3,3.5,0.8,5.1,1.3c1.6,0.5,3.2,1,4.5,1.1l0.5,0l0.6,0c0.4,0,0.7,0,1.1-0.1c0.8-0.1,1.5-0.2,2.3-0.4c1.6-0.4,3.3-0.8,5.1-1.1
		c1.8-0.3,3.7-0.5,5.8-0.2c2,0.3,4.1,1.3,5.6,3c0.7,0.8,1.3,1.8,1.7,2.8c0.2,0.5,0.3,1,0.4,1.6c0,0.3,0.1,0.5,0.1,0.8l0,0.4l0,0.2
		l0,0.1c-0.1,0.6,0,0.2,0,0.4l0,0.2l-0.1,0.3l-0.1,0.3l-0.1,0.2l0,0.1c-0.1,0.2-0.2,0.5-0.3,0.7c-0.2,0.4-0.4,0.8-0.6,1.2
		c-0.4,0.8-0.9,1.5-1.3,2.3c-0.9,1.5-1.8,2.9-2.7,4.4c-3.6,5.8-7.3,11.3-10.9,16.6c-0.9,1.3-1.9,2.6-2.8,3.9c-0.5,0.6-1,1.3-1.5,1.9
		c-0.3,0.3-0.6,0.7-0.9,1l-0.8,0.8c-0.6,0.5-1.1,1.1-1.7,1.6c-0.6,0.5-1.2,1-1.8,1.6c-1.2,1.1-2.4,2-3.6,2.9
		c-4.9,3.6-9.9,6.3-14.7,8.5c-4.8,2.2-9.3,3.8-13.3,5c-4,1.3-7.6,2.3-10.5,3c-2.9,0.8-5.2,1.3-6.8,1.7c-1.6,0.4-2.4,0.6-2.4,0.6
		l-0.9-3.9c0,0,0.8-0.2,2.4-0.6c1.6-0.4,3.8-0.9,6.7-1.7c2.9-0.7,6.4-1.7,10.3-3c3.9-1.2,8.3-2.8,12.9-4.9c4.6-2.1,9.4-4.7,14-8.1
		c1.1-0.9,2.3-1.7,3.4-2.7c0.5-0.5,1.1-0.9,1.7-1.4c0.6-0.5,1.1-1.1,1.7-1.6l0.8-0.8c0.2-0.2,0.4-0.4,0.6-0.7
		c0.5-0.5,0.9-1.2,1.4-1.8c0.9-1.2,1.8-2.5,2.7-3.8c3.6-5.2,7.3-10.8,10.8-16.4c0.9-1.4,1.8-2.8,2.6-4.3c0.4-0.7,0.8-1.4,1.3-2.2
		c0.2-0.4,0.4-0.7,0.6-1.1c0.1-0.2,0.2-0.3,0.2-0.5l0-0.1l0,0c0,0,0,0,0,0c0,0,0,0,0,0l0-0.2c0,0.1,0-0.4,0,0.2l0-0.1l0-0.1l0-0.2
		c0-0.2,0-0.3-0.1-0.5c-0.1-0.3-0.1-0.6-0.2-0.9c-0.2-0.6-0.5-1.1-0.9-1.6c-0.8-0.9-2-1.5-3.3-1.8c-1.3-0.2-2.9-0.1-4.4,0.2
		c-1.6,0.3-3.2,0.7-4.9,1.1c-0.9,0.2-1.8,0.4-2.7,0.5c-0.4,0.1-1,0.1-1.5,0.1l-0.6,0c-0.3,0-0.5,0-0.8,0c-2.1-0.2-3.8-0.8-5.3-1.3
		c-3.1-1-6.2-1.6-9.3-1.7c-3.2-0.1-6.2,0.3-9.2,1c-5.9,1.5-11.1,4.7-15.5,8.4c-4.4,3.7-7.9,7.9-10.9,11.9c-1.5,2-2.8,4.1-4,6.1
		c-1.1,2-2.2,3.9-3.1,5.8c-1.8,3.7-3.2,7-4.2,9.8c-1,2.8-1.7,5-2.2,6.5c-0.5,1.5-0.8,2.3-0.8,2.3L603.8,271.7z"/>
</g>
<g>
	<path class="st0" d="M655.6,328.2c3.7-25.3,22.1-48.5,49.6-48.5c3.6,0,7.6-4.1,10.3-4.1c3.2,0,4.1,3.9,4.1,6.1
		c0,41-30.4,39.7-50.3,53.9"/>
	<path class="st1" d="M655,328.2c0,0,0.1-0.7,0.1-2c0.1-0.6,0-1.5,0.1-2.4c0.1-0.9,0.3-2,0.6-3.2c0.1-0.6,0.2-1.2,0.4-1.9
		c0.1-0.7,0.4-1.3,0.6-2c0.4-1.4,0.8-3,1.5-4.5c0.3-0.8,0.6-1.6,1-2.5c0.3-0.8,0.8-1.7,1.2-2.5c0.5-0.8,0.9-1.7,1.4-2.6
		c0.5-0.9,1.1-1.7,1.6-2.6c0.5-0.9,1.2-1.8,1.8-2.7c0.7-0.9,1.3-1.8,2-2.7c0.7-0.9,1.5-1.7,2.3-2.6c0.4-0.5,0.8-0.9,1.2-1.3
		c0.4-0.4,0.9-0.8,1.3-1.3c3.5-3.3,7.7-6.5,12.5-8.8c4.8-2.3,10.2-3.8,15.7-4.4c1.4-0.1,2.8-0.2,4.2-0.2l0.5,0c-0.2,0,0,0-0.1,0
		l0.1,0l0.1,0l0.3,0c0.2,0,0.3,0,0.4-0.1c0.1,0,0.2,0,0.3-0.1c0.5-0.1,1-0.4,1.6-0.6c1.1-0.5,2.2-1.2,3.5-1.9c0.6-0.4,1.3-0.7,2.1-1
		c0.4-0.2,0.8-0.3,1.3-0.4c0.3,0,0.5-0.1,0.8-0.1c0,0,0.3,0,0.2,0l0.1,0l0.1,0l0.3,0c1.2,0.1,2.2,0.7,3,1.4c0.7,0.7,1.2,1.5,1.6,2.3
		c0.3,0.8,0.5,1.6,0.7,2.4c0.1,0.4,0.1,0.8,0.1,1.2l0,0.7l0,0.5c-0.1,1.4,0,2.7-0.1,4.1c-0.1,1.4-0.2,2.8-0.4,4.2
		c-0.3,2.8-0.9,5.5-1.6,8.1c-0.8,2.6-1.8,5.2-3.1,7.6c-1.3,2.4-2.8,4.6-4.5,6.5c-1.7,2-3.6,3.7-5.5,5.2c-3.9,3-8,5.2-11.7,7
		c-3.8,1.8-7.2,3.3-10.2,4.7c-3,1.4-5.6,2.6-7.6,3.7c-2.1,1.1-3.6,2.1-4.6,2.7c-1,0.7-1.6,1.1-1.6,1.1l-2.3-3.3c0,0,0.6-0.4,1.7-1.1
		c1.1-0.7,2.8-1.8,4.9-2.9c2.2-1.2,4.8-2.5,7.9-3.8c3.1-1.4,6.5-2.9,10.1-4.6c3.6-1.8,7.5-3.8,11-6.5c1.8-1.4,3.5-2.9,5-4.7
		c1.5-1.8,2.9-3.7,4.1-5.8c1.1-2.1,2.1-4.4,2.8-6.9c0.7-2.4,1.3-4.9,1.5-7.5c0.2-1.3,0.3-2.6,0.4-3.9c0.1-1.3,0.1-2.7,0.1-4l0-0.5
		l0-0.4c0-0.3,0-0.6-0.1-0.8c-0.1-0.5-0.2-1.1-0.4-1.5c-0.2-0.5-0.4-0.8-0.7-1.1c-0.2-0.2-0.5-0.3-0.7-0.4l-0.3,0l-0.1,0l-0.1,0
		c-0.2,0,0.1,0,0.1,0c-0.1,0-0.1,0-0.2,0c-0.2,0-0.4,0.1-0.6,0.2c-0.5,0.2-1,0.4-1.6,0.8c-1.1,0.6-2.3,1.4-3.7,2
		c-0.7,0.3-1.4,0.6-2.2,0.8c-0.4,0.1-1,0.2-1.4,0.2l-1.1,0.1c-1.3,0.1-2.6,0.1-3.9,0.2c-5.1,0.5-10.1,1.9-14.5,4.1
		c-4.5,2.1-8.3,5-11.6,8.1c-0.4,0.4-0.8,0.8-1.2,1.2c-0.4,0.4-0.8,0.8-1.2,1.2c-0.7,0.8-1.4,1.7-2.1,2.5c-0.7,0.8-1.3,1.7-1.9,2.5
		c-0.6,0.8-1.2,1.6-1.7,2.5c-0.5,0.8-1,1.7-1.5,2.5c-0.5,0.8-0.9,1.7-1.3,2.5c-0.4,0.8-0.9,1.6-1.2,2.4c-0.3,0.8-0.7,1.6-1,2.3
		c-0.7,1.5-1.2,2.9-1.7,4.2c-0.3,0.7-0.5,1.3-0.7,1.9c-0.2,0.6-0.4,1.2-0.6,1.7c-0.7,2.2-1.3,4-1.7,5.2c-0.4,1.2-0.6,1.9-0.6,1.9
		L655,328.2z"/>
</g>
<g>
	<path class="st0" d="M250.4,209.6c-30.9-4.1-64.6-32.4-64.6-70.8c0-14.4,3-14.1,3-27.7c0-5.8-0.5-11.7-0.5-17.3
		c0-20,10.5-27.2,15.1-27.2c2,0,4,0.9,5.4,2.2c64.7,56.8,71.3,19.9,79.3,111.1"/>
	<path class="st1" d="M250.2,210.9c0,0-0.3,0-1-0.1c-0.6-0.1-1.6-0.1-2.8-0.3c-2.6-0.2-6.2-0.9-10.7-2.4c-1.1-0.4-2.3-0.8-3.5-1.3
		c-1.2-0.5-2.5-1-3.8-1.6c-2.6-1.1-5.3-2.6-8.2-4.3c-5.6-3.5-11.5-8-17-14c-5.5-5.9-10.7-13.2-14.3-21.8c-1.8-4.3-3.3-8.9-4.2-13.7
		c-0.9-4.8-1.3-9.9-1.2-14.9c0.1-2.5,0.2-5.1,0.6-7.7c0.4-2.6,1-5.1,1.5-7.5c0.9-4.7,1-9.7,0.8-14.8c-0.1-5.1-0.6-10.4-0.3-15.7
		c0-0.6,0.1-1.3,0.2-2l0.2-2.1l0.4-2c0.1-0.7,0.2-1.4,0.4-2c0.6-2.7,1.6-5.4,2.9-7.9c1.3-2.5,3.1-4.9,5.3-6.8c1.1-1,2.4-1.8,3.8-2.5
		c0.7-0.3,1.5-0.6,2.3-0.8c0.4-0.1,0.9-0.2,1.3-0.2l0.3,0c0.1,0,0.2,0,0.2,0l0.1,0c0.1,0,0.4,0,0.6,0c1.8,0.2,3.3,0.8,4.7,1.7
		c0.3,0.2,0.7,0.5,1,0.7l0.8,0.7l1.5,1.3c2,1.7,3.9,3.4,5.9,5c7.9,6.5,16,12.5,24.3,17.7c4.1,2.6,8.2,5.1,12.3,7.4
		c4.1,2.4,8.1,4.7,12,7.3c3.9,2.6,7.5,5.8,10.1,9.5c2.7,3.7,4.4,7.8,5.7,11.6c2.5,7.8,3.6,15,4.6,21.4c0.9,6.4,1.5,12,2,16.5
		c0.5,4.6,0.8,8.2,1,10.6c0.2,2.5,0.3,3.8,0.3,3.8l-5,0.4c0,0-0.1-1.3-0.3-3.7c-0.2-2.4-0.5-6-1-10.6c-0.5-4.5-1.1-10.1-2-16.3
		c-0.9-6.3-2.1-13.3-4.4-20.6c-1.2-3.6-2.7-7.2-5-10.3c-2.3-3.2-5.3-5.9-8.9-8.4c-3.6-2.4-7.6-4.7-11.7-7.1
		c-4.1-2.4-8.3-4.9-12.4-7.6c-8.4-5.4-16.6-11.5-24.6-18.2c-2-1.6-4-3.4-6-5l-1.5-1.3l-0.7-0.6c-0.2-0.2-0.4-0.3-0.6-0.4
		c-0.8-0.5-1.8-0.9-2.6-1c-0.1,0-0.1,0-0.3,0l-0.1,0c-0.1,0,0,0,0,0l-0.1,0c-0.2,0-0.4,0-0.6,0.1c-0.4,0.1-0.9,0.3-1.4,0.5
		c-0.9,0.5-1.9,1.1-2.7,1.8c-1.7,1.5-3.2,3.4-4.3,5.5c-1.1,2.1-2,4.4-2.5,6.8c-0.2,0.6-0.3,1.2-0.4,1.8l-0.3,1.8l-0.2,1.8
		c-0.1,0.6-0.1,1.2-0.2,1.9c-0.3,5.1,0.2,10.2,0.4,15.4c0.2,5.2,0.2,10.6-0.8,15.8c-0.5,2.6-1.1,5-1.4,7.3c-0.3,2.4-0.5,4.7-0.6,7.1
		c-0.3,9.6,1.6,18.7,5.1,26.7c3.4,8,8.3,14.9,13.5,20.4c5.2,5.6,10.8,9.9,16.1,13.1c5.3,3.2,10.1,5.7,14.3,7.2c2.1,0.8,4,1.4,5.6,2
		c0.8,0.3,1.6,0.5,2.3,0.7c0.7,0.2,1.3,0.4,1.9,0.6c1.1,0.3,2.1,0.5,2.7,0.6c0.6,0.1,0.9,0.2,0.9,0.2L250.2,210.9z"/>
</g>
<g>
	<path class="st0" d="M182.9,273.9c0.5,0,0.5-0.5,0.5-0.5c0,0,0,0,0,0c-66.9-3-60.6-57.6-62.3-63.8c-2.3-8.4-6.4-16.8-6.4-26.1
		c0-7.3,4.7-10.2,11.3-10.2c9.2,0,17,7.9,25.1,7.9c40.6,0,44.3,47,60.1,73.9"/>
	<path class="st1" d="M182.8,272.8L182.8,272.8C182.9,272.8,183,272.8,182.8,272.8C182.9,272.8,182.8,272.8,182.8,272.8
		c-0.1,0-0.3,0.1-0.3,0.1c-0.1,0.1-0.1,0.2-0.2,0.2c0,0,0,0.1,0,0.1l0,0c0,0,0,0,0,0.1l1.1,1.1c-2.9,0-5.8,0.3-8.7-0.1
		c-2.9-0.2-5.8-0.7-8.7-1.2c-5.7-1.2-11.4-3-16.6-5.7c-5.3-2.7-10.2-6.1-14.3-10.5c-4.1-4.3-7.5-9.4-9.8-14.8
		c-1.2-2.7-2.2-5.5-3-8.3c-0.8-2.8-1.4-5.7-1.8-8.6c-0.4-2.9-0.7-5.8-0.9-8.7l-0.3-4.3c0-0.7-0.1-1.4-0.2-1.8c0-0.1,0-0.2-0.1-0.3
		l-0.1-0.5l-0.3-1c-1.6-5.3-3.8-10.7-5-16.5c-0.3-1.5-0.6-2.9-0.7-4.4c-0.1-0.7-0.1-1.5-0.2-2.3l0-1.1l0-0.6l0-0.1l0-0.2l0-0.1
		l0-0.3c0-0.4,0-0.7,0.1-1.1c0.1-0.4,0.1-0.9,0.2-1.3l0.3-1.3l0.4-1.2c0.7-1.7,1.8-3.2,3.3-4.3c1.4-1.1,3.1-1.8,4.7-2.2
		c0.4-0.1,0.8-0.2,1.2-0.2c0.4-0.1,0.8-0.1,1.2-0.2c0.4,0,0.8-0.1,1.2-0.1l0.6,0l0.3,0l0.1,0l0.2,0l0.1,0l1.1,0.1c0.2,0,0.3,0,0.5,0
		l0.6,0.1l1.3,0.2l1.2,0.3c1.5,0.4,3,0.9,4.4,1.4c2.8,1.1,5.3,2.5,7.9,3.6c2.5,1.1,5,2.1,7.4,2.2c1.4,0.1,2.8,0.1,4.2,0.2
		c1.5,0.2,3.1,0.3,4.5,0.6c1.5,0.3,3,0.5,4.4,1c0.7,0.2,1.5,0.4,2.2,0.7l2.1,0.8c5.6,2.3,10.6,6,14.6,10.4c4.1,4.4,7.2,9.4,10,14.6
		c2.7,5.2,5,10.5,7.1,15.8c2.2,5.3,4.2,10.6,6.4,15.9c2.2,5.2,4.5,10.3,7.3,15.1l-4.3,2.5c-2.9-5.1-5.3-10.4-7.5-15.8
		c-2.2-5.3-4.2-10.7-6.3-15.9c-2.1-5.3-4.3-10.4-6.9-15.4c-2.6-4.9-5.6-9.6-9.2-13.6c-0.9-1-1.9-1.9-2.9-2.9c-0.5-0.5-1-0.9-1.5-1.3
		l-0.8-0.6l-0.8-0.6c-2.1-1.6-4.5-2.9-7-3.9l-1.9-0.7c-0.6-0.3-1.3-0.4-1.9-0.6c-1.3-0.4-2.6-0.6-3.9-0.9c-0.7-0.2-1.3-0.2-2-0.3
		c-0.7-0.1-1.3-0.2-2-0.2c-1.4-0.1-2.8-0.1-4.3-0.2c-3.4-0.2-6.3-1.4-9-2.6c-2.7-1.2-5.2-2.5-7.7-3.5c-1.3-0.5-2.5-0.9-3.7-1.2
		L129,176l-0.9-0.1l-0.4-0.1c-0.2,0-0.3,0-0.5,0l-1.1-0.1l-0.1,0c-0.1,0,0.1,0,0.1,0l-0.1,0l-0.2,0l-0.5,0c-0.3,0-0.6,0-0.9,0.1
		c-0.3,0-0.6,0.1-0.9,0.1c-0.3,0-0.6,0.1-0.9,0.2c-1.2,0.3-2.2,0.7-3,1.4c-3.4,2.4-2.7,8.6-1.6,13.8c1.1,5.3,3.2,10.6,4.9,16.2
		l0.3,1l0.1,0.5c0.1,0.2,0.1,0.5,0.2,0.7c0.2,1,0.2,1.6,0.3,2.4l0.3,4.3c0.2,2.8,0.5,5.6,0.9,8.3c0.4,2.7,1,5.5,1.7,8.1
		c0.7,2.7,1.6,5.3,2.7,7.8c2.2,5,5.2,9.6,8.9,13.6c3.7,4,8.2,7.2,13.1,9.6c4.9,2.5,10.2,4.2,15.6,5.6l4.1,0.9l1,0.2l1,0.2l2.1,0.3
		c0.7,0.1,1.4,0.2,2.1,0.4l2.1,0.3l4.2,0.7l1.1,0.2l0,0.9c0,0.1,0,0.1,0,0.2l0,0.1c0,0.1,0,0.2-0.1,0.3c-0.1,0.2-0.2,0.4-0.4,0.6
		c-0.2,0.2-0.4,0.3-0.6,0.3c-0.1,0-0.2,0.1-0.3,0.1c-0.1,0-0.1,0-0.1,0l-0.1,0L182.8,272.8z"/>
</g>
<path class="st2" d="M183.4,273.6c0,0.1-0.2,0.3-0.5,0.3L183.4,273.6z"/>
<path class="st3" d="M193.4,266.5c-18.2-3.2-44.7-10.5-47.4-31.2c0,0,0,0,0,0c0-0.3,1-1,2-1c0.3,0,0.6,0.1,0.8,0.2
	C164.8,244.8,177.6,257.6,193.4,266.5z"/>
<path class="st3" d="M196.6,256.8c-21.5-10.3-51.9-30.5-51.9-54.2c0-1.1,0.4-2.1,1.6-2.1c0.8,0,1.8,0.4,2.1,0.8
	C164.2,221.1,177.2,241.4,196.6,256.8z"/>
<path class="st3" d="M198.2,253.1c-9.6-9.6-21.6-22.1-21.6-36.1c0-2.2-0.1-3.7,2.1-3.7c3,0,4.5,3.8,5.3,5.7
	C188.7,230.4,189.3,243.8,198.2,253.1z"/>
<path class="st3" d="M253.4,198.8c-18.7-3.2-40.6-19.3-40.6-39.1c0-1,0-2.7,2-2.7c0.5,0,0.9,0.2,1.3,0.5
	C229.3,171.4,236.8,188.7,253.4,198.8z"/>
<path class="st3" d="M262.7,190.3c-33-19.1-43.8-64.6-43.8-74c0-0.9,1.3-2.1,2.6-2.1c1.7,0,3.2,1.7,3.9,3
	C237.2,142.4,246.5,168,262.7,190.3z"/>
<path class="st3" d="M270.4,185.8c-8.3-8-16.1-20.6-16.1-32.7c0-3.4,1.4-12.5,4.6-12.5c0.6,0,2.7,1.7,3,2.6
	C266.9,157,263.9,172.5,270.4,185.8z"/>
<path class="st3" d="M355.2,139.6c-12.6-9.4-28.5-23.7-28.5-40.4c0-3.8,0.6-10.4,4.5-10.4c3.8,0,5,4.7,5.7,7.4
	C341,112,347.5,125.8,355.2,139.6z"/>
<path class="st3" d="M372.2,136.8c-9.9-18.3-17.1-40.2-17.1-61.8c0-12,3.4-29.1,5.9-29.1c3.7,0,5.9,6.9,6.3,11.8
	C369.4,84.1,369.8,110.4,372.2,136.8z"/>
<path class="st3" d="M385.2,136.4c-0.9-7-2.5-15.2-2.5-23.1c0-16.5,9-24.3,12.5-24.3c4.4,0,5.8,6.3,5.8,10.3
	c0,11.5-10.5,22.4-15,32.6C385.5,133.1,385.2,134.7,385.2,136.4z"/>
<path class="st3" d="M468.7,142.9c-4.6-9.5-10.5-21.9-10.5-32.9c0-11.2,6.9-17.6,8.6-17.6c2.7,0,4.8,7.5,4.8,13.6
	c0,10.2-3.3,20.5-3.3,30.7C468.3,138.8,468.4,140.8,468.7,142.9z"/>
<path class="st3" d="M481.7,141.2c-0.9-4.9-1.4-10.2-1.4-15.6c0-34.2,19.4-51.1,23.6-51.1c4,0,6,3.1,6,6.6c0,2.1-0.7,4.2-1.9,6.2
	C497.7,104.6,487.4,121.8,481.7,141.2z"/>
<path class="st3" d="M494.7,146.9c0-0.3,0-0.6,0-0.9c0-21.9,15.5-39.2,27.8-39.2c3.4,0,3.9,1.9,3.9,4c0,13.7-18.9,16.5-26.4,26.4
	C497.6,140.2,494.7,142.9,494.7,146.9z"/>
<path class="st3" d="M564,196.4c0.8-9.8,2.9-27.9,10.3-27.9c1.4,0,4.5,0.8,4.5,3.9C578.8,178.3,568.1,189.4,564,196.4z"/>
<path class="st3" d="M571.7,201.2c7.7-15.8,22.4-41,40.4-41c1.3,0,2.2,1.5,2.2,2.8c0,1.8-1.6,3.5-2.9,4.5
	C597.8,178.7,580.2,185.4,571.7,201.2z"/>
<path class="st3" d="M577.4,204.5c-3.7,2.9,9.5-14.2,23.6-14.2c3.6,0,8.1,1.6,8.1,2.8c0,1.4-2.3,3.7-4.1,4.5
	C596.1,201.8,584.9,198.5,577.4,204.5z"/>
<path class="st3" d="M622.8,258.8c0.8-8.3,1.8-25,11.7-25c2.7,0,3,0.4,3,1.4c0,1.1-0.6,2.9-1.4,4.2C632,246.4,626,251.5,622.8,258.8
	z"/>
<path class="st3" d="M627.7,263.3c8.1-12,15.8-32.6,31.9-32.6c2.9,0,3.9,0,3.9,3.2c0,5-5.7,7.4-9.5,9.6
	C643.9,249.2,635.8,256,627.7,263.3z"/>
<path class="st3" d="M629.3,266.5c-1.7,0,11-9,19.8-9c4,0,4.8,0.7,4.8,2.2c0,1.9-3.6,7.3-14,7.3C636.3,267,632.5,266.5,629.3,266.5z
	"/>
<path class="st3" d="M675.1,314c0-4.8,3-15.3,6.3-15.3c1,0,2.2,1.1,2.2,2.4C683.7,304.3,676.9,309,675.1,314z"/>
<path class="st3" d="M680.4,315.2c1.3-2.4,10.3-20.4,19.2-20.4c1.4,0,1.7,2.2,1.7,3.2c0,3-2.4,5.7-4.7,7.5
	C691.5,309.3,684.8,310.3,680.4,315.2z"/>
<path class="st3" d="M684.4,319.6c1.3-4.7,6.6-7.7,11.4-7.7c2.5,0,3.5,0.3,3.5,1.7c0,0.3-0.1,0.5-0.2,0.7
	C695.5,318.9,688.9,316.4,684.4,319.6z"/>
<g>
	<path class="st0" d="M289.9,179.7l-1.8,0.2l-37.7,29.7l-0.2,1c0,0-0.3,0-1-0.1c-0.6-0.1-1.5-0.1-2.8-0.4c-2.5-0.3-6.1-1-10.6-2.5
		c-4.4-1.5-9.7-3.8-15.3-7.2c-0.5-0.3-1-0.6-1.5-0.9c0.7-0.2,1.3-0.5,2-0.8c0.7-0.2,1.4-0.5,2-0.8c22.9-9,44.8-22.4,60.8-41
		c0.5-0.6,1.1-1.2,1.6-1.9c0.5-0.6,1-1.3,1.5-1.9c0.6,4.6,1,8.7,1.4,12.2c0.5,4.6,0.8,8.2,1,10.6
		C289.8,178.4,289.9,179.7,289.9,179.7z"/>
</g>
<g>
	<path class="st0" d="M598.8,217.3c-11.2,3-23.9,4.2-33.8,7.7c-0.8-0.8-1.5-1.7-2.3-2.6l-15-32.4c1.1-9.3,4-18.9,8.5-27.5
		C563.1,179.5,579.2,203.5,598.8,217.3z"/>
</g>
<g>
	<path class="st0" d="M183.4,273.4C183.4,273.4,183.4,273.4,183.4,273.4c-11.7-0.5-21.1-2.6-28.7-5.8c20.5-3.2,36.2-20.2,44.8-39.1
		c3.7,9.5,7.2,18.8,11.8,26.6l-27.9,18.5C183.4,273.5,183.4,273.4,183.4,273.4z"/>
</g>
<g>
	<path class="st0" d="M411.9,119.1c-3.7,7.8-7.7,15-9.1,23c-12.4,2.3-32.3,5.2-64.2,9.6c-5.9-7.4-11.8-15.2-16.7-23.2
		c6.8,2.5,13.8,3.5,20.9,3.5C355.5,132.1,395.2,123.8,411.9,119.1z"/>
</g>
<g>
	<path class="st0" d="M531.7,137.4c-6.5,10.5-15.3,20-24.6,28.5c-10.6-3.1-27.3-8.3-43-13.8l-3.3-3.3c-5.5-9.6-10.3-21.3-12-32.9
		c7.8,6.6,30.1,21.7,72,21.7C524.5,137.7,528.1,137.6,531.7,137.4z"/>
</g>
<g>
	<path class="st0" d="M649.7,272.5c-7.1,3.4-14.7,5.9-22.4,8c-4-4.1-10-10.4-19.6-20c2.7-7.3,6.5-14.8,11.3-21.3
		C626.6,258.8,642.3,267.2,649.7,272.5z"/>
</g>
<g>
	<path class="st0" d="M703.3,317.7c-8.2,5.8-18.3,9-27.4,13.8c-7.6-4.3-14.2-10.9-16.8-17.1c2.6-6.8,6.3-13.2,11-18.5
		C676.4,308,689.8,315.7,703.3,317.7z"/>
</g>
<path class="st4" d="M155.9,539.6c3.1-51.2,43.3-158.1,92.2-158.1c15.9,0,51.9,10.1,51.9,35.8c0,6.6-1.7,9.6-7.7,17
	c-65.3,81-42,135.4-81,135.4c-23.9,0-55.5-4.9-55.5-28.8C155.9,540.4,155.9,540,155.9,539.6z"/>
<path class="st4" d="M460.1,557.7c-0.1-1.8-0.1-3.6-0.1-5.4c0-48.2,34.4-151.9,118.7-151.9c5.4,0,19.1,2.9,19.1,11.9
	c0,37.3-36,65.3-50,115.6c-2.7,9.7,1.9,47.8-45.8,47.8c-21.2,0-36.9-9.6-40.3-14.5C460.8,560,460.1,559.3,460.1,557.7z"/>
<g>
	<path class="st5" d="M541.3,553.2c9.5-47.6,29.9-94.4,59.3-133.3"/>
</g>
<g>
	<path class="st5" d="M459.7,546c6.3-42.8,23-84,48.4-118.9"/>
</g>
<g>
	<path class="st6" d="M156,536.5c8.7-41.2,19-85.6,47.6-118.9"/>
</g>
<g>
	<path class="st6" d="M233.7,557.9c7.9-49.9,32.4-96.2,64.9-135"/>
</g>
<g class="st7">
	<path class="st8" d="M766.7,425.5c-0.1-0.2-0.1-0.3-0.2-0.5c0.3-2.2-0.1-13.7-0.6-23.7c-0.4-7-0.7-13.3-0.9-14.9
		c-1.8-24.6,2.4-26.3,1.6-40.3c-0.2-7.7,2.3-11-11-10.3c-31.6,2.2-57.6-9.8-81.5-28.9c-10.4-8.3-20.4-18-30.2-28.5
		c-12.3-13.1-24.5-27.4-37-41.8c-7.5-8.6-15.2-17.2-23-25.7c-30.5-32.5-64.8-61.8-109.7-73.5c-4.8-1.3-9.7-2.3-14.7-3.2
		c-17-2.5-33.1-3.4-48.2-2.8c-73.6,2.6-126.1,38.3-168.5,76.3c-8.7,7.8-16.9,15.6-24.9,23.3c-9.1,8.8-17.8,17.4-26.1,25.4
		c-48.3,46.1-86.3,57.1-115.2,59.6c-8.2,0.7-15.7,0.7-22.5,0.6c-37.7-0.5-53.7-3.5-53.1,94.9c0.2,14.4,0.5,12.2-0.2,17.8
		c-1.9,8.8,2.4,7.8,8.7,21.5c5.7,12.3,9.4,26.1,15.8,37.7c21,38.1,62.1,5.3,58.9-31.7c0.2-0.2,1.2-1.6,1.4-1.8
		c10.5-16.9,13.3-31.6,8.3-49.5c1.6-2.4,4.6-5.3,6.2-10.8c27.7-6.5,47.5-4.8,77.3,27.5c146.1,102.9,463.2,53,591.1,6.7L766.7,425.5z
		"/>
</g>
<g id="Layer_10">
</g>
<path class="st9" d="M767.2,430c-128,46.3-445,96.2-591.1-6.7c-29.8-32.2-49.6-34-77.3-27.5c-1.5,5.5-4.5,8.4-6.2,10.8
	c5.1,17.8,2.3,32.6-8.3,49.5c-0.2,0.3-1.1,1.6-1.4,1.8c3.1,37-37.9,69.8-58.9,31.7C17.6,478,13.8,464.2,8.2,452
	c-6.4-13.7-10.6-12.7-8.7-21.5c0.7-5.6,0.4-3.4,0.2-17.8c-0.5-98.4,15.5-95.4,53.1-94.9c6.8,0.1,14.3,0.1,22.5-0.6
	c28.9-2.5,66.9-13.5,115.2-59.6c8.4-8,17-16.6,26.1-25.4c7.9-7.7,16.2-15.5,24.9-23.3c42.5-38,95-73.7,168.6-76.3
	c15.2-0.5,31.2,0.3,48.2,2.8c5,0.8,9.9,1.9,14.7,3.1c44.9,11.8,79.2,41,109.7,73.5c7.9,8.4,15.5,17.1,23.1,25.7
	c12.5,14.4,24.7,28.7,37,41.8c9.9,10.5,19.8,20.1,30.2,28.5c23.9,19.2,49.9,31.2,81.5,28.9c13.3-0.7,10.8,2.6,11,10.3
	c0.8,14-3.4,15.7-1.6,40.3c0.1,1.6,0.5,7.8,0.9,14.9c0.5,10,1,21.5,0.7,23.7c0.1,0.2,0.1,0.2,0.2,0.5L767.2,430z"/>
<path class="st10" d="M766.2,428.6c-128.4,51.8-446.9,99.8-592.9-3.8c-34.4-25.1-49-32.9-76.1-27.3c1.1-4,1.1-8.6,0.6-11.2
	c5.7-1.8,11-2.2,14.3-2.1c67.1,0.7,150.8,76.2,281.8,75.3c124.2-0.8,251.1-23.9,369.9-58.5c0.5,10,1,21.5,0.7,23.7
	c0.1,0.1,0.1,0.2,0.2,0.5L766.2,428.6z"/>
<g>
	<path class="st11" d="M378.7,218.8c0,11.9,10.8,18.4,21.7,18.4c32.4,0,53.7-49.1,33.5-59.2C410.5,166.3,378.7,195.2,378.7,218.8z"
		/>
	<path class="st12" d="M381.1,218.6c0,0,0,0.8,0.1,2.2c0.1,0.3,0.1,0.6,0.2,0.9c0.1,0.3,0.1,0.7,0.2,1.2c0.1,0.4,0.2,0.9,0.4,1.4
		c0.2,0.5,0.4,1,0.7,1.5c1.1,2,3,4.2,5.8,5.9c1.4,0.9,3.1,1.6,4.9,2.1c1.8,0.5,3.8,0.9,5.9,1l0.8,0l0.4,0c0.1,0-0.1,0-0.1,0l0.1,0
		l0.1,0l0.2,0c0.6,0,1.2-0.1,1.8-0.1l0.9,0l0.8-0.1c0.5-0.1,1.1-0.2,1.6-0.2c2.2-0.5,4.5-1.1,6.8-2.1c4.5-1.9,8.8-5,12.7-8.8
		c1.9-1.9,3.7-4.1,5.3-6.3c1.6-2.3,3.1-4.7,4.4-7.3c2.5-5.1,4.3-10.8,4.4-16.3c0.1-2.8-0.4-5.5-1.4-7.8c-1-2.3-2.7-4.1-4.9-5.3
		l-0.1-0.1l0,0c0,0-0.1-0.1,0.1,0l-0.3-0.1l-0.5-0.2l-1-0.5c-0.4-0.2-0.7-0.3-1-0.4l-0.9-0.3c-0.6-0.2-1.3-0.3-1.9-0.5
		c-0.6-0.2-1.3-0.2-2-0.3c-2.6-0.3-5.3-0.2-7.9,0.2c-5.2,0.9-10,3.1-14.2,5.8c-4.2,2.7-7.7,5.9-10.6,9.1c-2.9,3.2-5.2,6.5-6.9,9.6
		c-1.7,3.1-2.8,5.9-3.5,8.3c-0.7,2.4-0.9,4.3-1.1,5.6c-0.1,1.3-0.1,2-0.1,2L381.1,218.6z M376.3,218.8c0,0,0-0.8,0.1-2.4
		c0.2-1.5,0.4-3.8,1.2-6.5c1.5-5.5,4.9-12.9,11.3-20c3.2-3.6,7-7,11.6-10c4.6-2.9,10-5.5,16.1-6.6c3-0.5,6.2-0.7,9.4-0.2
		c0.8,0.1,1.6,0.2,2.4,0.4c0.8,0.2,1.6,0.3,2.4,0.6l1.2,0.4c0.4,0.1,0.8,0.3,1.1,0.4l1,0.5l0.5,0.2l0.3,0.1c0.2,0.1,0.1,0.1,0.2,0.1
		l0.1,0l0.1,0.1c3.2,1.6,5.8,4.5,7.2,7.7c1.4,3.2,1.9,6.7,1.8,10c-0.1,3.3-0.7,6.5-1.5,9.6c-0.9,3.1-2,6.1-3.4,8.8
		c-1.4,2.8-3,5.5-4.8,8c-1.8,2.5-3.8,4.8-5.9,6.9c-4.3,4.2-9.1,7.6-14.3,9.7c-2.6,1.1-5.2,1.8-7.8,2.3c-0.7,0.1-1.3,0.2-2,0.3
		l-1,0.1l-0.9,0c-0.6,0-1.2,0.1-1.8,0.1l-0.5,0l-0.5,0l-0.9,0c-2.5-0.1-4.8-0.5-7-1.2c-2.2-0.7-4.2-1.6-5.9-2.6
		c-3.5-2.2-6-5-7.4-7.7c-1.5-2.7-1.9-5.1-2.1-6.8c-0.1-1.4-0.2-2.2-0.2-2.2L376.3,218.8z"/>
</g>
<g>
	<path class="st11" d="M263,248.9c0,11.5,5.2,23.5,16.7,23.5c17.4,0,28.9-22.7,28.9-34.3C308.6,203.6,263,212.7,263,248.9z"/>
	<path class="st12" d="M265,248.8c0,0,0,0.6,0.1,1.8c0,0.6,0.1,1.2,0.2,2c0.1,0.8,0.2,1.7,0.4,2.7c0.4,2,1.1,4.4,2.3,6.9
		c0.7,1.2,1.4,2.5,2.4,3.6c0.9,1.2,2.1,2.2,3.5,2.9c1.4,0.8,3,1.2,4.7,1.3l0.6,0l0.3,0l0.2,0c-0.2,0,0,0,0,0l0,0l0.1,0
		c0.5,0,1.1,0,1.5-0.1c0.4-0.1,0.9-0.1,1.3-0.2c0.5-0.1,0.9-0.2,1.4-0.3c3.7-1,7.3-3.2,10.3-6.3c3.1-3.1,5.7-6.9,7.7-11.1
		c1-2.1,1.9-4.3,2.5-6.5c0.7-2.2,1.1-4.5,1.3-6.7l0-0.8l0-0.1c0,0,0,0.2,0,0.1l0-0.1l0-0.2l0-0.5l-0.1-1.9l0-0.5l-0.1-0.4l-0.1-0.8
		c-0.1-0.5-0.1-1.1-0.3-1.6l-0.4-1.6c-0.1-0.5-0.4-1-0.5-1.6l-0.3-0.8c-0.1-0.3-0.2-0.5-0.3-0.7c-0.2-0.5-0.4-1-0.7-1.4
		c-2.1-3.7-5.6-6-9.6-6.8c-2-0.4-4-0.4-6-0.1c-2,0.3-3.9,0.9-5.7,1.6c-1.8,0.7-3.4,1.8-4.9,2.8c-1.5,1.1-2.8,2.3-4,3.6
		c-2.3,2.6-4,5.3-5.1,8c-0.3,0.7-0.5,1.3-0.8,1.9c-0.2,0.6-0.4,1.3-0.6,1.8c-0.1,0.3-0.2,0.6-0.3,0.9c-0.1,0.3-0.1,0.6-0.2,0.9
		c-0.1,0.6-0.2,1.1-0.3,1.6c-0.3,2-0.5,3.7-0.5,4.8C265,248.3,265,248.9,265,248.8L265,248.8z M260.9,248.9c0,0,0-0.7,0.1-1.9
		c0-1.2,0.2-3,0.5-5.3c0.1-0.6,0.2-1.2,0.4-1.8c0.1-0.3,0.1-0.6,0.2-1c0.1-0.3,0.2-0.7,0.3-1c0.2-0.7,0.4-1.4,0.6-2.1
		c0.3-0.7,0.6-1.4,0.8-2.2c1.3-3,3-6.2,5.7-9.3c1.3-1.6,2.8-3,4.5-4.4c1.8-1.3,3.6-2.6,5.8-3.5c2.1-1,4.4-1.8,6.9-2.2
		c2.5-0.4,5.1-0.6,7.7-0.1c2.6,0.5,5.3,1.5,7.6,3.1c2.3,1.6,4.3,3.7,5.8,6.1c1.4,2.4,2.4,5.1,2.9,7.8c0.2,0.7,0.2,1.4,0.3,2.1l0.1,1
		c0.1,0.4,0.1,0.7,0.1,1l0.1,1.9l0,0.5l0,0.2l0,0.2l0,0.1l0,1.1c-0.2,2.8-0.8,5.4-1.6,8c-0.8,2.5-1.8,5-3,7.3
		c-2.3,4.6-5.3,8.8-9,12.3c-3.6,3.5-8,6.1-12.7,7.2c-0.6,0.1-1.2,0.2-1.7,0.3c-0.6,0.1-1.2,0.1-1.8,0.2c-0.6,0-1,0-1.6,0.1l-0.3,0
		l-0.2,0l-0.4,0l-0.9-0.1c-2.3-0.2-4.5-0.9-6.4-2c-1.9-1.1-3.5-2.4-4.7-3.9c-1.3-1.5-2.1-3-2.9-4.5c-1.4-3-2.2-5.8-2.6-8
		c-0.2-1.1-0.3-2.2-0.4-3.1c-0.1-0.9-0.2-1.7-0.2-2.3C260.9,249.5,260.9,248.9,260.9,248.9L260.9,248.9z"/>
</g>
<g>
	<path class="st11" d="M514.1,255c-32.3,4.5-57.6,34.9-57.6,56.6c0,4.4,5,17,26.6,17c29.3,0,53.6-25.9,53.6-44.3
		c0-15.7-15.8-29.4-21.5-29.4C514.8,254.9,514.5,254.9,514.1,255z"/>
	<path class="st12" d="M514.5,257.4c0,0-0.9,0.2-2.6,0.4c-0.8,0.1-1.8,0.4-3,0.6c-0.6,0.1-1.2,0.3-1.9,0.5c-0.7,0.2-1.4,0.4-2.1,0.6
		c-3,0.9-6.5,2.3-10.4,4.3c-3.9,2-8.1,4.6-12.2,8c-2.1,1.7-4.2,3.6-6.2,5.6c-2,2.1-4,4.3-5.9,6.7c-3.7,4.9-7.1,10.5-9.1,16.7
		c-1,3.1-1.8,6.3-1.9,9.6l0,1.1l0,0.7l0,0.2l0,0.1l0,0.2c0,0.1,0,0.2,0.1,0.4l0.2,0.5c0.1,0.3,0.2,0.7,0.4,1
		c0.6,1.4,1.4,2.7,2.4,3.8c2,2.3,4.8,4.1,7.9,5.3c3.1,1.2,6.5,1.7,10,2l2.6,0.1l0.2,0c0,0,0.1,0,0,0l0.1,0l0.3,0l0.7,0l1.4,0
		c0.9-0.1,1.7-0.1,2.5-0.2l2.6-0.3c3.4-0.6,6.8-1.5,10-2.7c6.5-2.4,12.4-6.1,17.4-10.4c5-4.3,9.2-9.3,12.1-14.6
		c2.9-5.3,4.4-10.7,3.8-15.6c-0.6-4.9-2.7-9.4-5-12.8c-2.4-3.5-5-6.2-7.3-8.1c-2.3-1.9-4.4-3-5.6-3.4c-0.3-0.1-0.5-0.1-0.7-0.2
		c-0.1,0-0.1,0-0.2,0l0,0l0,0c0.3,0,0.1,0,0.2,0l0,0l-0.1,0c-0.1,0-0.1,0-0.2,0c-0.4,0-0.7,0-0.7,0L514.5,257.4z M514,252.6
		c0,0,0.2,0,0.7,0c0.1,0,0.1,0,0.2,0l0.1,0l0,0l0.2,0l0,0l0.1,0c0.2,0,0.5,0,0.7,0c0.5,0.1,1,0.2,1.5,0.3c2.1,0.7,4.6,2,7.3,4.2
		c2.7,2.2,5.6,5.2,8.3,9.1c1.4,2,2.6,4.2,3.7,6.7c1.1,2.5,1.9,5.3,2.3,8.3c0.1,0.8,0.2,1.6,0.2,2.3l0,0.5l0,0.2l0,0.1l0,0.3
		c0,0.4,0,0.8,0,1.2c-0.1,0.8-0.2,1.6-0.3,2.4c-0.2,0.8-0.3,1.6-0.5,2.4c-0.8,3.2-2,6.3-3.6,9.2c-3.2,5.9-7.7,11.4-13.1,16.2
		c-5.4,4.8-11.9,8.8-19,11.5c-3.6,1.4-7.3,2.4-11.1,3l-2.9,0.4c-1,0.1-2,0.2-3,0.2l-1.4,0l-0.7,0l-0.3,0l-0.3,0l-0.2,0l-2.9-0.1
		c-3.9-0.3-7.9-0.9-11.6-2.4c-3.8-1.4-7.4-3.7-10.1-6.9c-1.3-1.6-2.5-3.4-3.3-5.4c-0.2-0.5-0.4-1-0.5-1.5l-0.2-0.8
		c-0.1-0.3-0.1-0.6-0.2-0.9l-0.1-0.5l0-0.2l0-0.2l0-0.7l0-0.3l0-0.1l0-0.2l0-0.4l0-0.7c0.2-3.9,1-7.6,2.2-11.1
		c2.4-6.9,6.1-12.9,10.1-18.1c2-2.6,4.2-5,6.4-7.2c2.2-2.2,4.4-4.2,6.7-5.9c4.5-3.6,9-6.4,13.1-8.5c4.1-2.1,8-3.6,11.2-4.6
		c0.8-0.3,1.6-0.5,2.3-0.7c0.7-0.2,1.4-0.4,2-0.5c1.3-0.3,2.4-0.5,3.3-0.7c1.7-0.3,2.6-0.4,2.6-0.4L514,252.6z"/>
</g>
<g>
	<path class="st11" d="M330.6,334.6c0,44.2,51.6,15.6,51.6-22.9C382.3,287.9,330.6,294.5,330.6,334.6z"/>
	<path class="st12" d="M332.7,334.6c0,0,0,0.7,0,2c0.1,1.2,0.1,3,0.5,5.2c0.4,2.2,1.1,4.8,2.5,7.4c1.5,2.5,3.9,4.7,7.3,5.4
		c3.4,0.7,7.5-0.1,11.5-1.9c4-1.8,7.8-4.7,11.3-8.1c3.4-3.5,6.5-7.6,8.9-12.1c2.4-4.5,4.1-9.5,4.8-14.6c0.2-1.3,0.3-2.6,0.4-3.8
		c0.1-0.6,0-1.3,0.1-1.9l0-0.2c0-0.1,0,0.3,0,0.1l0-0.1l0-0.1l0-0.5l-0.1-1c-0.3-2.1-1.2-4.2-2.7-5.8c-1.5-1.6-3.6-2.7-5.8-3.3
		c-2.2-0.7-4.6-0.9-7-0.8c-4.7,0.1-9.3,1.5-13.2,3.4c-4,1.9-7.2,4.6-9.8,7.4c-2.6,2.8-4.4,5.9-5.6,8.7c-0.3,0.7-0.6,1.4-0.9,2.1
		c-0.2,0.7-0.4,1.4-0.6,2c-0.2,0.6-0.4,1.3-0.5,1.9c-0.1,0.6-0.3,1.2-0.4,1.7c-0.3,2.2-0.6,4-0.6,5.2
		C332.7,334,332.7,334.6,332.7,334.6L332.7,334.6z M328.6,334.6c0,0,0-0.7,0.1-2c0-1.3,0.2-3.3,0.6-5.8c0.1-0.6,0.3-1.3,0.4-1.9
		c0.1-0.7,0.3-1.4,0.5-2.1c0.2-0.7,0.4-1.5,0.7-2.3c0.3-0.8,0.6-1.6,0.9-2.4c1.4-3.2,3.4-6.7,6.3-10c2.9-3.2,6.6-6.3,11-8.5
		c4.4-2.3,9.5-3.8,15.1-4c2.7-0.1,5.6,0.1,8.4,0.9c2.8,0.8,5.6,2.2,7.9,4.5c2.3,2.3,3.6,5.4,4,8.7l0.1,1l0,0.5l0,0.1l0,0.3l0,0.3
		c0,0.7,0,1.4-0.1,2.1c-0.1,1.4-0.2,2.9-0.4,4.3c-0.8,5.7-2.8,11.1-5.4,16.1c-2.6,4.9-6,9.4-9.7,13.2c-3.8,3.8-8,6.8-12.6,8.9
		c-4.5,2.1-9.5,3.1-14.2,2.1c-2.3-0.5-4.4-1.5-6.1-2.9c-1.7-1.4-3-3-3.9-4.6c-1.9-3.2-2.6-6.3-3-8.8c-0.4-2.5-0.5-4.5-0.6-5.8
		C328.6,335.4,328.6,334.7,328.6,334.6L328.6,334.6z"/>
</g>
<g>
	<path class="st11" d="M182.4,332.8c12.2,0,20.7-13,20.7-20.5c0-10.8-10.8-18.3-18.8-11.1C168,315.7,175.1,332.8,182.4,332.8z"/>
	<path class="st12" d="M182.2,330.4c0,0,0.4,0,1.1-0.1c0.3,0,0.8,0,1.3-0.1c0.4-0.1,0.9-0.2,1.4-0.3c0.5-0.1,1.1-0.4,1.8-0.6
		c0.6-0.3,1.3-0.6,2.1-1c1.4-0.8,2.9-1.9,4.4-3.4c1.5-1.5,2.8-3.3,4-5.4c1.1-2,2-4.5,2.2-6.7l0-0.4l0-0.1l0,0c0-0.2,0,0.2,0,0.1
		l0-0.1l0-0.3l-0.1-1.1l0-0.5l-0.1-0.4l-0.2-0.8c-0.1-0.5-0.4-1.1-0.6-1.7l-0.4-0.8l-0.2-0.4l-0.2-0.4l-0.5-0.8
		c-0.2-0.2-0.4-0.5-0.6-0.7c-0.4-0.5-0.8-0.9-1.3-1.3c-0.9-0.7-1.9-1.4-3-1.7c-1.1-0.3-2.2-0.5-3.2-0.2l-0.4,0
		c-0.1,0-0.3,0.1-0.4,0.1c-0.3,0.1-0.5,0.2-0.8,0.2l-0.7,0.4c-0.3,0.1-0.5,0.2-0.7,0.4l-0.7,0.5l-0.2,0.1l0,0c0.1-0.1,0,0,0,0
		l-0.1,0l-0.1,0.1l-0.4,0.4l-0.8,0.8l-0.7,0.7c-0.9,0.9-1.8,2-2.6,3c-1.6,2.1-2.8,4.3-3.5,6.5c-0.8,2.2-1.1,4.4-1,6.4
		c0.1,2,0.5,3.8,1.1,5.2c0.6,1.4,1.4,2.4,2.1,3c0.7,0.6,1.3,0.8,1.6,0.9c0.4,0.1,0.5,0.1,0.5,0.1L182.2,330.4z M182.4,335.3
		c0,0-0.1,0-0.4,0c-0.3,0-0.7,0-1.2-0.2c-1-0.2-2.5-0.8-3.8-2c-1.3-1.1-2.5-2.8-3.5-4.8c-0.9-2-1.5-4.4-1.6-7
		c-0.1-2.6,0.2-5.4,1.1-8.2c0.9-2.8,2.3-5.6,4.1-8.1c0.9-1.3,1.9-2.5,3.1-3.7l0.9-0.9l0.8-0.8l0.4-0.4l0.1-0.1l0.1,0l0.1-0.1l0,0
		l0.3-0.2l1.1-0.8c2.9-2.3,7.4-3.1,11.1-1.8c1.9,0.5,3.5,1.6,5,2.8c0.7,0.6,1.4,1.2,1.9,2c0.3,0.4,0.6,0.7,0.8,1.1l0.7,1.1l0.3,0.6
		l0.3,0.6l0.6,1.2c0.3,0.8,0.6,1.6,0.8,2.5l0.2,1.4l0.1,0.7l0,0.5l0.1,1.1l0,0.3l0,0.1c0,0,0,0.3,0,0.2l0,0l0,0.2l0,0.7
		c-0.3,3.5-1.6,6.4-3,8.9c-1.4,2.5-3.1,4.7-5,6.4c-1.8,1.7-3.7,3.2-5.6,4.2c-0.9,0.5-1.8,0.9-2.7,1.2c-0.9,0.3-1.7,0.6-2.4,0.8
		c-0.8,0.2-1.5,0.3-2.1,0.4c-0.6,0.1-1,0.1-1.4,0.1c-0.7,0-1.1,0.1-1.1,0.1L182.4,335.3z"/>
</g>
<g>
	<path class="st11" d="M125.4,341.1c8.4,0,12.2-15,2.3-15C122.4,326,116.2,341.1,125.4,341.1z"/>
	<path class="st12" d="M125.3,339.7c0,0,0.2,0,0.5,0c0.2,0,0.6-0.1,1.1-0.2c0.9-0.3,2.2-0.9,3.3-2.3c0.6-0.7,1.1-1.5,1.4-2.5
		c0.4-1,0.6-2,0.5-3.1c0-1.1-0.3-2.1-1-2.8c-0.6-0.7-1.5-1.1-2.7-1.2c-0.6-0.1-1-0.1-1.4,0.1c-0.4,0.1-0.8,0.4-1.3,0.8
		c-0.8,0.7-1.5,1.7-2.1,2.7c-1.2,2-1.7,4.2-1.6,5.9c0.1,0.8,0.3,1.4,0.6,1.8c0.3,0.4,0.7,0.6,1.1,0.7c0.4,0.1,0.8,0.2,1,0.2
		C125.2,339.7,125.4,339.7,125.3,339.7L125.3,339.7z M125.4,342.5c0,0-0.2,0-0.6,0c-0.4,0-1-0.1-1.7-0.3c-0.7-0.2-1.7-0.7-2.5-1.6
		c-0.8-0.9-1.2-2.1-1.4-3.4c-0.1-1.3,0-2.5,0.3-3.8c0.3-1.3,0.8-2.6,1.5-3.8c0.7-1.2,1.6-2.4,2.8-3.5c0.6-0.5,1.3-1,2.2-1.3
		c0.2-0.1,0.5-0.1,0.7-0.2c0.1,0,0.3,0,0.4-0.1l0.3,0l0.4,0l0.3,0c0.2,0,0.4,0,0.6,0.1c1.6,0.2,3.4,0.9,4.5,2.3
		c1.2,1.4,1.6,3.1,1.6,4.6c0,1.5-0.3,2.9-0.8,4.2c-0.5,1.3-1.1,2.3-1.9,3.3c-1.5,1.9-3.4,2.9-4.8,3.2c-0.7,0.2-1.2,0.3-1.7,0.3
		C125.6,342.5,125.4,342.5,125.4,342.5L125.4,342.5z"/>
</g>
<g>
	<path class="st11" d="M74.1,318.5c-2,7-7.6,13.8-15.7,13.8c-5.6,0-7.7-6.4-6.8-13.2C58.4,319.2,65.9,319.2,74.1,318.5z"/>
	<path class="st12" d="M75.9,317.1l-0.9,3c-0.1,0.4-0.3,0.8-0.4,1.2c-0.3,0.8-0.7,1.6-1.1,2.4c-0.4,0.8-0.8,1.5-1.3,2.2
		c-0.5,0.7-1,1.4-1.6,2.1l-0.9,1c-0.3,0.3-0.7,0.6-1,0.9c-0.7,0.6-1.4,1.1-2.2,1.6c-0.4,0.2-0.8,0.5-1.2,0.7
		c-0.4,0.2-0.8,0.4-1.2,0.6c-0.8,0.4-1.7,0.6-2.6,0.8l-1.3,0.2c-0.4,0-0.9,0.1-1.4,0.1l-0.3,0l0,0l-0.1,0l-0.1,0l-0.2,0l-0.6,0
		c-0.4-0.1-1.1-0.2-1.6-0.4c-1-0.3-1.9-0.9-2.6-1.6c-0.7-0.7-1.3-1.5-1.8-2.3c-0.5-0.8-0.8-1.7-1-2.6c-0.1-0.4-0.2-0.9-0.3-1.3
		l-0.2-1.3c-0.1-0.9-0.1-1.8-0.1-2.6c0-0.9,0.1-1.7,0.2-2.6l0.2-1.3l1.3,0c3.7,0.1,7.5,0.1,11.2,0c3.7-0.1,7.5-0.2,11.2-0.5
		L75.9,317.1z M72.2,320c-3.1,0.3-6.2,0.5-9.3,0.6c-3.8,0.1-7.6,0.1-11.3,0.1l1.5-1.3c-0.1,0.8-0.1,1.5-0.2,2.3c0,0.8,0,1.5,0.1,2.3
		c0.1,0.7,0.2,1.5,0.4,2.2c0.2,0.7,0.4,1.4,0.8,2c0.3,0.6,0.7,1.1,1.2,1.6c0.5,0.4,1,0.8,1.5,1c0.1,0.1,0.3,0.1,0.4,0.1
		c0.1,0,0.2,0.1,0.4,0.1l0.6,0l0.2,0l0.1,0l0,0c0,0,0.1,0-0.1,0l0,0l0,0l0.3,0c0.4,0,0.7,0,1.1-0.1l1.1-0.2c0.7-0.2,1.4-0.3,2.1-0.6
		c0.4-0.1,0.7-0.3,1-0.4c0.3-0.2,0.7-0.3,1-0.5c0.6-0.4,1.2-0.8,1.8-1.3c0.3-0.3,0.6-0.5,0.8-0.8l0.8-0.8c0.5-0.6,1-1.2,1.4-1.8
		c0.4-0.6,0.9-1.3,1.2-1.9c0.4-0.7,0.7-1.4,1-2.1C72.1,320.2,72.2,320.1,72.2,320z"/>
</g>
<g>
	<path class="st11" d="M242.3,216.7c0,14.8-18.2,26.2-25.7,16.2c7.9-7.7,16.2-15.5,24.9-23.3C242,211.6,242.3,214,242.3,216.7z"/>
	<path class="st12" d="M244.7,216.8l0,1.2c0,0.4-0.1,0.9-0.1,1.4c-0.1,0.9-0.3,1.8-0.5,2.7c-0.2,0.9-0.5,1.7-0.8,2.6
		c-0.3,0.8-0.7,1.6-1.1,2.4l-0.6,1.2l-0.7,1.1c-0.5,0.7-1,1.5-1.6,2.1c-0.6,0.7-1.2,1.3-1.8,2c-0.6,0.6-1.3,1.2-2,1.8
		c-0.3,0.3-0.7,0.5-1.1,0.8c-0.4,0.3-0.7,0.5-1.1,0.7c-0.4,0.2-0.8,0.5-1.2,0.7c-0.4,0.2-0.8,0.4-1.2,0.6c-0.8,0.4-1.7,0.7-2.6,0.9
		c-0.9,0.3-1.9,0.4-2.9,0.5c-0.5,0-1,0-1.5,0c-0.5,0-1-0.1-1.5-0.2c-1-0.2-2-0.4-3-0.9c-1-0.4-1.9-1-2.7-1.6c-0.4-0.3-0.8-0.7-1.1-1
		c-0.3-0.4-0.7-0.8-1-1.2l-1.6-1.9l1.9-1.8l6.3-5.8c2.1-1.9,4.2-3.8,6.3-5.8c4.2-3.8,8.5-7.6,12.6-11.5l2.9-2.7l1,3.8
		C244.5,211.5,244.7,214.1,244.7,216.8L244.7,216.8z M240,216.7c0-2.2-0.3-4.4-0.8-6.5l3.9,1.1c-4.1,3.9-8.2,7.9-12.2,11.8
		c-2,2-4.1,4-6.1,5.9l-6.2,5.8l0.3-3.7l0.6,0.7c0.2,0.2,0.4,0.4,0.6,0.6c0.4,0.3,0.9,0.7,1.4,0.9c0.5,0.2,1,0.4,1.6,0.5
		c0.3,0.1,0.6,0.1,0.9,0.1c0.3,0,0.6,0,0.9,0c0.6,0,1.2-0.1,1.9-0.3c0.6-0.1,1.3-0.3,1.9-0.6c0.3-0.1,0.6-0.3,0.9-0.4
		c0.3-0.1,0.6-0.3,0.9-0.5c0.3-0.2,0.6-0.3,0.9-0.5c0.3-0.2,0.6-0.4,0.9-0.6c0.6-0.4,1.1-0.9,1.6-1.3c0.5-0.5,1-1,1.5-1.5
		c0.5-0.5,0.9-1.1,1.3-1.7c0.4-0.6,0.8-1.2,1.1-1.8c0.3-0.6,0.6-1.3,0.9-1.9c0.3-0.7,0.5-1.3,0.7-2c0.2-0.7,0.3-1.4,0.4-2
		c0-0.3,0.1-0.6,0.1-1L240,216.7L240,216.7z"/>
</g>
<g>
	<path class="st11" d="M471.9,140c-6.6,27-59.7,25.6-63-6c15.2-0.5,31.2,0.3,48.2,2.8C462.2,137.6,467.1,138.7,471.9,140z"/>
	<path class="st12" d="M475.2,138.1l-1.5,5.2c-0.4,1-0.8,2-1.2,2.9c-0.5,0.9-0.9,1.7-1.5,2.6c-0.6,0.8-1.1,1.6-1.8,2.4
		c-1.3,1.5-2.7,2.9-4.3,4c-0.8,0.6-1.6,1.2-2.4,1.6l-1.2,0.7c-0.4,0.2-0.9,0.4-1.3,0.7l-1.3,0.6c-0.4,0.2-0.9,0.4-1.3,0.5l-1.3,0.5
		l-1.4,0.4l-1.4,0.4L452,161l-1.4,0.3c-0.5,0.1-0.9,0.2-1.4,0.2c-0.9,0.2-1.9,0.3-2.8,0.4c-0.9,0.1-1.9,0.2-2.8,0.2
		c-0.9,0-1.9,0.1-2.8,0c-0.9,0-1.9,0-2.8-0.1c-3.7-0.3-7.5-1.1-11.1-2.3c-0.9-0.3-1.8-0.6-2.7-1c-0.9-0.4-1.8-0.8-2.6-1.2
		c-0.8-0.5-1.7-0.9-2.5-1.5c-0.8-0.6-1.6-1.1-2.4-1.7c-1.5-1.2-3-2.5-4.3-4c-1.3-1.5-2.4-3.1-3.4-4.9c-0.4-0.9-1-1.7-1.3-2.7
		c-0.3-0.9-0.8-1.8-1-2.8c-0.2-1-0.5-1.9-0.7-2.9l-0.4-2.9l-0.5-3.5l3.7-0.1c5.4-0.2,10.7-0.2,16.1,0c5.4,0.2,10.7,0.6,16,1.1
		c2.7,0.3,5.3,0.6,8,0.9c2.7,0.3,5.3,0.7,7.9,1.2l1,0.2l1,0.2l2,0.4c1.3,0.3,2.6,0.5,3.9,0.8c2.6,0.6,5.2,1.3,7.8,2L475.2,138.1z
		 M468.4,141.9c-1.6-0.4-3.2-0.7-4.8-1c-1.3-0.2-2.6-0.5-3.8-0.7l-1.9-0.3l-1-0.2l-0.9-0.1c-2.6-0.3-5.2-0.6-7.8-0.9
		c-2.6-0.3-5.2-0.5-7.8-0.7c-5.2-0.4-10.4-0.7-15.7-0.8c-5.2-0.1-10.4-0.1-15.6,0.1l3.2-3.7l0.4,2.3c0.1,0.8,0.4,1.5,0.6,2.2
		c0.5,1.4,1.1,2.8,1.8,4.2c0.7,1.3,1.6,2.5,2.6,3.7c0.5,0.6,1.1,1.1,1.6,1.6c0.5,0.5,1.2,1,1.8,1.5c0.6,0.5,1.3,0.9,1.9,1.3
		c0.6,0.4,1.3,0.8,2,1.2c0.7,0.4,1.4,0.7,2.1,1c0.7,0.3,1.5,0.6,2.2,0.9c3,1.1,6.2,1.7,9.4,2c0.8,0.1,1.6,0.1,2.4,0.1
		c0.8,0.1,1.6,0,2.4,0c0.8,0,1.6-0.1,2.4-0.1c0.8,0,1.6-0.2,2.4-0.3c0.4-0.1,0.8-0.1,1.2-0.2l1.2-0.3l1.2-0.3l1.1-0.3l1.1-0.3
		l1.1-0.4c0.4-0.1,0.7-0.3,1.1-0.4l1.1-0.5c0.4-0.2,0.7-0.3,1.1-0.5l1-0.6c0.7-0.4,1.3-0.8,2-1.3c1.3-0.9,2.4-1.9,3.5-3
		c0.6-0.5,1-1.2,1.5-1.8c0.5-0.6,0.8-1.3,1.2-1.9L468.4,141.9z"/>
</g>
<g>
	<path class="st11" d="M669.7,309.1c-6.3,8.6-16.5,15.4-28.2,15.4c-20.1,0-21.6-31.1-2-43.9C649.4,291.1,659.3,300.8,669.7,309.1z"
		/>
	<path class="st12" d="M671.6,310.6c-1.1,1.5-2.4,3.2-3.8,4.6c-1.4,1.5-2.8,2.9-4.4,4.1c-1.6,1.3-3.3,2.4-5,3.4
		c-1.8,1-3.6,1.9-5.6,2.6c-1.9,0.7-3.9,1.3-6,1.6c-1,0.2-2.1,0.3-3.1,0.4l-1.6,0.1l-0.4,0l-0.2,0l-0.1,0l0,0l-0.2,0l-0.7,0l-0.7,0
		l-0.4,0l-0.4-0.1c-0.6-0.1-1.2-0.2-1.8-0.3l-1.6-0.4c-0.5-0.1-1.1-0.4-1.6-0.6c-2.1-0.9-4.1-2.2-5.6-3.9c-1.6-1.6-2.8-3.5-3.7-5.6
		c-0.9-2-1.5-4.1-1.8-6.2c-0.3-2.1-0.4-4.2-0.3-6.3c0.1-2.1,0.4-4.2,1-6.2c0.6-2,1.2-4,2.1-5.9c0.9-1.9,1.9-3.7,3.2-5.4
		c0.6-0.9,1.3-1.6,1.9-2.5c0.7-0.8,1.4-1.6,2.2-2.2c1.5-1.5,3.2-2.7,4.9-3.9l2.1-1.4l1.7,1.9c4.7,5,9.4,10,14.4,14.8
		c2.5,2.4,4.9,4.8,7.5,7.1c2.5,2.3,5.1,4.6,7.7,6.8l1.8,1.5L671.6,310.6z M666.3,309.5c-2.1-1.7-4.2-3.3-6.2-5
		c-2.7-2.3-5.3-4.6-7.8-7c-5.1-4.8-10.1-9.7-14.9-14.7l3.8,0.5c-1.4,1-2.8,2-4,3.2c-0.6,0.6-1.2,1.2-1.8,1.9c-0.5,0.7-1.1,1.3-1.6,2
		c-1,1.4-1.8,2.9-2.6,4.4c-0.7,1.5-1.3,3.2-1.7,4.8c-0.5,1.6-0.7,3.3-0.8,5c-0.1,1.7-0.1,3.4,0.2,5c0.5,3.3,1.7,6.4,3.8,8.5
		c1,1.1,2.3,1.9,3.6,2.5c0.4,0.1,0.7,0.3,1.1,0.4l1.1,0.3l1,0.2l0.3,0l0.4,0l0.7,0l0.7,0l0,0c0.1,0-0.2,0-0.1,0l0,0l0.1,0l0.2,0
		l0.3,0l1.3,0c0.9-0.1,1.7-0.1,2.6-0.3c1.7-0.2,3.4-0.7,5-1.2c1.6-0.6,3.2-1.3,4.8-2.1c1.5-0.8,3-1.8,4.4-2.8c1.4-1,2.8-2.2,4-3.5
		C664.9,311,665.6,310.2,666.3,309.5z"/>
</g>
<g>
	<path class="st11" d="M670.3,364.5c0,1.4,3,4.1,7.7,4.1c8.4,0,14.7-8.8,14.7-12.5C692.6,343.8,670.3,353.9,670.3,364.5z"/>
	<path class="st12" d="M671.3,364.3c0,0,0,0.1,0,0.2c0,0,0,0.1,0,0.1c0,0,0,0,0,0c0,0,0,0,0,0.1c0.1,0.2,0.4,0.7,1,1.1
		c0.6,0.4,1.4,0.9,2.4,1.2c1,0.3,2.3,0.5,3.5,0.4c0.4,0,0.7-0.1,1.1-0.1c0.3-0.1,0.6-0.1,1-0.2c0.3,0,0.7-0.2,1-0.3l0.5-0.2l0.5-0.2
		c1.4-0.6,2.8-1.5,4.1-2.7c1.3-1.2,2.4-2.5,3.3-4.1c0.5-0.8,0.8-1.6,1.1-2.3c0.1-0.4,0.2-0.8,0.2-1.1l0-0.1l0,0l0,0
		c0-0.1,0,0.1,0,0.1l0-0.2l0-0.4c0-0.2,0-0.5-0.1-0.7c-0.1-0.7-0.4-1.4-0.8-1.8c-0.4-0.5-1-0.8-1.7-1c-1.4-0.4-3.2-0.1-4.8,0.4
		c-3.2,1-6.1,2.7-8.2,4.5c-1,0.9-1.9,1.8-2.5,2.7c-0.6,0.9-1,1.7-1.3,2.5c-0.1,0.4-0.2,0.7-0.3,1c-0.1,0.3-0.1,0.5-0.1,0.7
		c0,0.4,0,0.6,0,0.6L671.3,364.3z M669.2,364.5c0,0,0-0.3,0-0.8c0-0.3,0.1-0.6,0.1-0.9c0.1-0.4,0.2-0.8,0.3-1.2c0.3-0.9,0.8-2,1.5-3
		c0.7-1.1,1.6-2.2,2.7-3.3c2.2-2.2,5.2-4.3,9.1-5.5c1-0.3,2-0.5,3-0.6c1.1-0.1,2.2-0.1,3.3,0.2c1.1,0.3,2.3,0.9,3.2,1.9
		c0.4,0.5,0.8,1.1,1,1.6c0.1,0.3,0.2,0.6,0.3,0.9l0.2,0.9c0.1,0.3,0,0.5,0.1,0.8l0,0.4l0,0.2c0,0,0,0.2,0,0.1l0,0l0,0.1l0,0.1
		c0,0.7-0.2,1.2-0.4,1.8c-0.4,1.1-0.9,2-1.4,2.9c-1.1,1.8-2.5,3.3-4,4.6c-1.5,1.3-3.1,2.3-4.8,3l-0.6,0.3l-0.6,0.2
		c-0.4,0.1-0.8,0.3-1.3,0.3c-0.4,0.1-0.9,0.2-1.3,0.2c-0.4,0-0.8,0-1.1,0.1c-1.7,0.1-3.1-0.2-4.4-0.6c-1.3-0.4-2.3-1-3.1-1.6
		c-0.8-0.6-1.3-1.3-1.6-1.9c-0.1-0.3-0.3-0.8-0.3-0.8c0-0.1,0-0.2,0-0.2L669.2,364.5z"/>
</g>
<g>
	<path class="st11" d="M576,296.7c-2,4-5.1,9-5.1,13.9c0,13.2,18.1,7.3,18.1-7C589,291.6,578.3,292.2,576,296.7z"/>
	<path class="st12" d="M577.1,297.3c0,0-0.5,0.9-1.3,2.6c-0.4,0.8-0.9,1.8-1.4,2.9c-0.5,1.1-1.1,2.4-1.5,3.8c-0.4,1.4-0.7,3-0.6,4.6
		l0,0.7l0.1,0.6c0,0.4,0.2,0.8,0.3,1.1c0.3,0.7,0.6,1.4,1.2,1.9c1,1,2.6,1.4,4.3,1.1c1.7-0.3,3.4-1.2,4.8-2.4
		c1.4-1.2,2.6-2.8,3.3-4.5c0.8-1.7,1.2-3.5,1.3-5.3l0-0.6l0-0.7c0-0.5,0-1-0.1-1.4c-0.2-0.8-0.2-1.6-0.5-2.3
		c-0.5-1.5-1.4-2.7-2.4-3.4c-1.1-0.7-2.3-0.9-3.3-0.9c-1.1,0.1-1.9,0.4-2.6,0.8c-0.6,0.4-1,0.8-1.2,1.1
		C577.2,297.1,577.1,297.3,577.1,297.3L577.1,297.3z M575,296.2c0,0,0.2-0.3,0.5-0.8c0.4-0.5,1-1.1,1.9-1.7c0.9-0.5,2.2-1,3.7-1.1
		c1.5-0.1,3.2,0.2,4.8,1.2c1.6,1,2.9,2.7,3.6,4.5c0.4,0.9,0.6,2,0.8,3c0.1,0.5,0.1,1,0.1,1.4l0.1,0.7l0,0.1l0,0.2l0,0.2l0,0.4
		c-0.1,2.1-0.5,4.3-1.4,6.4c-0.9,2.1-2.3,4-4,5.5c-1.7,1.5-3.8,2.7-6.2,3.1c-1.2,0.2-2.4,0.2-3.6-0.1c-1.2-0.3-2.4-1-3.2-1.9
		c-1.7-1.8-2.2-4.2-2.2-6.1c-0.1-2,0.3-3.8,0.8-5.4c0.5-1.6,1.1-2.9,1.7-4.1c0.6-1.2,1.1-2.2,1.5-3C574.5,297.1,575,296.2,575,296.2
		L575,296.2z"/>
</g>
<g>
	<path class="st11" d="M502.9,206.6c0,11.5,14.3,9.4,14.3-2.7c0-4.6-3.6-9.7-7.3-8.2C506.6,197,502.9,202.1,502.9,206.6z"/>
	<g>
		<path class="st12" d="M504.2,206.5c0,0,0,0.2,0,0.6c0,0.4,0.1,0.8,0.2,1.4c0.1,0.6,0.3,1.3,0.7,2c0.4,0.7,1,1.3,1.7,1.8
			c0.4,0.2,0.9,0.4,1.3,0.4c0.5,0.1,1,0.1,1.6,0c1.1-0.2,2.2-0.7,3.1-1.6c0.9-0.9,1.7-2,2.1-3.3c0.5-1.3,0.7-2.8,0.6-4.2
			c0-0.2,0-0.4,0-0.6l-0.1-0.5c0-0.3-0.1-0.7-0.2-1c-0.2-0.7-0.5-1.3-0.8-1.9c-0.6-1.2-1.6-2.2-2.5-2.6c-0.5-0.2-0.9-0.2-1.3-0.1
			c-0.1,0-0.2,0.1-0.3,0.1l-0.4,0.2c-0.3,0.2-0.4,0.2-0.7,0.4c-1,0.7-1.8,1.5-2.5,2.4c-1.4,1.8-2.1,3.5-2.4,4.7
			c-0.1,0.3-0.1,0.6-0.2,0.8c0,0.2-0.1,0.4-0.1,0.6C504.2,206.4,504.2,206.6,504.2,206.5L504.2,206.5z M501.5,206.6c0,0,0-0.2,0-0.7
			c0-0.2,0-0.5,0.1-0.8c0-0.3,0.1-0.7,0.2-1.1c0.4-1.6,1.2-3.6,2.8-5.8c0.8-1.1,1.8-2.1,3.1-3c0.3-0.2,0.8-0.5,1.1-0.7l0.6-0.3
			l0.7-0.2c1-0.2,2.1-0.1,3.1,0.3c1.9,0.8,3.1,2.3,4,3.9c0.4,0.8,0.8,1.6,1,2.5c0.1,0.5,0.2,0.9,0.3,1.4l0.1,0.7l0,0.6
			c0,1.9-0.2,3.6-0.8,5.3c-0.6,1.7-1.6,3.2-3,4.4c-1.3,1.2-2.9,2-4.6,2.3c-0.8,0.1-1.7,0.1-2.5,0c-0.8-0.1-1.6-0.4-2.2-0.8
			c-1.3-0.7-2.3-1.9-2.8-2.9c-0.6-1-0.8-2-1-2.8c-0.1-0.8-0.2-1.5-0.2-1.8C501.5,206.8,501.5,206.6,501.5,206.6L501.5,206.6z"/>
	</g>
</g>
<g>
	<path class="st11" d="M332.7,194.2c8.7,0,16-19.8,3.9-19.8C326.3,174.5,322.2,194.2,332.7,194.2z"/>
	<path class="st12" d="M332.6,192.9c0,0,0.2,0,0.6,0c0.2,0,0.3-0.1,0.6-0.1c0.2,0,0.5-0.2,0.8-0.2c0.6-0.3,1.3-0.7,2-1.3
		c0.7-0.6,1.5-1.4,2.2-2.4c0.7-1,1.3-2.2,1.8-3.5c0.5-1.3,0.9-2.8,0.9-4.2c0.1-1.5-0.3-2.9-1.1-3.8c-0.4-0.5-1-0.8-1.6-1
		c-0.6-0.2-1.4-0.3-2.1-0.3c-0.2,0-0.9,0-1.1,0.1l-0.5,0.1l-0.5,0.2c-0.7,0.3-1.3,0.6-1.9,1c-1.2,0.9-2.2,2.1-2.9,3.4
		c-1.5,2.6-2,5.6-1.7,7.9c0.2,1.1,0.6,2.1,1.1,2.7c0.5,0.7,1.1,1,1.6,1.2c0.3,0.1,0.5,0.2,0.8,0.2c0.2,0.1,0.4,0.1,0.6,0.1
		C332.5,192.9,332.7,192.9,332.6,192.9L332.6,192.9z M332.7,195.6c0,0-0.3,0-0.8,0c-0.2,0-0.5,0-0.9-0.1c-0.4,0-0.8-0.2-1.2-0.3
		c-0.9-0.3-2-1-2.8-2.1c-0.8-1.1-1.4-2.5-1.7-4c-0.5-3,0.1-6.5,1.8-9.7c0.9-1.6,2.1-3.2,3.7-4.4c0.8-0.6,1.7-1.1,2.7-1.5l0.8-0.2
		c0.3-0.1,0.6-0.1,0.8-0.2c0.7-0.1,0.8-0.1,1.5-0.1c1,0,2.1,0.1,3.1,0.5c1,0.4,2,1,2.8,1.8c0.8,0.9,1.2,1.9,1.5,2.9
		c0.3,1,0.3,2,0.3,2.9c-0.1,1.9-0.5,3.6-1.1,5.1c-0.6,1.5-1.4,2.9-2.2,4.1c-0.8,1.2-1.8,2.2-2.7,2.9c-0.9,0.8-1.9,1.3-2.7,1.7
		c-0.5,0.1-0.8,0.3-1.2,0.4c-0.4,0.1-0.8,0.2-0.9,0.2C333,195.5,332.7,195.6,332.7,195.6L332.7,195.6z"/>
</g>
<g>
	<path class="st11" d="M359.9,181.7c8.2,0,9-16.1,4.1-16.1C356.8,165.5,351.8,181.7,359.9,181.7z"/>
	<path class="st12" d="M359.8,180.3c0,0,0.2,0,0.5,0c0.1,0,0.2,0,0.3,0c0.1,0,0.1,0,0.2,0c0.1,0,0.1,0,0.2,0c0.1,0,0.2-0.1,0.3-0.1
		c0.4-0.1,0.9-0.4,1.4-0.8c0.5-0.4,1-1,1.4-1.8c0.9-1.5,1.5-3.7,1.5-6c0-1.1-0.1-2.3-0.5-3.3c-0.2-0.5-0.5-0.9-0.7-1
		c-0.1-0.1-0.2-0.1-0.3-0.1c0,0-0.1,0-0.1,0l0,0l0,0c0.2,0,0,0,0.1,0l0,0l-0.1,0l-0.5,0c-0.3,0.1-0.9,0.2-1.3,0.5
		c-0.5,0.3-0.9,0.6-1.3,1c-0.8,0.8-1.5,1.8-2,2.8c-1.1,2-1.6,4.2-1.6,5.9c0,0.8,0.2,1.5,0.5,2c0.3,0.5,0.6,0.7,0.9,0.9
		c0.2,0.1,0.3,0.1,0.5,0.2c0.2,0,0.3,0.1,0.4,0.1C359.8,180.3,359.9,180.3,359.8,180.3L359.8,180.3z M359.9,183c0,0-0.2,0-0.6,0
		c-0.2,0-0.4,0-0.7-0.1c-0.3,0-0.6-0.2-1-0.3c-0.7-0.3-1.6-0.9-2.2-1.9c-0.6-1-0.9-2.1-1-3.3c-0.1-2.4,0.5-5,1.8-7.5
		c0.7-1.2,1.5-2.4,2.6-3.5c1.2-1.1,2.5-2,4.4-2.3l0.5,0l0.1,0l0,0l0.1,0l0,0l0.1,0l0.4,0c0.3,0,0.6,0.1,0.8,0.2
		c0.3,0.1,0.5,0.3,0.7,0.4c0.9,0.7,1.3,1.5,1.6,2.3c0.6,1.5,0.7,3,0.7,4.4c0,2.8-0.7,5.4-1.9,7.4c-0.6,1-1.3,1.9-2.1,2.5
		c-0.8,0.7-1.6,1.1-2.3,1.3c-0.2,0.1-0.3,0.1-0.5,0.2c-0.2,0-0.3,0.1-0.5,0.1c-0.2,0-0.3,0-0.4,0.1c-0.1,0-0.2,0-0.3,0
		C360.2,183,360,183,359.9,183L359.9,183z"/>
</g>
<g>
	<path class="st11" d="M247.2,303.9c-10.9,0-17.3,20.3-8.8,20.3C251,324.2,253,303.9,247.2,303.9z"/>
	<path class="st12" d="M247.2,305.3c0,0-0.3,0-0.6,0c-0.3,0-0.8,0.1-1.5,0.3c-1.3,0.4-3.1,1.3-4.7,3.1c-1.7,1.8-3.2,4.4-4,7.3
		c-0.4,1.5-0.6,3.1-0.4,4.5c0.1,0.7,0.4,1.3,0.7,1.7c0.3,0.4,0.8,0.6,1.4,0.6c1.5,0.1,3-0.3,4.3-1c1.3-0.7,2.5-1.7,3.4-2.9
		c1.8-2.4,2.7-5.3,3-7.7c0.1-1.2,0.1-2.3,0-3.3c-0.1-0.9-0.4-1.7-0.7-2.1c-0.3-0.4-0.5-0.5-0.7-0.6
		C247.3,305.3,247.2,305.3,247.2,305.3L247.2,305.3z M247.2,302.6c0,0,0.1,0,0.3,0c0.2,0,0.4,0,0.7,0.1c0.7,0.2,1.6,0.7,2.2,1.6
		c0.6,0.9,1,2,1.2,3.2c0.2,1.2,0.2,2.6,0.1,4c-0.1,1.4-0.5,3-1,4.5c-0.6,1.6-1.3,3.1-2.4,4.6c-1.1,1.5-2.6,2.8-4.4,3.8
		c-1.8,0.9-3.8,1.3-5.9,1.3c-1.2-0.1-2.5-0.6-3.3-1.6c-0.8-1-1.2-2.1-1.4-3.1c-0.3-2.1,0-4,0.5-5.7c1-3.5,2.8-6.4,4.8-8.5
		c2-2.1,4.3-3.4,6-3.8c0.9-0.2,1.5-0.3,2.1-0.4C247,302.6,247.1,302.6,247.2,302.6L247.2,302.6z"/>
</g>
<g>
	<path class="st11" d="M422.4,374c0,17.3,20.6,9.2,20.6-5.2c0-7.1-4.7-11.1-8.8-11.1C429.5,357.6,422.4,365.3,422.4,374z"/>
	<path class="st12" d="M423.7,374c0,0,0,0.3,0,0.8c0,0.6,0.1,1.3,0.2,2.1c0.2,0.9,0.5,1.9,1.1,2.9c0.6,1,1.5,1.9,2.8,2.3
		c1.3,0.4,2.9,0.3,4.6-0.2c0.8-0.3,1.6-0.7,2.4-1.2c0.8-0.5,1.6-1.1,2.3-1.8c1.4-1.4,2.6-3,3.4-4.9c0.4-0.9,0.7-1.9,0.9-2.9
		c0.1-1,0.2-2,0.2-3.1l0-0.4l-0.1-0.4l-0.1-0.7c-0.1-0.5-0.2-1-0.4-1.5c-0.3-1-0.7-1.9-1.3-2.6c-1.1-1.6-2.7-2.8-4.4-3.1
		c-0.2,0-0.4-0.1-0.6-0.1l-0.3,0l-0.1,0l0,0l0,0c0,0,0.2,0,0.1,0l-0.2,0c-0.2,0-0.6,0-0.8,0.1c-0.2,0.1-0.3,0.1-0.5,0.1
		c-0.7,0.3-1.6,0.7-2.3,1.2c-1.4,1-2.6,2.3-3.5,3.6c-0.9,1.3-1.6,2.6-2.1,3.8c-0.3,0.6-0.4,1.2-0.6,1.7c-0.1,0.5-0.3,1-0.4,1.5
		c-0.1,0.9-0.3,1.6-0.3,2.1C423.8,373.8,423.7,374,423.7,374L423.7,374z M421.1,374c0,0,0-0.3,0-0.9c0-0.6,0.1-1.4,0.3-2.5
		c0.1-0.5,0.3-1.1,0.4-1.7c0.2-0.6,0.4-1.3,0.7-2c0.5-1.4,1.3-2.9,2.4-4.4c1.1-1.5,2.4-3,4.1-4.3c0.9-0.7,1.9-1.2,3.1-1.6
		c0.3-0.1,0.7-0.2,1-0.3c0.3-0.1,0.5-0.1,0.8-0.1l0.2,0l0.2,0l0,0l0.1,0l0.1,0l0.5,0c0.3,0,0.6,0.1,1,0.1c2.5,0.5,4.7,2.2,6.2,4.3
		c0.7,1.1,1.3,2.2,1.7,3.5c0.2,0.6,0.3,1.2,0.5,1.9c0.1,0.6,0.2,1.4,0.2,1.9c0.1,1.2,0,2.5-0.2,3.7c-0.3,1.2-0.6,2.4-1.1,3.6
		c-0.9,2.3-2.4,4.3-4.1,5.9c-1.7,1.6-3.7,2.8-5.7,3.5c-2.1,0.7-4.3,0.9-6.3,0.2c-2-0.6-3.5-2.1-4.3-3.5c-0.8-1.4-1.2-2.8-1.4-3.8
		c-0.2-1.1-0.3-2-0.3-2.5C421.1,374.4,421.1,374.1,421.1,374L421.1,374z"/>
</g>
<g>
	<path class="st11" d="M566.7,379.7c10.1,0,15.8-18.9,6.8-18.9C560,360.8,555.7,379.7,566.7,379.7z"/>
	<path class="st12" d="M566.7,378.4c0,0,0.2,0,0.6,0c0.2,0,0.4,0,0.6-0.1c0.2,0,0.5-0.1,0.8-0.2c0.6-0.2,1.4-0.5,2.2-1.1
		c0.8-0.5,1.6-1.3,2.4-2.2c0.8-0.9,1.5-2.1,2.1-3.4c0.6-1.3,1-2.7,1.2-4.2c0.2-1.5,0-3-0.7-3.9c-0.3-0.4-0.8-0.7-1.4-0.8
		c-0.3-0.1-0.7-0.1-0.9-0.1c-0.4,0-0.9,0-1.3,0.1c-1.5,0.2-3.1,0.7-4.4,1.5c-1.4,0.8-2.5,1.8-3.5,3c-0.9,1.2-1.6,2.5-2,3.8
		c-0.4,1.3-0.5,2.6-0.4,3.7c0.1,1.1,0.6,2,1.1,2.6c0.5,0.6,1.2,0.9,1.7,1.1c0.1,0,0.3,0.1,0.4,0.1c0.1,0,0.3,0,0.4,0.1
		c0.2,0.1,0.5,0.1,0.6,0.1C566.5,378.4,566.7,378.4,566.7,378.4L566.7,378.4z M566.7,381.1c0,0-0.3,0-0.7,0c-0.2,0-0.5,0-0.9-0.1
		c-0.2,0-0.4-0.1-0.6-0.1c-0.2-0.1-0.4-0.1-0.6-0.2c-0.9-0.3-2-0.8-2.9-1.9c-0.9-1-1.6-2.5-1.8-4c-0.4-3.1,0.6-6.7,2.8-9.7
		c1.1-1.5,2.6-2.8,4.3-3.8c1.7-1,3.6-1.6,5.7-1.8c0.5-0.1,0.9,0,1.4-0.1c0.6,0,1.1,0,1.7,0.2c1.1,0.2,2.3,0.9,3,1.9
		c0.7,1,1.1,2,1.2,3.1c0.2,1,0.1,2,0,2.9c-0.2,1.9-0.8,3.6-1.4,5.1c-0.7,1.5-1.6,2.9-2.5,4c-0.9,1.1-2,2.1-3,2.7
		c-1,0.7-2,1.1-2.9,1.4c-0.4,0.1-0.8,0.2-1.2,0.3c-0.4,0.1-0.7,0.1-0.9,0.1C567,381.1,566.8,381.1,566.7,381.1L566.7,381.1z"/>
</g>
<g>
	<path class="st11" d="M602.8,238.5c-2,26-47.5,29.8-47.5-0.5c0-16.1,12.3-24.9,24.5-25.2C587.7,221.3,595.3,229.9,602.8,238.5z"/>
	<path class="st12" d="M605.3,237.8l-0.3,2.8c0,0.3,0,0.5-0.1,0.9l-0.2,1c-0.3,1.4-0.7,2.5-1.1,3.7c-1,2.4-2.4,4.6-4.1,6.5
		c-1.7,1.9-3.7,3.5-5.8,4.9c-2.1,1.4-4.4,2.4-6.8,3.2c-1.2,0.4-2.4,0.7-3.6,1c-1.2,0.2-2.5,0.4-3.7,0.5c-2.5,0.2-5.1,0.1-7.6-0.3
		c-2.5-0.4-5-1.2-7.4-2.4c-2.3-1.2-4.5-2.8-6.4-4.7c-0.4-0.5-0.9-1-1.3-1.5l-1.2-1.6c-0.7-1.2-1.4-2.3-1.8-3.6
		c-0.6-1.2-0.9-2.5-1.2-3.8c-0.2-0.6-0.2-1.3-0.3-1.9c-0.1-0.6-0.2-1.3-0.2-1.9l-0.1-1.9l0-0.2l0-0.1l0-0.1l0-0.2l0-0.4l0-0.9
		c0-0.6,0-1.1,0.1-1.7l0.3-2c0.2-1.4,0.6-2.5,0.9-3.8c0.2-0.6,0.4-1.2,0.7-1.8c0.2-0.6,0.5-1.2,0.8-1.8l0.9-1.7
		c0.3-0.6,0.7-1.1,1.1-1.6l0.5-0.8l0.6-0.8c0.4-0.5,0.8-1,1.3-1.5c1.8-1.9,3.8-3.5,6-4.9c2.2-1.3,4.6-2.3,7-3c2.5-0.7,5-1,7.5-1.1
		l1.3,0l0.8,0.9L605.3,237.8z M600.3,239.3l-22.6-24.5l2.2,0.9c-2,0.1-4,0.5-6,1c-1.9,0.6-3.8,1.5-5.5,2.5c-1.7,1.1-3.2,2.4-4.5,3.9
		c-0.3,0.4-0.6,0.8-0.9,1.2l-0.5,0.6l-0.4,0.6c-0.3,0.4-0.5,0.8-0.8,1.3l-0.6,1.3c-0.2,0.4-0.4,0.9-0.6,1.4
		c-0.2,0.5-0.4,0.9-0.5,1.4c-0.2,1-0.5,2-0.6,2.9c-0.1,0.5-0.1,0.9-0.2,1.4c0,0.5-0.1,1.1-0.1,1.7l0,0.9l0,0.4l0,0
		c0,0.2,0-0.2,0-0.1l0,0l0,0.1l0,0.2l0.1,1.5c0,0.5,0.1,1,0.1,1.5c0.1,0.5,0.1,1,0.2,1.5c0.2,0.9,0.4,1.9,0.8,2.8
		c0.7,1.8,1.6,3.5,2.9,4.9c1.3,1.4,2.8,2.6,4.5,3.5c1.7,0.9,3.6,1.6,5.6,2c2,0.4,4.1,0.5,6.1,0.4c1,0,2.1-0.2,3.1-0.3
		c1-0.2,2-0.4,3-0.7c2-0.6,3.9-1.4,5.7-2.4c1.7-1.1,3.4-2.3,4.8-3.8c1.4-1.5,2.5-3.2,3.3-5c0.4-0.9,0.8-1.9,1-2.8l0.2-0.7
		c0.1-0.2,0.1-0.5,0.1-0.8L600.3,239.3z"/>
</g>
<g>
	<path class="st11" d="M16.5,326.5c-5.2,2.6-2.5,13.3,4.6,13.3c11.6,0,13-17.7,4.5-17.7C22.7,322.1,19.6,324.9,16.5,326.5z"/>
	<path class="st12" d="M17.3,327.6c0,0-0.2,0.1-0.5,0.3c-0.2,0.1-0.4,0.3-0.5,0.4c0,0.1-0.1,0.1-0.2,0.2l-0.1,0.1l-0.1,0.2
		c-0.1,0.2-0.3,0.5-0.4,0.8c-0.1,0.3-0.2,0.7-0.3,1.1c-0.1,0.8,0,1.8,0.3,2.9c0.3,1,0.9,2.1,1.7,3c0.8,0.9,1.9,1.5,3.2,1.7
		c0.3,0,0.6,0.1,0.9,0.1c0.4,0,0.8,0,1.1-0.1c0.6-0.1,1.4-0.3,2-0.6c1.3-0.6,2.4-1.5,3.3-2.7c0.8-1.2,1.4-2.6,1.7-4.1
		c0.3-1.5,0.3-2.9-0.1-4.2c-0.4-1.3-1.1-2.3-2-2.7c-0.5-0.2-0.9-0.4-1.5-0.4l-0.2,0l0,0c-0.1,0,0.1,0,0.1,0l0,0l-0.1,0l-0.1,0
		c-0.2,0-0.4,0-0.4,0c-0.2,0-0.4,0.1-0.7,0.2c-1,0.3-2,0.8-2.9,1.3c-0.9,0.5-1.7,1-2.3,1.4c-0.6,0.4-1.2,0.7-1.6,0.9
		c-0.4,0.2-0.6,0.3-0.6,0.3L17.3,327.6z M15.9,325.3c0,0,0.2-0.1,0.5-0.3c0.3-0.2,0.8-0.5,1.4-0.9c0.6-0.4,1.4-0.9,2.3-1.5
		c0.9-0.6,2-1.2,3.5-1.7c0.4-0.1,0.7-0.2,1.2-0.3c0.3,0,0.4,0,0.6-0.1l0.1,0l0.1,0l0,0l0.1,0l0,0l0.3,0c0.9,0,1.8,0.2,2.6,0.7
		c1.8,0.9,2.9,2.6,3.5,4.4c0.5,1.8,0.6,3.7,0.2,5.6c-0.3,1.9-1.1,3.7-2.2,5.3c-1.1,1.6-2.7,2.9-4.5,3.7c-0.9,0.4-1.8,0.6-2.8,0.8
		c-0.5,0.1-0.9,0.1-1.3,0.1c-0.5,0-1-0.1-1.5-0.1c-1.9-0.3-3.7-1.3-4.8-2.6c-1.2-1.3-1.9-2.7-2.3-4.1c-0.4-1.4-0.5-2.8-0.3-4
		c0.1-0.6,0.2-1.2,0.4-1.7c0.2-0.5,0.4-1,0.7-1.4c0.2-0.4,0.6-0.8,0.9-1.1c0.3-0.3,0.5-0.4,0.7-0.5c0.3-0.2,0.5-0.3,0.5-0.3
		L15.9,325.3z"/>
</g>
<g>
	<path class="st11" d="M41,347.4c-6.9,13.8,6.3,11.3,6.3,1.3C47.4,346.6,43.3,342.9,41,347.4z"/>
	<path class="st12" d="M42.3,348c0,0-0.2,0.4-0.6,1.2c-0.3,0.7-0.8,1.8-1,3.1c-0.1,0.6-0.2,1.3-0.2,2c0,0.6,0.3,1.1,0.5,1.2
		c0.2,0.2,0.7,0.2,1.4-0.1c0.6-0.3,1.2-0.8,1.8-1.4c1-1.2,1.6-2.9,1.8-4.4c0-0.2,0-0.4,0-0.6l0-0.1l0-0.1c0,0,0,0.3,0,0.1l0,0l0,0
		l0,0l0-0.3c0,0-0.1-0.3-0.3-0.5c-0.3-0.5-0.8-0.9-1.2-1.1c-0.4-0.2-0.7-0.2-0.9-0.1c-0.2,0.1-0.5,0.2-0.7,0.5
		c-0.2,0.2-0.3,0.4-0.4,0.6C42.3,348,42.2,348,42.3,348L42.3,348z M39.8,346.8c0,0,0.1-0.1,0.2-0.4c0.1-0.2,0.3-0.6,0.7-1
		c0.4-0.4,1-1,1.8-1.3c0.9-0.3,2-0.2,3,0.2c0.9,0.4,1.7,1.1,2.4,2c0.3,0.5,0.6,0.9,0.8,1.8l0,0.3l0,0l0,0l0,0.2l0,0.1l0,0.2
		c0,0.3,0,0.5,0,0.8c-0.2,2.1-0.9,4.3-2.5,6.1c-0.8,0.9-1.7,1.7-2.9,2.1c-0.6,0.3-1.2,0.4-1.9,0.4c-0.7,0-1.5-0.2-2.2-0.6
		c-0.7-0.4-1.1-1.1-1.4-1.7c-0.3-0.6-0.3-1.2-0.4-1.7c-0.1-1.1,0.1-2,0.3-2.8c0.4-1.6,0.9-2.8,1.3-3.6
		C39.6,347.3,39.8,346.9,39.8,346.8L39.8,346.8z"/>
</g>
<g>
	<path class="st13" d="M756.5,425.2c0,0,0-0.1,0.1-0.2c0.1-0.2,0.1-0.1,0.1-0.3c0.1-0.3,0.3-0.8,0.4-1.7c0-0.2,0-0.5,0-0.7
		c0-0.1,0-0.3,0-0.4c0-0.2,0-0.3,0-0.5c0-0.6-0.1-1.4-0.1-2.3c-0.1-0.9-0.1-1.9-0.2-3.1c0-1.3,0-2.3,0.1-3.5
		c0.2-4.8,0.1-10.5-0.2-17.4c-0.1-3.5-0.3-7.2-0.5-11.2c-0.1-4-0.3-8.3,0.3-13.1c0.5-4.6,1.5-9.3,2.4-14.1c0.4-2.4,0.9-4.8,1.2-7.3
		c0.2-1.2,0.3-2.5,0.4-3.8c0-1.3,0.1-2.7-0.1-3.9c-0.1-0.6-0.2-1.3-0.4-1.4c0-0.1-0.1,0,0,0.1c0,0.1,0,0.1,0.1,0.2
		c0,0.1,0.1,0.1,0.2,0.2c0.3,0.3,0.4,0.2,0.3,0.3c-0.3,0.2-0.8,0.7-1.4,0.9c-0.6,0.3-1.3,0.5-2,0.7c-2.8,0.8-5.8,1.2-8.9,1.4
		c-1.5,0.1-3.1,0.1-4.6,0.1l-0.3,0l-0.4,0l-0.6,0l-1.1,0c-0.7,0-1.5-0.1-2.2-0.1l-1.1,0l-1.2-0.1c-0.8-0.1-1.6-0.1-2.4-0.2
		c-0.8-0.1-1.6-0.1-2.4-0.2c-0.8-0.1-1.6-0.2-2.4-0.4c-6.4-1-12.9-2.6-19.4-4.9c-6.4-2.3-12.8-5.4-19-9
		c-12.4-7.2-24.2-16.6-35.4-27.3c-22.5-21.3-43.2-47.5-66.2-73.8c-11.5-13.1-23.7-26.4-37-38.8c-13.4-12.4-28-24.1-44.4-33.4
		c-8.2-4.6-16.8-8.7-25.8-12c-9-3.3-18.3-5.7-27.9-7.2c-9.6-1.5-19.3-2.1-29.2-1.9c-5,0-9.9,0.2-14.9,0.5c-2.5,0.2-5,0.3-7.4,0.5
		c-2.5,0.2-5,0.5-7.4,0.7c-19.8,2.1-39.6,6.3-58.5,13c-19,6.7-37.1,16.1-53.8,27.4c-16.8,11.3-32.2,24.7-46.8,38.7
		c-14.6,14-28.5,28.7-43,42.8c-7.2,7-14.6,13.9-22.2,20.4c-3.9,3.2-7.7,6.4-11.7,9.4c-2,1.5-4,3-5.9,4.6c-0.5,0.4-1,0.8-1.5,1.2
		c-0.5,0.4-1,0.7-1.4,1.2c-0.4,0.5-0.9,1-1.4,1.3c-0.5,0.4-1,0.7-1.6,1c-8.4,5.4-17.2,10.2-26.4,13.9c-9.2,3.8-18.6,6.6-28.2,8.6
		c-9.6,1.9-19.2,2.9-28.7,3.1c-2.4,0-4.8,0.1-7.1,0.1c-2.3,0-4.7-0.1-7-0.1c-4.7-0.1-9.3-0.1-13.8,0.1c-4.5,0.2-8.9,0.7-13,1.8
		c-2,0.6-4,1.4-5.8,2.3c-1.7,1-3.3,2.3-4.7,3.8c-2.7,3-4.6,6.8-5.8,10.9c-0.2,0.5-0.3,1-0.5,1.5c-0.2,0.5-0.5,1-0.7,1.5
		c-0.2,0.5-0.3,1-0.5,1.6c-0.1,0.5-0.3,1-0.4,1.6c-0.2,1.1-0.4,2.1-0.6,3.2c-0.2,1.1-0.3,2.1-0.5,3.2c-1.2,8.6-1.7,17.2-2.1,25.7
		c-0.3,8.5-0.4,16.9-0.5,25.1c0,4.1,0,8.2-0.1,12.3c0,1,0,2,0,3c0,0.5,0,1,0,1.5c0,0.5-0.2,1-0.2,1.5c0,2,0.2,4,0.5,6
		c0.1,1,0.6,2,0.6,3l0.1,0.7l0,0.4c0-0.2,0,0.1,0.1,0.2c0,0.2,0.1,0.2,0.1,0.2c0,0,0,0,0.1,0.1l0.2,0.5c0.7,1.3,1.7,3,2.8,4.5
		c2.3,3.1,4.6,6.7,6.2,10.2c3.5,7.1,6.1,14.1,8.8,20.9c2.7,6.7,5.4,13.3,8.9,18.9c1.8,2.8,3.7,5.3,5.9,7.4c2.2,2,4.7,3.4,7.4,4
		c0.7,0.1,1.3,0.3,2,0.3l1,0.1l0.3,0c-0.3,0,0.1,0,0.1,0l0.6,0l1.2-0.1c0.4,0,0.9,0,1.1-0.1c0.6-0.1,1.3-0.3,1.9-0.4
		c2.7-0.7,5.4-1.8,7.8-3.3c4.9-3,8.8-7.1,11.8-11.6c3-4.5,4.9-9.4,5.8-14.3c0.2-1.2,0.4-2.5,0.5-3.7c0.1-1.2,0.1-2.4,0.2-3.6l0-0.9
		c0-0.2,0,0,0-0.1l0-0.2l0-0.5c0-0.6,0-1.3-0.1-1.8c-0.1-1.1-0.2-2.2-0.4-3.4c-0.8-4.6-2-9-3.4-13.2c-1.3-4.2-2.8-8.2-4-12
		c-1.2-3.8-2.3-7.5-3.2-10.9c-1.7-6.9-2.3-13.2-1.9-18.2c0.4-5,1.6-8.8,2.5-11.2c0.5-1.2,0.9-2.1,1.2-2.7c0.3-0.6,0.4-0.9,0.4-0.9
		l2.6,1.1c0,0-0.1,0.3-0.3,0.9c-0.2,0.6-0.5,1.4-0.7,2.6c-0.6,2.3-1.2,5.7-1.2,10.3c0,2.3,0.2,4.8,0.6,7.6c0.4,2.8,1.1,5.8,2,9.1
		c1.8,6.5,4.7,13.8,7.6,22.4c1.4,4.3,2.9,8.9,3.7,14.1c0.2,1.3,0.4,2.6,0.5,4c0.1,0.7,0.1,1.3,0.1,2l0,0.5l0,0.2c0,0.1,0,0.3,0,0.3
		l0,1c-0.1,1.4-0.1,2.8-0.2,4.2c-0.2,1.4-0.4,2.8-0.6,4.2c-1.1,5.7-3.3,11.4-6.7,16.6c-3.4,5.2-8,10-13.8,13.5
		c-2.9,1.7-6.1,3.1-9.6,4c-0.9,0.2-1.9,0.3-2.8,0.5c-0.5,0.1-0.9,0.1-1.3,0.1l-1.2,0.1c-2,0.1-3.8-0.1-5.8-0.5
		c-3.8-0.9-7.3-3-10.1-5.5c-2.8-2.6-5-5.6-6.9-8.7C17,479.6,13.4,465.1,7,451.6c-1.6-3.4-3.4-6.4-5.7-9.6c-0.6-0.8-1.1-1.7-1.7-2.6
		c-0.5-0.9-1.1-1.9-1.5-3c-0.1-0.3-0.2-0.6-0.3-0.9c0-0.2-0.1-0.4-0.1-0.7c0-0.2-0.1-0.5,0-0.6c0-0.2,0-0.1,0-0.6l0-0.4l0.1-0.7
		c0-1,0.6-2,0.6-3c0.3-2,0.4-4,0.5-6c0-0.5-0.2-1-0.2-1.5c0-0.5,0-1,0-1.5c0-1,0-2,0-3c0-4.1,0-8.2-0.1-12.3c0-8.3,0-16.7,0.3-25.2
		c0.1-4.3,0.3-8.6,0.6-12.9c0.3-4.3,0.6-8.7,1.2-13.1c0.2-1.1,0.3-2.2,0.5-3.3c0.2-1.1,0.4-2.2,0.6-3.3c0.2-1.1,0.5-2.2,0.7-3.3
		c0-0.6,0.1-1.2,0.2-1.7c0.1-0.6,0.2-1.1,0.4-1.7c1.3-4.4,3.4-8.9,6.6-12.7c1.7-1.9,3.6-3.4,5.8-4.8c2.2-1.2,4.5-2.2,6.8-2.9
		c4.7-1.4,9.4-1.9,14.1-2.2c4.7-0.3,9.4-0.3,14-0.2c2.3,0,4.7,0,7,0c2.3,0,4.6-0.1,7-0.1c9.3-0.3,18.6-1.4,27.8-3.4
		c9.2-2,18.2-4.9,27-8.6c8.8-3.7,17.2-8.3,25.4-13.6c0.5-0.3,1-0.6,1.5-1c0.5-0.4,1-0.6,1.7-0.8c0.6-0.2,1.1-0.5,1.6-0.8
		c0.5-0.3,1.1-0.6,1.6-0.9c2.1-1.3,4.1-2.6,6.1-4.1c3.9-2.9,7.8-6.1,11.5-9.2c7.5-6.4,14.8-13.2,22-20.2c14.3-14,28.2-28.8,43-42.9
		c14.7-14.1,30.3-27.6,47.3-39.2c17-11.6,35.4-21.2,54.8-28.1c19.3-7,39.5-11.3,59.6-13.5c2.5-0.2,5-0.6,7.6-0.7
		c2.5-0.2,5-0.4,7.6-0.6c5-0.2,10.1-0.5,15.1-0.6c10-0.3,20.2,0.2,30.1,1.8c9.9,1.5,19.6,3.9,28.9,7.2c9.3,3.3,18.3,7.4,26.8,12.1
		c17,9.4,32.1,21.3,45.8,33.8c13.7,12.6,26,25.9,37.7,39.1c23.3,26.4,44,52.3,66.1,73.1c11,10.3,22.4,19.4,34.2,26
		c11.8,6.7,24,10.9,35.9,12.5c0.7,0.1,1.5,0.2,2.2,0.3c0.7,0.1,1.4,0.1,2.2,0.2c0.7,0.1,1.4,0.1,2.1,0.2l1.1,0.1l1.1,0
		c1.5,0,2.9,0.1,4.3,0.1c1.4,0,2.8-0.1,4.2-0.1c2.8-0.2,5.5-0.4,8.1-0.6c0.7,0,1.4,0,2.1,0c0.8,0,1.6,0.2,2.7,0.5
		c0.6,0.1,1.4,0.2,2.2,0.9c0.2,0.2,0.4,0.3,0.6,0.5c0.1,0.2,0.3,0.4,0.4,0.6c0.2,0.3,0.3,0.7,0.4,1c0.1,0.3,0.1,0.6,0.1,0.8
		c0,0.3,0,0.4,0,0.7c0,0.4,0,0.8,0,1.1c0,1.4,0,2.7,0,4.1c0,0.7,0,1.4,0.1,2c0,0.7,0,1.3,0,2c0,2.7-0.3,5.3-0.6,7.7
		c-0.6,5-1.3,9.6-1.6,13.8c-0.3,4.1,0.1,8.3,0.3,12.2c0.3,4,0.6,7.7,0.8,11.1c0.5,6.9,0.8,13,0.7,17.8c0,1.2,0,2.4,0,3.2
		c0.1,0.9,0.2,1.9,0.2,2.8c0.1,0.9,0.2,1.8,0.2,2.7c0,0.2,0,0.4,0,0.6c0,0.2,0,0.4,0,0.7c0,0.4,0,0.8-0.1,1.2
		c-0.1,1.6-0.5,2.9-0.8,3.7c-0.1,0.4-0.3,0.9-0.4,1c-0.1,0.1-0.1,0.2-0.1,0.2L756.5,425.2z"/>
</g>
<g>
	<path class="st14" d="M95.5,393.6c0,0,0.7,0,2-0.1c0.7,0,1.4-0.1,2.5-0.1c1,0,2.2-0.1,3.5-0.1c5.2,0,13,0.3,22.4,2.8
		c9.4,2.5,20.3,7.3,31.8,14.1c5.8,3.4,11.7,7.2,17.9,11.3c6.2,4,12.7,8.3,19.7,12.4c1.7,1,3.5,2,5.3,3c0.9,0.5,1.8,1,2.7,1.5
		c0.9,0.5,1.9,1,2.8,1.5s1.9,1,2.8,1.5c0.9,0.5,1.9,0.9,2.9,1.4c1.9,1,3.8,1.9,5.8,2.8c7.9,3.7,16.1,7.3,24.8,10.6
		c17.3,6.6,36,12.3,55.8,16.6c19.7,4.3,40.5,7.3,61.7,8.9c10.6,0.8,21.3,1.3,32,1.6c5.4,0.1,10.8,0.2,16.2,0.1l8.1-0.1l8.1-0.2
		c10.8-0.3,21.6-0.9,32.4-1.5c10.8-0.7,21.5-1.5,32.1-2.5c21.2-1.9,42.1-4.3,62.2-7c20.1-2.7,39.5-5.7,57.9-8.9
		c18.3-3.2,35.6-6.6,51.5-10.1c15.8-3.5,30.3-7.1,43-10.6c12.7-3.5,23.7-6.9,32.6-9.9c2.2-0.7,4.3-1.5,6.3-2.2c2-0.7,3.8-1.4,5.5-2
		c3.4-1.3,6.3-2.4,8.6-3.4c4.6-2,7.1-3,7.1-3l2.8,6.3c0,0-2.5,1.1-7.2,3.2c-2.4,1-5.3,2.1-8.8,3.5c-1.7,0.7-3.6,1.3-5.6,2.1
		c-2,0.7-4.1,1.6-6.4,2.3c-9,3.2-20.1,6.7-32.9,10.3c-12.8,3.6-27.4,7.3-43.3,10.8c-31.9,7.1-69.5,13.8-109.9,19.1
		c-20.2,2.6-41.2,5-62.6,6.9c-21.4,1.8-43.1,3.3-64.9,3.8l-8.2,0.1l-8.2,0c-5.5,0-10.9-0.1-16.3-0.3c-10.9-0.3-21.7-0.9-32.4-1.8
		c-21.4-1.8-42.4-5-62.4-9.5c-20-4.5-39-10.4-56.5-17.4c-8.7-3.5-17.1-7.2-25.1-11.1c-2-0.9-4-1.9-5.9-2.9c-1-0.5-1.9-1-2.9-1.5
		c-0.9-0.5-1.9-1-2.8-1.5c-0.9-0.5-1.9-1-2.8-1.5c-1-0.5-1.9-1-2.8-1.5c-1.8-1-3.6-2.1-5.4-3.1c-7-4.2-13.6-8.6-19.7-12.7
		c-6.2-4.1-12-8-17.6-11.3c-11.2-6.8-21.6-11.5-30.5-13.9c-8.9-2.5-16.3-2.8-21.2-2.7c-1.2,0.1-2.3,0.2-3.2,0.2
		c-0.9,0.1-1.8,0.2-2.4,0.3c-1.3,0.2-2,0.3-2,0.3L95.5,393.6z"/>
</g>
<g>
	<path class="st13" d="M84.4,386.2c0,0,0.2,0.2,0.5,0.7c0.3,0.5,0.7,1.2,1.2,2.1c0.5,0.9,1,2.1,1.5,3.4c0.5,1.3,1,2.9,1.5,4.6
		c1,3.4,2.2,7.4,3.2,11.7c1,4.3,2,9,2.6,13.7c0.1,0.7,0.1,1.1,0.2,1.9c0.1,0.7,0.1,1.3,0.1,1.9c0,1.3,0,2.5-0.2,3.8
		c-0.2,2.5-0.7,4.9-1.3,7.1c-1.2,4.5-3,8.4-4.6,11.7c-1.7,3.2-3.3,5.8-4.4,7.6c-1.2,1.8-1.9,2.7-1.9,2.7l-5.3-3.8
		c0,0,0.7-0.9,1.8-2.6c1.1-1.6,2.7-4,4.3-6.9c0.8-1.5,1.6-3.1,2.4-4.8c0.8-1.7,1.5-3.6,2.1-5.5c0.6-2,1.1-4,1.4-6.1
		c0.1-1,0.2-2.1,0.3-3.2c0-0.5,0-1.1,0-1.5c0-0.4-0.1-1.2-0.1-1.6c-0.8-9.1-2.5-18.2-4.2-24.9c-0.4-1.7-0.8-3.2-1.2-4.6
		c-0.3-1.4-0.6-2.6-0.8-3.6c-0.2-1-0.3-1.8-0.4-2.3c-0.1-0.6-0.1-0.9-0.1-0.9L84.4,386.2z"/>
</g>
<g>
	<path class="st13" d="M95.3,382.1C95.3,382,95.3,382.1,95.3,382.1l-0.1-0.1l-0.1-0.1l0,0c0,0,0,0,0,0s0,0,0,0l0,0l0,0
		c0,0,0,0,0,0.1c0.1,0.1,0.2,0.2,0.3,0.2l0.4-0.6c0.4,0.6,0.6,1.2,0.9,1.8c0.2,0.6,0.5,1.2,0.6,1.8c0.2,0.6,0.3,1.3,0.4,1.9
		c0.1,0.6,0.1,1.3,0.2,1.9l0,1.9l-0.1,2c-0.1,0.6-0.1,1.3-0.2,1.9c-0.1,0.7-0.3,1.3-0.4,1.9l-0.2,1l-0.3,0.9
		c-0.2,0.6-0.4,1.3-0.6,1.9l-0.8,1.8c-0.2,0.6-0.6,1.2-0.9,1.8c-0.3,0.6-0.6,1.2-1,1.7l-1.1,1.6c-0.4,0.6-0.8,1-1.2,1.5l-1.3,1.5
		l-3-3l1.2-1.3c0.4-0.4,0.8-0.8,1.1-1.3l1-1.4c0.4-0.4,0.6-1,0.9-1.4c0.3-0.5,0.6-1,0.9-1.5l0.7-1.5c0.2-0.5,0.4-1.1,0.6-1.6
		l0.3-0.8l0.2-0.8c0.1-0.6,0.4-1.1,0.4-1.7l0.3-1.7l0.2-1.7L95,389l0-1.8c0-0.6,0-1.2,0-1.8c0-1.2,0-2.4,0-3.6l0-0.6l0.4,0
		c0.1,0,0.3,0.1,0.4,0.2c0,0.1,0,0.1,0,0.1l0,0l0,0l0,0l0,0l0,0.1l0,0.1l0,0.1c0,0,0,0.1,0,0.2L95.3,382.1z"/>
</g>
<path class="st13" d="M96.6,399.5c0.2-0.6,0.4-1.2,0.6-1.8C96.9,398.3,96.8,398.9,96.6,399.5z M96,401.1c0.2-0.4,0.4-1.1,0.6-1.6
	C96.4,400.1,96.2,400.6,96,401.1z M93.4,406c0.2-0.3,0.2-0.3,0.2-0.4C93.6,405.7,93.5,405.9,93.4,406z"/>
<ellipse class="st15" cx="251.1" cy="408.4" rx="48" ry="36.7"/>
<ellipse class="st15" cx="569.2" cy="430.4" rx="49" ry="40.8"/>
<path class="st9" d="M232,546.3c-22-34.8-34.2-75.5-34.2-116.6c0-14.4-4.7-51,53.4-51c31.4,0,49.9,20,49.9,37
	c0,8.2-2.3,23.2-2.3,35.1c0,25.1,23.3,89,23.3,89c0,5-26.6,20.3-49.5,20.3c-11.1,0-35.4-6.4-46-20.6"/>
<path class="st9" d="M542.1,544.2c-15.4-16.6-23.7-41.1-25.6-64.4c-4.5-52.6,15.9-97.3,66.4-82.9c75.5,21.5,10.2,66,77,136
	c1.2,1.4,2.3,3.6,2.3,4.5c0,1-20.7,12.7-52.8,12.7c-18.9,0-38.3-3.4-57.7-6.9c-0.7-0.1-1.4-0.2-2.1-0.2
	C547.1,543,544.6,543.6,542.1,544.2z"/>
<g>
	<path class="st13" d="M198,408.6c0,0,0,2.2,0.1,6c0,1,0.1,2,0.1,3.2c0,0.6,0,1.2,0.1,1.8c0,0.6,0.1,1.3,0.1,1.9
		c0.1,1.3,0.3,2.7,0.4,4.2c0.1,1.5,0.3,3,0.4,4.6c0.2,1.6,0.3,3.3,0.5,5c0.2,1.7,0.4,3.5,0.6,5.4c0.1,0.9,0.2,1.9,0.3,2.8
		c0.1,0.9,0.3,1.9,0.4,2.9c0.3,1.9,0.5,3.9,0.8,5.9c0.3,2,0.6,4,1,6.1c0.3,2,0.8,4.1,1.1,6.2c0.4,2.1,0.8,4.2,1.3,6.3
		c0.5,2.1,0.9,4.2,1.5,6.3c0.5,2.1,1,4.2,1.6,6.2c0.6,2.1,1.2,4.1,1.7,6.1c1.3,4,2.5,8,3.9,11.7c1.3,3.8,2.8,7.4,4.2,10.8
		c0.7,1.7,1.5,3.3,2.2,4.9c0.4,0.8,0.7,1.6,1,2.3c0.4,0.7,0.7,1.5,1.1,2.2c1.4,2.9,2.7,5.5,4,7.8c1.2,2.3,2.3,4.3,3.3,5.9
		c1,1.6,1.7,2.9,2.2,3.7c0.5,0.9,0.8,1.3,0.8,1.3l-6.8,4.1c0,0-0.3-0.5-0.8-1.4c-0.5-0.9-1.3-2.2-2.2-3.9c-1-1.7-2-3.8-3.3-6.2
		c-1.3-2.4-2.5-5.2-3.9-8.2c-0.3-0.8-0.7-1.5-1.1-2.3c-0.3-0.8-0.7-1.6-1-2.4c-0.7-1.7-1.4-3.4-2.1-5.1c-1.3-3.6-2.8-7.3-4-11.2
		c-1.4-3.9-2.5-8-3.7-12.2c-0.5-2.1-1.1-4.2-1.6-6.3c-0.5-2.1-1-4.3-1.4-6.4c-0.5-2.1-0.8-4.3-1.2-6.5c-0.4-2.2-0.8-4.3-1.1-6.4
		c-0.3-2.1-0.6-4.3-0.9-6.4c-0.2-2.1-0.4-4.2-0.7-6.2c-0.2-2-0.3-4.1-0.4-6c-0.1-1-0.1-2-0.2-2.9c0-1-0.1-1.9-0.1-2.9
		c0-1.9-0.1-3.7-0.1-5.5c0-1.8,0-3.5,0-5.1c0-3.3,0.3-6.3,0.4-8.9c0-0.7,0-1.3,0.1-1.9c0-0.6,0.1-1.2,0.1-1.8
		c0.1-1.1,0.1-2.2,0.2-3.1c0.2-3.8,0.3-6,0.3-6L198,408.6z"/>
</g>
<g>
	<path class="st13" d="M302,432.9c0,0-0.1,0.4-0.2,1.2c-0.1,0.8-0.2,2-0.4,3.5c-0.1,1.5-0.2,3.3-0.3,5.4c0,2.1-0.1,4.5,0.1,7
		c0.2,2.6,0.4,5.4,0.8,8.3c0.3,2.9,0.9,6,1.4,9.1c0.3,1.6,0.6,3.2,0.9,4.8c0.4,1.6,0.7,3.2,1.1,4.9c0.8,3.3,1.6,6.6,2.6,9.9
		c0.4,1.7,0.9,3.3,1.4,5c0.5,1.6,1,3.3,1.5,4.9c1,3.3,2,6.4,3,9.5c1,3.1,1.9,6.1,2.8,9c0.9,2.9,1.7,5.6,2.5,8.1
		c0.7,2.5,1.5,4.8,2,6.9c0.6,2.1,1.1,3.8,1.5,5.3c0.8,3,1.2,4.7,1.2,4.7l-7.7,1.8c0,0-0.4-1.7-1.1-4.6c-0.3-1.5-0.8-3.2-1.3-5.3
		c-0.5-2-1.2-4.3-1.8-6.8c-1.4-5-3.1-10.9-4.8-17.1c-0.9-3.2-1.7-6.4-2.6-9.8c-0.9-3.3-1.7-6.7-2.4-10.2c-0.8-3.4-1.4-6.9-2-10.3
		c-0.3-1.7-0.5-3.4-0.8-5.1c-0.2-1.7-0.4-3.4-0.6-5c-0.2-1.6-0.3-3.3-0.4-4.9c-0.1-1.6-0.2-3.2-0.2-4.7c-0.2-3.1,0-5.9,0.1-8.5
		c0.1-2.7,0.3-5.1,0.4-7.2c0.2-2.1,0.4-4,0.6-5.5c0.2-1.5,0.4-2.7,0.5-3.5c0.1-0.8,0.2-1.2,0.2-1.2L302,432.9z"/>
</g>
<g>
	<path class="st13" d="M518.8,441.2c0,0-0.1,6.5-0.4,16.3c-0.1,2.4-0.1,5.1-0.2,7.9c0,0.7,0,1.4,0,2.1c0,0.7,0.1,1.4,0.1,2.1
		c0.1,1.5,0.2,2.9,0.3,4.4c0.4,6,1,12.4,2,18.6c1,6.3,2.4,12.4,4.3,18c1.8,5.6,4,10.6,6.3,14.7c1.1,2.1,2.2,3.9,3.3,5.4
		c1,1.6,2,2.9,2.8,4c0.8,1.1,1.5,1.9,1.9,2.5c0.5,0.6,0.7,0.9,0.7,0.9l-6,5.1c0,0-0.3-0.3-0.8-1c-0.5-0.6-1.2-1.5-2.1-2.7
		c-1.8-2.4-4.2-5.9-6.6-10.5c-2.4-4.5-4.7-10-6.6-16.1c-1.8-6.1-3.3-12.6-4.1-19.3c-0.8-6.6-1.2-13.3-1.2-19.5
		c0-1.5,0.1-3.1,0.1-4.6c0.1-1.5,0.1-3,0.2-4.4c0.1-2.8,0.3-5.5,0.4-7.9c0.5-9.7,0.9-16.2,0.9-16.2L518.8,441.2z"/>
</g>
<g>
	<path class="st13" d="M626.5,433.1c0,0,0,0.4-0.1,1.2c-0.1,0.8-0.1,1.9-0.2,3.4c-0.1,1.5,0,3.3,0.1,5.3c0,1,0.1,2.1,0.1,3.3
		c0,0.3,0,0.6,0,0.9l0,0.2l0,0.1l0,0.1c0,0.1,0-0.1,0-0.1l0,0l0,0.5c0,0.6,0.1,1.3,0.1,1.9c0.1,1.3,0.1,2.7,0.3,4
		c0.1,1.3,0.3,2.7,0.4,4.1c0.1,1.4,0.4,2.9,0.6,4.4c0.1,0.7,0.2,1.5,0.3,2.3c0.1,0.8,0.3,1.5,0.4,2.3c0.5,3.1,1.3,6.2,2.1,9.5
		c0.4,1.6,0.9,3.2,1.4,4.8c0.5,1.6,1,3.2,1.5,4.8c0.5,1.6,1.1,3.2,1.7,4.7c0.6,1.6,1.2,3.1,1.8,4.7c0.3,0.8,0.6,1.5,0.9,2.3
		c0.3,0.8,0.7,1.5,1,2.2c0.7,1.5,1.3,3,2,4.4c0.7,1.4,1.4,2.8,2.1,4.2c0.7,1.4,1.4,2.7,2.1,4c0.7,1.3,1.4,2.5,2,3.7
		c0.7,1.2,1.3,2.4,2,3.5c1.3,2.2,2.5,4.2,3.6,6c1.1,1.8,2,3.3,2.9,4.6c1.6,2.5,2.6,3.9,2.6,3.9l-6.6,4.4c0,0-1-1.5-2.6-4
		c-0.9-1.3-1.8-2.9-3-4.7c-1.2-1.8-2.4-3.9-3.7-6.2c-0.7-1.1-1.3-2.3-2-3.6c-0.7-1.2-1.4-2.5-2.1-3.9c-0.7-1.3-1.4-2.7-2.2-4.1
		c-0.7-1.4-1.4-2.9-2.1-4.4c-0.7-1.5-1.4-3-2.1-4.6c-0.3-0.8-0.7-1.6-1-2.3c-0.3-0.8-0.7-1.6-1-2.4c-0.7-1.6-1.3-3.2-1.9-4.9
		c-0.6-1.7-1.2-3.3-1.8-5c-0.5-1.7-1.1-3.4-1.6-5.1c-0.5-1.7-0.9-3.4-1.4-5.1c-0.8-3.4-1.6-6.8-2.1-10.1c-0.1-0.8-0.3-1.6-0.4-2.4
		c-0.1-0.8-0.2-1.6-0.3-2.4c-0.2-1.6-0.4-3.1-0.5-4.7c-0.1-1.6-0.2-3.1-0.3-4.5c0-1.4,0-2.8,0-4.1c0-0.6,0-1.3,0-1.9l0-0.5l0-0.2
		l0-0.1l0-0.2c0-0.3,0-0.6,0.1-0.9c0.1-1.2,0.2-2.4,0.3-3.4c0.3-2.1,0.6-4,0.8-5.6c0.2-1.5,0.5-2.7,0.6-3.6c0.1-0.8,0.2-1.2,0.2-1.2
		L626.5,433.1z"/>
</g>
<g>
	<path class="st13" d="M214.5,485c0,0,0.1-0.5,0.2-1.4c0.2-0.9,0.4-2.3,0.8-3.9c0.2-0.8,0.4-1.7,0.8-2.6c0.4-0.9,0.9-1.9,1.7-2.8
		c0.7-0.9,1.8-1.7,2.9-2.4c1.1-0.6,2.4-0.9,3.7-1c0.3,0,0.6,0,0.9,0l0.5,0l0.2,0l0.2,0l0,0l0.1,0l0.8,0.1c0.3,0.1,0.7,0.1,1,0.2
		c1.2,0.3,2.3,0.8,3.3,1.4c1,0.5,1.8,1.2,2.6,1.8c0.7,0.6,1.4,1.2,2,1.8c0.6,0.6,1.1,1.1,1.5,1.6c0.4,0.5,0.8,0.9,1.1,1.3
		c0.5,0.8,0.7,1.3,0.7,1.3l-1,0.9c0,0-0.6-0.2-1.3-0.8c-0.4-0.3-0.8-0.7-1.2-1.1c-0.5-0.4-1-0.9-1.6-1.4c-1.2-1-2.5-2-4.1-2.7
		c-0.8-0.3-1.7-0.5-2.5-0.5l-0.6,0l-0.8,0l-0.6,0.1c-0.2,0-0.4,0-0.6,0.1c-0.8,0.2-1.6,0.4-2.3,0.7c-0.7,0.3-1.4,0.7-2,1.2
		c-0.6,0.5-1.2,1.1-1.7,1.7c-0.5,0.6-1,1.3-1.4,1.9c-0.7,1.3-1.2,2.5-1.5,3.3c-0.3,0.9-0.5,1.4-0.5,1.4L214.5,485z"/>
</g>
<g>
	<path class="st13" d="M221.3,493.3c0,0,0-0.1,0.1-0.4c0.1-0.2,0.2-0.4,0.3-0.6c0.1-0.2,0.3-0.4,0.5-0.7c0.4-0.5,0.9-0.9,1.6-1.3
		c0.6-0.4,1.3-0.7,2.1-0.9c0.7-0.2,1.5-0.3,2.2-0.4c0.3,0,0.7,0,1,0c0.3,0,0.6,0.1,0.9,0.1c0.6,0.1,1.1,0.3,1.4,0.5
		c0.3,0.2,0.5,0.3,0.5,0.3l-1.2,2.5c0,0-0.1,0-0.3-0.1c-0.2,0-0.5-0.1-0.9-0.2c-0.2,0-0.4-0.1-0.6-0.1c-0.2,0-0.4-0.1-0.7-0.1
		c-0.5-0.1-1.1-0.1-1.6,0c-0.6,0.1-1.1,0.2-1.6,0.3c-0.5,0.2-0.9,0.4-1.2,0.6c-0.1,0.1-0.3,0.2-0.4,0.4c-0.1,0.1-0.1,0.2-0.2,0.3
		c-0.1,0.2-0.2,0.4-0.2,0.4L221.3,493.3z"/>
</g>
<g>
	<path class="st13" d="M221.5,508.2c0,0,0.1,0.1,0.2,0.3c0.1,0.2,0.3,0.4,0.5,0.7c0.2,0.3,0.5,0.6,0.9,1c0.4,0.3,0.8,0.7,1.4,1
		c1,0.7,2.5,1.2,4,1.3c0.4,0,0.8,0,1.2,0c0.2,0,0.4,0,0.5-0.1c0.2-0.1,0.4-0.1,0.6-0.2c0.5-0.1,0.8-0.3,1.1-0.4
		c0.3-0.1,0.7-0.3,1-0.5c0.6-0.4,1.2-0.8,1.7-1.3c0.5-0.5,1-1,1.4-1.6c0.4-0.6,0.9-1,1.4-1.5c0.5-0.5,1-0.9,1.5-1.3
		c0.2-0.2,0.4-0.4,0.7-0.6c0.3-0.2,0.6-0.3,0.8-0.5c0.4-0.4,0.8-0.7,1-1c0.5-0.6,0.8-1,0.8-1l1.5,0.7c0,0-0.2,0.4-0.4,1.2
		c-0.1,0.4-0.2,0.9-0.3,1.5c-0.1,0.3-0.1,0.6-0.1,1c0,0.4-0.2,0.7-0.3,1c-0.2,0.7-0.5,1.5-1,2.2c-0.4,0.8-1,1.5-1.8,2.1
		c-0.8,0.6-1.7,1.2-2.7,1.6c-1,0.5-2,0.8-3.1,1c-0.5,0.1-1.1,0.1-1.6,0.1c-0.5,0-1.1,0-1.5-0.1c-0.2-0.1-0.4-0.1-0.7-0.1
		c-0.3,0-0.5-0.1-0.8-0.1c-0.5-0.1-0.9-0.1-1.4-0.2c-1.8-0.4-3.3-1.2-4.5-2.1c-0.6-0.4-1.1-0.9-1.4-1.3c-0.4-0.4-0.7-0.8-1-1.2
		c-0.3-0.4-0.4-0.6-0.5-0.8c-0.1-0.2-0.2-0.3-0.2-0.3L221.5,508.2z"/>
</g>
<g>
	<path class="st13" d="M529.4,501.2c0,0-0.1-0.1-0.2-0.4c-0.1-0.3-0.3-0.7-0.3-1.3c0-0.3,0-0.6,0-0.9c0-0.1,0-0.3,0-0.5
		c0-0.2,0.1-0.4,0.1-0.6c0.2-0.9,0.4-1.7,0.9-2.6c0.2-0.5,0.5-0.9,0.7-1.3c0.3-0.4,0.6-0.9,1-1.3c0.7-0.8,1.5-1.7,2.4-2.5
		c0.9-0.8,1.9-1.5,3-2.2c1.1-0.6,2.3-1.2,3.6-1.6c0.7-0.2,1.4-0.4,2.2-0.4l0.6-0.1l0.6,0c0.3,0,0.5,0,1,0c0.8,0.1,1.5,0.2,2.1,0.3
		c0.6,0.2,1.3,0.4,1.9,0.6c1.2,0.5,2.3,0.9,3.2,1.6c0.9,0.7,1.6,1.3,2.3,1.9c0.7,0.6,1.3,1.2,1.8,1.7c0.5,0.5,1,0.9,1.3,1.3
		c0.7,0.7,1.2,1,1.2,1L556,497c0,0-0.5-0.3-1.3-0.9c-0.8-0.6-2-1.4-3.4-2.2c-0.7-0.4-1.5-0.8-2.3-1.2c-0.8-0.4-1.5-1-2.3-1.4
		c-0.4-0.2-0.8-0.4-1.2-0.5l-0.6-0.2c-0.2-0.1-0.4-0.1-0.5-0.1c-0.1-0.1-0.5-0.1-0.7-0.1l-0.2,0l-0.1,0l-0.1,0l0,0
		c0.2,0,0.1,0,0.1,0l0,0l-0.3,0c-0.4,0-0.8,0.1-1.3,0.1c-0.9,0.2-1.8,0.5-2.8,0.9c-0.9,0.4-1.8,0.9-2.6,1.5
		c-0.8,0.5-1.5,1.1-2.2,1.7c-0.3,0.3-0.6,0.6-0.9,0.9c-0.3,0.3-0.6,0.6-0.8,0.9c-0.5,0.6-0.9,1.2-1.1,1.7c-0.1,0.1-0.1,0.2-0.2,0.3
		c-0.1,0.1-0.1,0.2-0.1,0.4c0,0.1-0.1,0.3-0.1,0.4l-0.1,0.2l0,0.1l0,0l0,0l0,0c0,0,0-0.2,0-0.1l0,0c-0.1,0.4-0.1,0.8-0.1,1
		c0,0.2,0,0.4,0,0.4L529.4,501.2z"/>
</g>
<g>
	<path class="st13" d="M536.7,520.3c0,0,0.1,0.1,0.2,0.3c0.1,0.2,0.4,0.4,0.7,0.7c0.3,0.3,0.7,0.6,1.1,0.9c0.4,0.3,1,0.7,1.6,1
		c0.6,0.3,1.3,0.6,2,0.8c0.8,0.2,1.6,0.3,2.4,0.3c0.8,0,1.6-0.1,2.4-0.2l0.1,0l0.1,0l0,0c0,0-0.3,0-0.1,0l0,0l0,0l0.4-0.1
		c0.2-0.1,0.5-0.1,0.7-0.2c0.4-0.1,0.5-0.2,0.8-0.4c0.3-0.2,0.6-0.3,0.8-0.5c0.3-0.2,0.5-0.3,0.8-0.5c0.6-0.3,1.1-0.8,1.7-1.3
		c0.5-0.5,1.1-1.1,1.5-1.7c0.5-0.6,0.9-1.2,1.2-1.8c0.7-1.2,1.3-2.2,1.9-2.9c0.5-0.7,0.9-1,0.9-1l2,0.9c0,0,0,0.5-0.1,1.4
		c-0.1,0.4-0.2,0.9-0.4,1.5c-0.2,0.6-0.4,1.2-0.6,1.9c-0.3,0.7-0.6,1.5-1,2.3c-0.4,0.8-0.8,1.7-1.4,2.6c-0.3,0.4-0.7,0.9-1,1.3
		c-0.4,0.4-0.8,0.8-1.3,1.2c-1,0.8-2.2,1.3-3.4,1.5c-0.6,0.1-1.4,0.2-2,0.2c-0.2,0-0.5,0-0.7-0.1l-0.4,0l0,0l0,0c0.1,0-0.2,0-0.2,0
		l0,0l-0.1,0l-0.2,0c-1.1-0.2-2.2-0.6-3.1-1.1c-0.9-0.5-1.7-1-2.4-1.6c-0.7-0.5-1.4-1-2-1.5c-1.2-1-2-1.9-2.6-2.6
		c-0.3-0.3-0.5-0.6-0.6-0.8c-0.1-0.2-0.2-0.3-0.2-0.3L536.7,520.3z"/>
</g>
<g>
	<path class="st13" d="M537,509.4c0,0,0-0.2,0.1-0.6c0.1-0.4,0.3-1,0.6-1.6c0.3-0.6,0.9-1.2,1.6-1.8c0.7-0.5,1.5-1,2.5-1.2
		c0.5-0.1,0.9-0.2,1.4-0.1c0.2,0,0.5,0,0.7,0.1c0.2,0,0.4,0.1,0.6,0.2c0.8,0.3,1.5,0.6,2.1,0.9c1.1,0.6,1.8,1.2,1.8,1.2l-0.8,1.2
		c0,0-0.2-0.1-0.5-0.3c-0.3-0.2-0.7-0.4-1.3-0.6c-0.5-0.3-1.2-0.5-1.8-0.7c-0.2,0-0.3-0.1-0.5-0.1c-0.2,0-0.2-0.1-0.5-0.1
		c-0.3,0-0.7,0-1,0.1c-1.4,0.3-2.6,1.2-3.3,2.1c-0.3,0.4-0.6,0.8-0.7,1.1c-0.1,0.3-0.2,0.5-0.2,0.5L537,509.4z"/>
</g>
<path class="st16" d="M40.9,405.2c-3.9,5.2-9.6,8.5-16.1,8.8c1.3-12.5-6-30.6-4.5-44c7.5-0.7,14,0.3,20,7.4
	C37.7,387.4,38.9,397.5,40.9,405.2z"/>
<path class="st17" d="M39.9,403.5c-3.3,4.6-8.3,7.5-14,7.7c1.2-11.1-5.2-27-3.9-38.8c6.5-0.6,12.1,0.3,17.3,6.5
	C37.2,387.7,38.2,396.7,39.9,403.5z"/>
<path class="st13" d="M22.4,370c-2.7,12.6,5.5,31.1,3.3,42.9c-0.4,2.3-1.2,4.3-2.6,5.9c-0.7-1.7-1.1-4.3-1.3-6.1c0-0.1,0-0.1,0-0.2
	c-2.8-27.4-5.1-26.2-6.9-37.6c-0.1-0.6-0.1-1.1-0.2-1.7c-0.7-10.1,6.2-16.4,12.5-17.1l1.5,4.2C25.1,362.8,23.3,366.1,22.4,370z"/>
<path class="st13" d="M44.6,412.9c0.2,1.2,0.4,1.7,0,2.2c-0.5-0.2-2.6-4.1-4.3-10.1c-2.1-7.4-3.5-17.8-0.5-28
	c0.9-3.2,2.3-6.3,4.2-9.3l1,0.5c-1.4,4.4-2.2,8.6-2.6,12.9c-0.5,5.9-0.2,12,0.6,19.1C43.4,404.1,44,408.3,44.6,412.9z"/>
<path class="st18" d="M29.1,391.6c0,2.6-1.7,4.9-4.1,5.9c-0.7-4.1-1.6-8.3-2.2-12.5C26.3,385.5,29.1,388.2,29.1,391.6z"/>
</svg>
