<?xml version="1.0" encoding="utf-8"?>
<!-- Generator: Adobe Illustrator 19.2.1, SVG Export Plug-In . SVG Version: 6.00 Build 0)  -->
<svg version="1.1" id="Layer_1" xmlns="http://www.w3.org/2000/svg" xmlns:xlink="http://www.w3.org/1999/xlink" x="0px" y="0px"
	 width="147.3px" height="141.4px" viewBox="0 0 147.3 141.4" style="enable-background:new 0 0 147.3 141.4;" xml:space="preserve"
	>
<style type="text/css">
	.st0{fill:#426F4A;}
	.st1{fill:#424743;}
</style>
<g id="legs_back">
	<g>
		<path class="st0" d="M123.1-10.7c4.4,3.2,27,4.8,23.9,13.3c-12.7,35.1-40.9,63.9-54.9,114.3c-2.7,9.7,1.9,47.8-45.8,47.8
			c-21.2,0-36.9-9.6-40.3-14.5C-3.9,135.7,55.2-60.4,123.1-10.7z"/>
	</g>
	<g>
		<path class="st1" d="M88.2,142.6l-4.9-1C93.1,92.5,113.8,46,143,7.3l4,3C118.2,48.5,97.9,94.2,88.2,142.6z"/>
	</g>
	<g>
		<path class="st1" d="M4.9,142.9L0,142.2C6.4,98.7,31.1,38.4,56.6,3.3l4,2.9C35.6,40.7,11.3,100.3,4.9,142.9z"/>
	</g>
</g>
</svg>
