<?xml version="1.0" encoding="utf-8"?>
<!-- Generator: Adobe Illustrator 19.2.1, SVG Export Plug-In . SVG Version: 6.00 Build 0)  -->
<svg version="1.1" id="Layer_1" xmlns="http://www.w3.org/2000/svg" xmlns:xlink="http://www.w3.org/1999/xlink" x="0px" y="0px"
	 width="753.4px" height="536.3px" viewBox="0 0 753.4 536.3" style="enable-background:new 0 0 753.4 536.3;" xml:space="preserve"
	>
<style type="text/css">
	.st0{display:none;}
	.st1{display:inline;fill:#00A651;}
	.st2{fill:#66A371;}
	.st3{fill:#345E2D;}
	.st4{fill:#7F56A3;}
	.st5{fill:#20844E;}
	.st6{fill:#10512D;}
	.st7{fill:#4E4D57;}
	.st8{fill:#00A651;}
	.st9{fill:#FFDCAE;}
	.st10{fill:#006838;}
	.st11{fill:#9474B4;}
	.st12{fill:#684685;}
	.st13{fill:#F79A70;}
	.st14{fill:#005830;}
	.st15{fill:#437F61;}
	.st16{fill:#F9ED32;}
	.st17{fill:#414042;}
</style>
<g id="plates">
</g>
<g id="plate_shadows">
</g>
<g id="legs_back">
</g>
<g id="body_fill">
	<g class="st0">
		<path class="st1" d="M766.7,425.5c-0.1-0.2-0.1-0.3-0.2-0.5c0.3-2.2-0.1-13.7-0.6-23.7c-0.4-7-0.7-13.3-0.9-14.9
			c-1.8-24.6,2.4-26.3,1.6-40.3c-0.2-7.7,2.3-11-11-10.3C724,338,698,326,674.1,306.9c-10.4-8.3-20.4-18-30.2-28.5
			c-12.3-13.1-24.5-27.4-37-41.8c-7.5-8.6-15.2-17.2-23-25.7c-30.5-32.5-64.8-61.8-109.7-73.5c-4.8-1.3-9.7-2.3-14.7-3.2
			c-17-2.5-33.1-3.4-48.2-2.8c-73.6,2.6-126.1,38.3-168.5,76.3c-8.7,7.8-16.9,15.6-24.9,23.3c-9.1,8.8-17.8,17.4-26.1,25.4
			c-48.3,46.1-86.3,57.1-115.2,59.6c-8.2,0.7-15.7,0.7-22.5,0.6c-37.7-0.5-53.7-3.5-53.1,94.9c0.2,14.4,0.5,12.2-0.2,17.8
			c-1.9,8.8,2.4,7.8,8.7,21.5c5.7,12.3,9.4,26.1,15.8,37.7c21,38.1,62.1,5.3,58.9-31.7c0.2-0.2,1.2-1.6,1.4-1.8
			c10.5-16.9,13.3-31.6,8.3-49.5c1.6-2.4,4.6-5.3,6.2-10.8c27.7-6.5,47.5-4.8,77.3,27.5c146.1,102.9,463.2,53,591.1,6.7L766.7,425.5
			z"/>
	</g>
	<g id="Layer_10">
	</g>
</g>
<g id="stomach">
</g>
<g id="spots_1_">
</g>
<g id="body">
</g>
<g id="legs_front_left">
</g>
<g id="eyes">
	<g>
		<path class="st2" d="M350.7,166.8c-15.6-20.4-39.6-45.3-39.6-71.3c0-17.4,2.8-8.7,38.5-85.4c15.9-34.1,69.9,59.4,69.9,80.3
			c0,28.8-25,45.2-14.8,69.1L350.7,166.8"/>
		<path class="st3" d="M350.1,167.3c-7-7.1-24.9-24.6-35.5-46.7C299.4,85.4,309,90,347.9,8.9c15.4-31.3,58.7,34.2,71.1,67
			c13.6,36.8-21.5,55.3-11.3,82.4l-5.9,2.5c-13.3-31.3,24.6-47.6,11.7-82.9c-8.2-22.1-36.9-72.1-52.7-73.1c0,0-0.2,0,0,0
			c-11.2,0.3-5.9,4.7-42.9,73.8c-16.1,29.8,16.2,59.3,33.3,87.7L350.1,167.3"/>
		<path class="st2" d="M460.9,148.9c-6.9-12.1-12.7-27.6-12.7-42c0-36.6,37.5-38.9,64.9-65.7c8-7.8,25-1.6,25,13.7
			c0,6.3-2,12.5-2,18.2c0,7.9,6.2,13.6,6.2,30.2c0,31.6-27.1,56.9-50.9,76.1L460.9,148.9"/>
		<path class="st3" d="M459.8,149.5c-2.1-3.1-8.5-11.1-12.2-27.5c-8.1-35.9,12.4-48.6,32-60.1c37.6-22.2,30.7-26.2,41.8-26.4
			c3.1-0.1,7.2,0.9,10.9,3.4c13.2,8.8,6.4,24.6,6.1,34.2l0,0c0,0,0,0.1,0,0c0.3,7,4.7,12.2,5.8,23.2c0.2,1.2,0.2,2.4,0.3,3.7
			c0,0.6,0,1.2,0.1,1.8c0,0.6,0,1.1,0,1.9c0,1.2,0,2.3-0.1,3.5s-0.2,2.4-0.3,3.6c-0.6,4.7-1.7,9.2-3.2,13.4
			c-8.5,23.3-29,41.9-48.1,57.4l-3.1-3.9c72.3-58.6,45.1-85.5,43.9-103.5c-0.4-8.5,9.3-32.6-12-33.7c0,0-0.2,0,0,0
			c-5.7,0.1-6,2.4-15,9.8c-35.6,28-75.9,26.4-44.7,98.3L459.8,149.5"/>
		<path class="st2" d="M547.7,190c3.1-27.1,21.6-56.3,50.3-56.3c6.8,0,15.7,2.5,16,2.5c5,0,10.4-4.5,16.1-4.5
			c5.9,0,10.1,4,10.1,10.9c0,10.6-13.8,21.1-15.5,48.6c-1.9,30-38.9,25.9-60.6,34.1L547.7,190"/>
		<path class="st3" d="M546.7,189.9c1.6-14,6-26.8,14.5-38c22.3-29.5,53.7-17.5,52.7-17.4c5-0.3,10.6-4.8,16.4-4.5
			c6.9,0.3,11.4,4.5,11.8,12.7c0,0,0,0.3,0,0.2c-0.9,12.1-12.9,21.8-15.1,45c-3.3,36.9-33.8,29.6-62.1,39.9l-1.8-4.7
			c21.1-7.3,57.6-5.2,59.3-30.1c3.8-36.8,17.6-39.8,15.7-52.6c-0.3-1.7-0.9-3.2-2.1-4.5c-6-6.2-14.6,1.7-21.8,2c-0.2,0-0.1,0-0.3,0
			s-0.3,0-0.5-0.1c-0.5-0.1-1.2-0.3-1.8-0.4c-37-8.8-57.8,20-62.9,52.7L546.7,189.9"/>
		<path class="st2" d="M604.4,271.8c5-23.3,23.4-53.5,49.5-53.5c8.7,0,12.3,2.9,16.3,2.9c4.2,0,8.6-2.1,12.8-2.1c5.1,0,8,3.4,8,7.1
			c0,1.7-17.2,28.2-20.7,31.9c-14.6,14.9-34.9,20.6-54.9,25.3L604.4,271.8"/>
		<path class="st3" d="M603.8,271.7c0.5-8.3,8.6-31.2,24.1-44.7c20.3-17.5,37.9-7.9,41.8-7.7c1.5,0.1,3.7-0.5,6.1-1
			c6.1-1.3,13.7-2.6,16.5,4.9c1,2.7,0.4,4.2-0.2,5.2c-20.3,40.5-38.9,48-76.4,57l-0.9-3.9c35.7-8.6,55-15.7,74.1-55.4v0.1V226l0,0
			c0-0.1,0-0.1,0,0.3c-0.5-9.1-12.5-3.4-18.7-3.2c-1.5,0-3.8-0.7-6.7-1.5c-7.6-2-19.5-4-33.5,7.9c-18,15.2-23.3,37.8-25.2,42.4
			L603.8,271.7"/>
		<path class="st2" d="M655.6,328.2c3.7-25.3,22.1-48.5,49.6-48.5c3.6,0,7.6-4.1,10.3-4.1c3.2,0,4.1,3.9,4.1,6.1
			c0,41-30.4,39.7-50.3,53.9L655.6,328.2"/>
		<path class="st3" d="M655,328.2c2.9-31.3,24.4-48.9,50.1-50.3c-0.1,0-0.1,0-0.1,0l0,0c3.5-0.2,6.5-3.9,10.4-4.2c0,0,0.1,0,0.2,0
			c0.1,0,0.1,0,0.1,0c10.5,0.8,7,31.3-9.6,44.3c-10.6,8.3-23.5,10.9-35.7,19.2l-2.3-3.3c13-8.8,25.5-11.2,35.7-19
			c15.3-12,16.3-37.4,11.5-37.5c-1.8,0.4-3.4,1.8-5.9,3c-7.8,3.6-38.9-3.8-53.3,47.9L655,328.2"/>
		<path class="st2" d="M250.4,209.6c-30.9-4.1-64.6-32.4-64.6-70.8c0-14.4,3-14.1,3-27.7c0-5.8-0.5-11.7-0.5-17.3
			c0-20,12.2-32.3,20.5-25c64.7,56.8,71.3,19.9,79.3,111.1L250.4,209.6"/>
		<path class="st3" d="M250.2,210.9c-37.3-4.1-74.4-38.4-64.5-89.6c3.2-16.2-6.1-46,13.6-56c2.9-1.2,4.6-1.1,4.2-1
			c7.7,0.2,10.6,9.1,38.9,27.1c35.5,22.9,41.4,13.8,48.2,88.2l-5,0.4c-5.7-62.6-9.4-63-33.3-77.1c-45.1-26.4-43.3-36.6-51-33.5
			c-13.2,6.8-10.5,28.7-10.3,36.9c0.5,14.3-1.4,16.8-2.3,23.1c-5.6,37.9,24.8,71.1,61.9,78.7L250.2,210.9"/>
		<path class="st2" d="M182.9,273.9c0.3,0,0.5-0.2,0.5-0.5c-66.9-3-60.6-57.6-62.3-63.8c-3.3-11.9-15-36.3,4.9-36.3
			c9.2,0,17,7.9,25.1,7.9c40.6,0,44.3,47,60.1,73.9L182.9,273.9"/>
		<path class="st3" d="M182.8,272.8c0.6-0.1-0.6-0.1-0.6,0.6l1.1,1.1c-37.2,0.4-61.2-18.7-63.9-58c-0.9-14.1-13.5-34.6-2.8-42.8
			c11.1-8.5,25.9,4.8,33.8,5.1c44.7,2.6,45.3,45,62.9,74.9l-4.3,2.5c-17.5-30.4-17.5-70.5-58.8-72.9c-9.5-0.5-17-9.3-26.9-7.6
			c-14.4,1.8-0.4,25.3,0.5,40.4c3.1,47.1,34.9,51.8,60.6,56.2c0,1,0.1,2.6-1.6,2.5L182.8,272.8"/>
		<path class="st4" d="M193.4,266.5c-51.1-9.1-50.5-35.8-44.6-32C164.8,244.8,177.6,257.6,193.4,266.5"/>
		<path class="st4" d="M196.6,256.8c-60.6-29.2-54.4-63.3-48.3-55.6C164.2,221.1,177.2,241.4,196.6,256.8"/>
		<path class="st4" d="M198.2,253.1c-9.6-9.6-21.6-22.1-21.6-36.1c0-2.2-0.1-3.7,2.1-3.7C186.9,213.4,186.4,240.8,198.2,253.1"/>
		<path class="st4" d="M253.4,198.8c-18.7-3.2-40.6-19.3-40.6-39.1c0-1,0-2.7,2-2.7c0.5,0,0.9,0.2,1.3,0.5
			C229.3,171.4,236.8,188.7,253.4,198.8"/>
		<path class="st4" d="M262.7,190.3c-33-19.1-43.8-64.6-43.8-74c0-0.9,1.3-2.1,2.6-2.1c1.7,0,3.2,1.7,3.9,3
			C237.2,142.4,246.5,168,262.7,190.3"/>
		<path class="st4" d="M270.4,185.8c-8.3-8-16.1-20.6-16.1-32.7c0-3.4,1.4-12.5,4.6-12.5c0.6,0,2.7,1.7,3,2.6
			C266.9,157,263.9,172.5,270.4,185.8"/>
		<path class="st4" d="M355.2,139.6c-12.6-9.4-28.5-23.7-28.5-40.4c0-3.8,0.6-10.4,4.5-10.4C339,88.9,332.9,99.8,355.2,139.6"/>
		<path class="st4" d="M372.2,136.8c-9.9-18.3-17.1-40.2-17.1-61.8c0-12,3.4-29.1,5.9-29.1C370.8,45.9,367.1,81.7,372.2,136.8"/>
		<path class="st4" d="M385.2,136.4c-0.9-7-2.5-15.2-2.5-23.1c0-16.5,9-24.3,12.5-24.3c4.4,0,5.8,6.3,5.8,10.3
			C401,113.2,385.2,126.9,385.2,136.4"/>
		<path class="st4" d="M468.7,142.9c-4.6-9.5-10.5-21.9-10.5-32.9c0-11.2,6.9-17.6,8.6-17.6c2.7,0,4.8,7.5,4.8,13.6
			C471.6,118.3,466.8,130.6,468.7,142.9"/>
		<path class="st4" d="M481.7,141.2c-7.4-41.5,16.1-66.8,22.3-66.8c4,0,6,3.1,6,6.6c0,2.1-0.7,4.2-1.9,6.2
			C497.7,104.6,487.4,121.8,481.7,141.2"/>
		<path class="st4" d="M494.7,146.9c-0.8-33.2,31.7-48.4,31.7-36.2c0,13.7-18.9,16.5-26.4,26.4C497.6,140.2,494.7,142.9,494.7,146.9
			"/>
		<path class="st4" d="M564,196.4c0.8-9.8,2.9-27.9,10.3-27.9c1.4,0,4.5,0.8,4.5,3.9C578.8,178.3,568.1,189.4,564,196.4"/>
		<path class="st4" d="M571.7,201.2c7.7-15.8,22.4-41,40.4-41c1.3,0,2.2,1.5,2.2,2.8c0,1.8-1.6,3.5-2.9,4.5
			C597.8,178.7,580.2,185.4,571.7,201.2"/>
		<path class="st4" d="M577.4,204.5c-3.7,2.9,9.5-14.2,23.6-14.2c3.6,0,8.1,1.6,8.1,2.8c0,1.4-2.3,3.7-4.1,4.5
			C596.1,201.8,584.9,198.5,577.4,204.5"/>
		<path class="st4" d="M622.8,258.8c0.8-8.3,1.8-25,11.7-25C644.5,233.8,627.4,248.5,622.8,258.8"/>
		<path class="st4" d="M627.7,263.3c8.1-12,15.8-32.6,31.9-32.6c2.9,0,3.9,0,3.9,3.2C663.5,241.9,655.1,238.6,627.7,263.3"/>
		<path class="st4" d="M629.3,266.5c-1.7,0,11-9,19.8-9c4,0,4.8,0.7,4.8,2.2c0,1.9-3.6,7.3-14,7.3
			C636.3,267,632.5,266.5,629.3,266.5"/>
		<path class="st4" d="M675.1,314c0-4.8,3-15.3,6.3-15.3c1,0,2.2,1.1,2.2,2.4C683.7,304.3,676.9,309,675.1,314"/>
		<path class="st4" d="M680.4,315.2c1.3-2.4,10.3-20.4,19.2-20.4c1.4,0,1.7,2.2,1.7,3.2C701.3,306.9,686.1,308.9,680.4,315.2"/>
		<path class="st4" d="M684.4,319.6c2.6-9.2,17.5-9.1,14.6-5.3C695.5,318.9,688.9,316.4,684.4,319.6"/>
		<path class="st5" d="M235.9,192.4c-4,1.9-8,3.6-12,5.2c6.3,3.8,13.1,6.9,20.3,9c3-2.6,6-5.2,9.1-7.8
			C247.5,197.8,241.5,195.6,235.9,192.4 M262.6,176.6c-2,1.5-4.1,2.9-6.2,4.3c2,3.2,4.1,6.3,6.3,9.4c-3.6-2.1-6.9-4.4-10-7.1
			c-3.6,2.2-7.2,4.3-10.9,6.2c3.4,3.5,7.1,6.6,11.5,9.3c5.4-4.5,11-9,16.7-13.3C267.4,182.9,264.9,179.9,262.6,176.6 M283.3,157.7
			c-5,5.7-10.6,11-16.7,15.8c0.7,4,1.7,8,3.5,11.8c4.9-3.7,9.8-7.2,15-10.7C284.5,168.3,283.9,162.7,283.3,157.7"/>
		<path class="st6" d="M223.9,197.6c-1.6,0.6-3.2,1.2-4.7,1.8c7.6,5,14.7,7.9,22.3,9.6c0.1,0,0.1-0.1,0.2-0.1
			c0.9-0.8,1.7-1.5,2.6-2.3C237,204.5,230.2,201.5,223.9,197.6 M287.1,153.1c-1.2,1.6-2.5,3.1-3.8,4.6c0.6,5,1.2,10.6,1.8,16.9
			c1.3-0.9,2.7-1.8,4.1-2.7C288.7,166.6,288,159.6,287.1,153.1"/>
		<path class="st7" d="M241.8,189.4c-2,1-4,2-6,3c5.6,3.2,11.6,5.4,17.4,6.4l0,0C248.9,196.1,245.2,192.9,241.8,189.4"/>
		<path class="st7" d="M256.4,180.9c-1.2,0.8-2.4,1.6-3.6,2.3c3.1,2.6,6.4,5,10,7.1C260.5,187.2,258.4,184.1,256.4,180.9"/>
		<path class="st7" d="M266.7,173.5c-1.3,1.1-2.7,2.1-4.1,3.1c2.3,3.3,4.8,6.3,7.4,8.8c0.1,0,0.1-0.1,0.2-0.1
			C268.4,181.5,267.4,177.5,266.7,173.5"/>
		<path class="st5" d="M575.8,195.1c-1.4,1.8-2.7,3.7-3.9,5.7c3.7,3.7,7.3,7.5,10.9,11.3c1.7,1.8,3.3,3.6,5,5.3
			c2.9-0.6,5.8-1.2,8.6-1.9c-5.2-3.9-10.1-8.5-14.6-13.5c-1.6,0.6-3,1.3-4.4,2.4c-0.3,0.2-0.5,0.3-0.6,0.3c-0.4,0,1-1.9,3.5-4.4
			C578.8,198.7,577.3,196.9,575.8,195.1 M570.2,187.6c-1.8,2.3-3.5,4.6-4.9,6.7c2.2,2.1,4.4,4.3,6.6,6.5c1-2,2.1-4.2,3.3-6.4
			C573.5,192.1,571.8,189.9,570.2,187.6 M556.8,164c-2.6,5.2-4.7,11-6.3,16.9c4.7,4,9.3,8.1,13.7,12.4c0.3-3.7,0.9-8,1.8-12
			C562.2,175.3,559.1,169.3,556.8,164"/>
		<path class="st6" d="M596.4,215.5c-2.8,0.7-5.7,1.3-8.6,1.9c0.6,0.6,1.2,1.3,1.8,1.9c3.1-0.6,6.2-1.3,9.2-2.1
			C598,216.7,597.2,216.1,596.4,215.5 M556.2,162.5c-2.9,5.5-5.2,11.5-6.7,17.5c0.3,0.3,0.7,0.6,1,0.9c1.5-6,3.6-11.7,6.3-16.9
			C556.6,163.5,556.4,163,556.2,162.5"/>
		<path class="st7" d="M566,181.3c-0.9,4-1.4,8.3-1.8,12c0.4,0.3,0.7,0.7,1.1,1c1.4-2.1,3.1-4.3,4.9-6.7
			C568.7,185.5,567.3,183.4,566,181.3"/>
		<path class="st7" d="M575.2,194.4c-1.2,2.2-2.3,4.4-3.3,6.4l0,0c1.1-2.1,2.4-4,3.9-5.7C575.6,194.8,575.4,194.6,575.2,194.4"/>
		<path class="st7" d="M580.3,200.5c-2.5,2.4-3.9,4.4-3.5,4.4c0.1,0,0.3-0.1,0.6-0.3c1.4-1.1,2.8-1.9,4.4-2.4
			C581.3,201.5,580.8,201,580.3,200.5"/>
		<path class="st5" d="M172.5,260.9c-4.2,2.6-8.7,4.6-13.4,5.8c5.5,1.9,11.1,3.1,16.7,4.2c2.5-2.1,5-4.3,7.5-6.6
			C179.3,263.3,175.7,262.2,172.5,260.9 M184.9,250.6c-2,2.2-4.2,4.2-6.4,6c2.4,1.8,4.9,3.6,7.4,5.3c1.5-1.4,3.1-2.9,4.6-4.4
			c0.9-0.8,1.7-1.6,2.6-2.5C190.3,253.6,187.5,252.1,184.9,250.6 M190,244.6c-1,1.3-2,2.5-3,3.8c2.2,2.1,4.4,4.2,6.8,6.2
			c1-0.9,2-1.9,2.9-2.8C194.6,249.4,192.3,247.1,190,244.6 M198,231.6c-1.9,3.7-4,7.3-6.4,10.8c1.4,3.4,3.1,6.5,5.2,9.2
			c2.2-2.1,4.4-4.3,6.6-6.5C201.5,240.6,199.8,236.1,198,231.6"/>
		<path class="st6" d="M159,266.8c-1.4,0.4-2.9,0.7-4.3,0.9c5.4,2.2,11.7,3.9,19.1,4.9c0.6-0.5,1.3-1.1,2-1.6
			C170.2,269.9,164.5,268.6,159,266.8 M199.5,228.6c-0.5,1-0.9,2-1.5,3.1c1.7,4.5,3.5,9,5.5,13.5c0.6-0.6,1.3-1.2,1.9-1.9
			C203.4,238.5,201.5,233.6,199.5,228.6"/>
		<path class="st7" d="M178.5,256.6c-1.9,1.6-3.9,3-6,4.3c3.2,1.2,6.8,2.4,10.8,3.4c0.9-0.8,1.8-1.6,2.7-2.4
			C183.4,260.2,180.9,258.5,178.5,256.6"/>
		<path class="st7" d="M187,248.3c-0.7,0.8-1.4,1.6-2.1,2.3c2.6,1.5,5.3,3,8.3,4.5c0.2-0.2,0.4-0.4,0.6-0.6
			C191.5,252.5,189.2,250.4,187,248.3"/>
		<path class="st7" d="M191.6,242.4c-0.5,0.7-1,1.5-1.6,2.2c2.2,2.5,4.5,4.9,6.7,7.1l0.1-0.1C194.7,248.9,193,245.7,191.6,242.4"/>
		<path class="st5" d="M383.7,125.8c-4.1,0.8-8.2,1.7-12.2,2.4c0.2,2.8,0.5,5.7,0.7,8.6c-1.4-2.6-2.7-5.2-4-8
			c-6.4,1.2-12.5,2.1-17.4,2.7c1.3,2.6,2.8,5.2,4.3,8.1c-3-2.3-6.2-4.8-9.4-7.6c-1.1,0.1-2,0.1-2.8,0.1c-5.7,0-11.3-0.6-16.8-2.2
			c3.6,5.7,7.7,11.4,11.8,17c14.6-5.5,30.2-9.7,47-12.1C384.6,132,384.1,128.9,383.7,125.8 M407.8,120.2c-5,1.3-11.2,2.7-17.7,4.2
			c-2.3,3.8-4.2,7.3-4.7,10.4c5.4-0.8,10.9-1.4,16.5-1.8C403.5,128.7,405.7,124.5,407.8,120.2"/>
		<path class="st6" d="M322,128.6c4,6.7,8.8,13.1,13.6,19.3c0.8-0.3,1.6-0.6,2.4-0.9c-4.1-5.6-8.2-11.3-11.8-17
			C324.8,129.5,323.4,129.1,322,128.6 M411.9,119.1c-1.3,0.3-2.6,0.7-4.1,1.1c-2.1,4.3-4.3,8.5-6,12.8c1.2-0.1,2.5-0.2,3.7-0.2
			C407.4,128.3,409.7,123.8,411.9,119.1"/>
		<path class="st7" d="M350.8,131.5c-1.9,0.2-3.6,0.4-5,0.5c3.1,2.8,6.4,5.3,9.4,7.6C353.6,136.8,352.1,134.1,350.8,131.5"/>
		<path class="st7" d="M371.5,128.2c-1.1,0.2-2.2,0.4-3.3,0.6c1.3,2.7,2.6,5.4,4,8C371.9,133.9,371.7,131,371.5,128.2"/>
		<path class="st7" d="M390,124.4c-2.1,0.5-4.2,0.9-6.4,1.4c0.4,3.1,0.9,6.2,1.3,9.1c0.1,0,0.2,0,0.3,0
			C385.8,131.7,387.7,128.2,390,124.4"/>
		<path class="st5" d="M500.6,136.3c-0.2,0.3-0.5,0.6-0.7,0.9c-2.1,2.8-4.7,5.2-5.2,8.7c6.7,2.8,13.1,5.9,19.3,9.4
			c6-6.3,10.7-12.2,14.3-17.7c-1.9,0.1-3.8,0.1-5.6,0.1C514.8,137.6,507.4,137.1,500.6,136.3 M484.3,133.2c-0.9,2.6-1.8,5.2-2.6,7.8
			c4.4,1.4,8.7,3,12.9,4.7c0-3.6,0.4-7,1.1-10.2C491.7,134.9,487.9,134.1,484.3,133.2 M468.9,128.1c-0.4,3.1-0.7,6.2-0.6,9.3
			c1.6,0.4,3.3,0.8,4.9,1.2c2.9,0.8,5.7,1.6,8.5,2.5c-0.5-3-0.9-6-1.1-8.8C476.3,131,472.5,129.6,468.9,128.1 M452,118.5
			c1,5,2.5,10.5,4.7,16.7c0.5,0.1,1.1,0.2,1.6,0.2c2.5,0.4,5,0.9,7.5,1.4c-1.9-4-3.7-8.3-5.1-12.7
			C457.5,122.3,454.6,120.4,452,118.5"/>
		<path class="st6" d="M531.7,137.4c-1.1,0-2.2,0.1-3.3,0.1c-3.6,5.5-8.3,11.4-14.3,17.7c0.8,0.5,1.7,0.9,2.5,1.4
			C522.3,150.7,527.5,144.2,531.7,137.4 M448.9,116c1,6.4,2.8,12.8,5.2,18.8c0.9,0.1,1.8,0.2,2.6,0.4c-2.2-6.2-3.7-11.7-4.7-16.7
			C450.9,117.7,449.9,116.8,448.9,116"/>
		<path class="st7" d="M460.8,124.1c1.4,4.4,3.2,8.7,5.1,12.7c0.8,0.2,1.6,0.4,2.4,0.5c0-3.1,0.2-6.2,0.6-9.3
			C466,126.8,463.3,125.5,460.8,124.1"/>
		<path class="st7" d="M480.5,132.2c0.2,2.9,0.6,5.8,1.1,8.8h0.1c0.8-2.7,1.6-5.3,2.6-7.8C483,132.9,481.8,132.6,480.5,132.2"/>
		<path class="st7" d="M495.7,135.6c-0.7,3.2-1.1,6.6-1.1,10.2h0.1c0.5-3.5,3.1-5.9,5.2-8.7c0.2-0.3,0.5-0.6,0.7-0.9
			C499,136.1,497.3,135.8,495.7,135.6"/>
		<path class="st5" d="M631,266.6c2.5,2.8,5.1,5.6,7.6,8.4c3.2-1.1,6.3-2.4,9.3-3.7c-1.8-1.2-4-2.6-6.3-4.3c-0.6,0-1.1,0.1-1.7,0.1
			C636.9,267,633.8,266.7,631,266.6 M632.3,259.2c-1.4,1.2-2.9,2.5-4.4,3.8c0.7,0.8,1.4,1.6,2.1,2.4c1.1-0.9,3-2.2,5.3-3.4
			C634.3,261.1,633.3,260.2,632.3,259.2 M626.5,252.6c-1.2,1.8-2.4,3.5-3.2,5.2c1.5,1.7,3,3.5,4.6,5.2c1.1-1.6,2.1-3.3,3.2-5.1
			C629.5,256.3,627.9,254.5,626.5,252.6 M619.7,240.8c-1.8,2.4-3.4,4.9-4.8,7.3c2.7,3.1,5.4,6.2,8,9.2c0.2-2.5,0.5-5.5,1-8.5
			C622.4,246.4,620.9,243.8,619.7,240.8"/>
		<path class="st6" d="M647.9,271.2c-2.9,1.4-6,2.6-9.3,3.7c0.5,0.5,1,1,1.4,1.5c3.3-1.2,6.5-2.5,9.7-4
			C649.2,272.1,648.6,271.7,647.9,271.2 M619,239.2c-1.8,2.5-3.5,5.1-5.1,7.8c0.3,0.4,0.6,0.7,0.9,1.1c1.4-2.4,3-4.9,4.8-7.3
			C619.4,240.3,619.2,239.7,619,239.2"/>
		<path class="st7" d="M623.9,248.9c-0.5,3-0.8,6-1,8.5c0.1,0.1,0.2,0.3,0.4,0.4c0.8-1.7,2-3.4,3.2-5.2
			C625.6,251.4,624.7,250.2,623.9,248.9"/>
		<path class="st7" d="M631,257.9c-1.1,1.8-2.1,3.5-3.2,5.1c0,0,0,0,0.1,0.1c1.5-1.4,3-2.6,4.4-3.8
			C631.9,258.8,631.4,258.3,631,257.9"/>
		<path class="st7" d="M635.3,262c-2.3,1.3-4.2,2.6-5.3,3.4c0.3,0.4,0.7,0.8,1,1.1c2.8,0.1,5.9,0.4,8.9,0.4c0.6,0,1.2,0,1.7-0.1
			C639.6,265.5,637.5,263.9,635.3,262"/>
		<path class="st5" d="M696.8,316.3c-2.8,1.5-6.3,1.1-9.5,2c1.7,1.1,3.5,2.2,5.3,3.3c2.8-1.3,5.4-2.7,8-4.4
			C699.3,316.9,698,316.6,696.8,316.3 M685.5,311.4c-1.5,0.9-3,1.8-4.1,2.8c1.4,1,2.8,2,4.2,2.9c1-1.6,2.5-2.7,4-3.6
			C688.2,312.9,686.8,312.2,685.5,311.4 M679.6,307.4c-1,1.1-2,2.3-2.8,3.5c1.4,1.1,2.8,2.1,4.2,3.1c0.5-1,1.3-2.4,2.2-4
			C682,309.2,680.8,308.3,679.6,307.4 M671,297.5c-1.4,1.6-2.7,3.4-4,5.4c2,1.7,4.1,3.5,6.1,5.1c0.8,0.7,1.6,1.3,2.4,1.9
			c0.3-1.6,0.8-3.4,1.3-5C674.6,302.7,672.6,300.2,671,297.5"/>
		<path class="st6" d="M700.5,317.2c-2.5,1.6-5.2,3-8,4.4c0.7,0.4,1.4,0.8,2,1.2c3-1.5,6-3.1,8.7-5.1
			C702.4,317.5,701.5,317.4,700.5,317.2 M670.2,295.9c-1.6,1.8-3.1,3.8-4.5,5.8c0.4,0.4,0.9,0.8,1.3,1.2c1.3-2,2.7-3.8,4-5.4
			C670.7,296.9,670.4,296.4,670.2,295.9"/>
		<path class="st7" d="M676.9,304.9c-0.6,1.6-1,3.4-1.3,5c0.4,0.3,0.8,0.6,1.2,1c0.8-1.2,1.8-2.4,2.8-3.5
			C678.7,306.6,677.7,305.8,676.9,304.9"/>
		<path class="st7" d="M683.2,310c-0.9,1.6-1.7,3-2.2,4c0.1,0.1,0.2,0.2,0.3,0.2c1.2-1,2.6-1.9,4.1-2.8
			C684.7,311,684,310.5,683.2,310"/>
		<path class="st7" d="M689.6,313.6c-1.6,0.8-3,2-4,3.6c0.6,0.4,1.2,0.8,1.7,1.1c3.2-0.9,6.7-0.6,9.5-2
			C694.3,315.5,691.9,314.6,689.6,313.6"/>
		<path class="st8" d="M767.2,430c-128,46.3-445,96.2-591.1-6.7c-29.8-32.2-49.6-34-77.3-27.5c-1.5,5.5-4.6,8.4-6.2,10.8
			c5.1,17.9,2.3,32.6-8.3,49.5c-0.2,0.3-1.1,1.6-1.4,1.8c3.1,37-37.9,69.8-58.9,31.7C17.6,478,13.8,464.2,8.2,452
			c-6.4-13.7-10.6-12.7-8.7-21.5c0.7-5.6,0.4-3.4,0.2-17.8c-0.5-98.4,15.5-95.4,53.1-94.9c6.8,0.1,14.3,0.1,22.5-0.6
			c28.9-2.4,66.9-13.5,115.2-59.6c8.4-8,17.1-16.6,26.1-25.4c7.9-7.7,16.2-15.5,24.9-23.3c42.5-38,95-73.7,168.6-76.3
			c15.1-0.6,31.2,0.3,48.2,2.8c5,0.8,9.9,1.9,14.7,3.1c44.9,11.8,79.2,41,109.7,73.5c7.9,8.4,15.5,17.1,23.1,25.7
			c12.5,14.4,24.7,28.7,37,41.8c9.9,10.5,19.8,20.1,30.2,28.5c23.9,19.2,49.9,31.2,81.5,28.9c13.3-0.7,10.8,2.6,11,10.3
			c0.8,14-3.4,15.7-1.6,40.3c0.1,1.6,0.5,7.8,0.9,14.9c0.5,10,1,21.5,0.6,23.7c0.1,0.2,0.1,0.2,0.2,0.5L767.2,430"/>
		<path class="st9" d="M766.2,428.6c-128.4,51.8-446.9,99.8-592.9-3.8c-34.4-25.1-49-32.9-76.1-27.3c1.1-4,1.1-8.6,0.6-11.2
			c5.7-1.8,11-2.2,14.3-2.1c67.1,0.7,150.8,76.2,281.8,75.3c124.2-0.8,251.1-23.9,369.9-58.5c0.5,10,1,21.5,0.7,23.7
			c0.1,0.1,0.1,0.2,0.2,0.5L766.2,428.6"/>
		<path class="st10" d="M766.2,428.6l-0.2-0.5c-72.7,29.3-206.5,57.5-335.3,57.5c-98.5,0-194-16.5-257.1-61.3l-0.3,0.4l0.3-0.4
			c-13.7-10-24.3-17.3-33.8-22c-9.5-4.8-18-7.1-27.3-7.1c-4.8,0-9.8,0.6-15.4,1.7l0.1,0.5l0.5,0.1c0.7-2.5,0.9-5.1,0.9-7.4
			c0-1.5-0.1-2.9-0.3-4l-0.5,0.1l0.2,0.5c5.4-1.7,10.4-2.1,13.7-2.1c0.2,0,0.3,0,0.5,0c33.2,0.3,70.6,19.1,115.9,37.9
			s98.6,37.4,163.6,37.4c0.8,0,1.5,0,2.3,0c124.2-0.8,251.2-23.9,370-58.6l-0.1-0.5h-0.5c0.4,7.7,0.8,16.4,0.8,20.9
			c0,1.3,0,2.2-0.1,2.7v0.1l0.1,0.1c0.1,0.2,0.1,0.2,0.2,0.5l0,0l1.5,3.5L766.2,428.6l-0.2-0.5L766.2,428.6l0.5-0.2l-1.5-3.4
			l-0.5,0.2l0.5-0.2c-0.1-0.3-0.1-0.3-0.2-0.5l-0.5,0.2l0.5,0.1c0.1-0.5,0.1-1.5,0.1-2.8c0-4.5-0.4-13.2-0.8-21v-0.6l-0.6,0.2
			C644.9,435.1,518,458.2,393.9,459c-0.8,0-1.5,0-2.3,0c-64.8,0-117.9-18.6-163.2-37.4c-45.3-18.7-82.8-37.6-116.3-38
			c-0.2,0-0.3,0-0.5,0c-3.4,0-8.5,0.4-14,2.2l-0.4,0.1l0.1,0.4c0.2,1,0.3,2.3,0.3,3.8c0,2.2-0.3,4.8-0.9,7.2l-0.2,0.8l0.8-0.2
			c5.5-1.1,10.5-1.7,15.2-1.7c9.2,0,17.5,2.2,26.9,6.9c9.4,4.7,20,12,33.6,22l0,0c63.4,45,159.1,61.4,257.7,61.4
			c129,0,262.9-28.2,335.7-57.6l0.5-0.2l-0.2-0.5L766.2,428.6"/>
		<path class="st11" d="M378.7,218.8c0,11.9,10.8,18.4,21.7,18.4c32.4,0,53.7-49.1,33.5-59.2C410.5,166.3,378.7,195.2,378.7,218.8z"
			/>
		<path class="st12" d="M381.1,218.6c0.7,15.7,18.7,19.3,31.4,13.6c20.6-8.6,36.1-42.2,20.3-51.9c0,0-0.1-0.1,0.1,0
			c-22.5-9.9-50.7,15.4-51.8,38.4V218.6z M377.6,209.9c5.9-22,33.3-44.9,57.4-34.2c19.9,9.3,6.3,50-20.6,61
			C395.3,245.1,370.5,234.6,377.6,209.9z"/>
		<path class="st11" d="M263,248.9c0,11.5,5.2,23.5,16.7,23.5c17.4,0,28.9-22.7,28.9-34.3C308.6,203.6,263,212.7,263,248.9z"/>
		<path class="st12" d="M265,248.8c0.4,10.7,3.9,20.7,14.6,21.3c-0.2,0,0,0,0,0c16.1-0.8,25.6-20.4,26.2-31.2
			C306.6,207.9,266.6,214.6,265,248.8L265,248.8z M311.2,239.3c-2.2,33.4-43.6,50.9-49.7,16.8C253.7,212.2,312.7,196.1,311.2,239.3z
			"/>
		<path class="st11" d="M504.4,250.5c-49.9,3.4-88.9,74.6-32.7,76.8c31,0,56.6-28.7,56.6-49C528.3,261.1,511.3,249.5,504.4,250.5z"
			/>
		<path class="st12" d="M503.4,254.6c-39.2-1.2-59.1,42.5-55.5,55.6c2.3,9.9,14.4,12.8,24,13.1c0,0,0.1,0,0,0
			c31.6-1,54.4-29.6,52.3-47.3C522.7,261.7,512,254.8,503.4,254.6z M529.5,275.4c2,20.2-16.7,41.8-37.3,50
			c-34.7,13.9-69-7.8-37.5-50.3c11.4-15.4,27.5-26.6,48.2-26.6C517.7,248.4,527.5,259,529.5,275.4z"/>
		<path class="st11" d="M330.6,334.6c0,44.2,51.6,15.6,51.6-22.9C382.3,287.9,330.6,294.5,330.6,334.6z"/>
		<path class="st12" d="M332.7,334.6c0.9,43.4,49.5,8.4,47.2-22.9C378.4,291.5,334.4,296.8,332.7,334.6L332.7,334.6z M331.8,318.1
			c14.5-33.7,71.7-30.7,46.9,16.4C356.6,376.1,314.8,360.9,331.8,318.1z"/>
		<path class="st11" d="M182.4,332.8c12.2,0,20.7-13,20.7-20.5c0-10.8-10.8-18.3-18.8-11.1C168,315.7,175.1,332.8,182.4,332.8z"/>
		<path class="st12" d="M182.2,330.4c12.7-0.9,22.1-15.3,16.4-24.3c-2.9-4.6-7.4-6.4-12.5-2.7c0.1-0.1,0,0,0,0
			c-14.3,13.3-8.7,25.9-4.3,27c0.4,0.1,0.5,0.1,0.5,0.1L182.2,330.4z M183.8,298c7.9-6,21.2-0.7,22,14.1c0,0,0,0.3,0,0.2
			c-0.4,6.3-3.8,12.2-8,16.2C175.4,349.8,159.7,316.5,183.8,298z"/>
		<path class="st11" d="M125.4,341.1c8.4,0,12.2-15,2.3-15C122.4,326,116.2,341.1,125.4,341.1z"/>
		<path class="st12" d="M131.6,334.7c2.3-6.2-3-8.6-5.7-6.3c-3,2.6-6.5,11-0.5,11.3C124.4,339.7,129.5,340.3,131.6,334.7z
			 M127.6,324.6c11.9,0.2,8.3,17.5-2.2,17.9C114.4,342.6,120,324.9,127.6,324.6z"/>
		<path class="st11" d="M74.1,318.5c-4.6,16.3-25.1,20.3-22.5,0.6C58.4,319.2,65.9,319.2,74.1,318.5z"/>
		<path class="st12" d="M75.9,317.1c-0.8,2.7-2.7,10.4-9.4,14.4c-4.7,3.1-18.7,6.3-16.2-13.8C59.7,317.8,66.1,317.8,75.9,317.1z
			 M72.2,320c-4.9,0.4-9.6,0.7-20.7,0.6l1.5-1.3c-0.6,5.1,0.2,11.1,5.5,11.5c0,0,0.1,0-0.1,0C65.2,330.5,69.6,326.4,72.2,320z"/>
		<path class="st11" d="M216.6,232.9c7.9-7.7,16.2-15.5,24.9-23.3C247,229.5,224.8,243.8,216.6,232.9z"/>
		<path class="st12" d="M223.6,239.4c-6.1-0.6-7.6-2.9-10.9-6.8c13.8-12.8,24.2-22.1,30-27.5C249.6,230.6,233.1,239.4,223.6,239.4z
			 M240,216.7c0-2.2-0.3-4.4-0.8-6.5l3.9,1.1c0,0-16,15.4-24.5,23.5l0.3-3.7C225.4,238.9,239.4,228.8,240,216.7L240,216.7z"/>
		<path class="st11" d="M471.9,140c-6.6,27-59.7,25.6-63-6C428.3,133.3,452.8,134.9,471.9,140z"/>
		<path class="st12" d="M475.2,138.1c-3.1,11.2-8.1,20.3-25.9,23.5c-10.7,1.9-24.2-0.5-32.5-7.2c-10.2-7.9-10.8-17.5-11.7-23.7
			C431.6,129.9,452.3,131.6,475.2,138.1z M468.4,141.9c-18.9-4.2-41.6-5.3-59.3-4.6l3.2-3.7c3.6,22.4,32.7,27.8,49.2,16.6
			C466.8,146.5,468.9,140.9,468.4,141.9z"/>
		<path class="st11" d="M669.7,309.1c-6.3,8.6-16.5,15.4-28.2,15.4c-20.1,0-21.6-31.1-2-43.9C649.4,291.1,659.3,300.8,669.7,309.1z"
			/>
		<path class="st12" d="M637.3,327.1c-18-4.6-22.7-33,2.6-50.3c12.5,13.2,19.2,20.2,33.1,32C664.1,321,652.1,329.5,637.3,327.1z
			 M637.3,282.7l3.8,0.5c-18.3,12.9-15.2,38.9,0.4,38.5c7.9-0.2,15.2-2.7,22.7-10C668.7,307.2,666.1,313.2,637.3,282.7z"/>
		<path class="st11" d="M670.3,364.5c0,1.4,3,4.1,7.7,4.1c8.4,0,14.7-8.8,14.7-12.5C692.6,343.8,670.3,353.9,670.3,364.5z"/>
		<path class="st12" d="M671.3,364.3c0,0.1,0,0.2,0,0.3c5.3,8.6,22.4-3.3,19.7-9.7C690,347.5,671.9,355.1,671.3,364.3L671.3,364.3z
			 M694.1,356v0.1c-0.5,6.3-8.5,12.6-13.1,13.2c-6.5,1.1-10.5-1.6-11.5-3.8c-0.1-0.3-0.3-0.8-0.3-0.8
			C667.9,353.4,693.4,340.8,694.1,356z"/>
		<path class="st11" d="M576,296.7c-2,4-5.1,9-5.1,13.9c0,13.2,18.1,7.3,18.1-7C589,291.6,578.3,292.2,576,296.7z"/>
		<path class="st12" d="M573.9,315.4c3.3,3.4,13.2-0.7,13.8-11.7c-0.5-10.5-7.8-10-10.6-6.4C576.2,299,569.2,310.8,573.9,315.4z
			 M575,296.2c4.4-7,15.6-3.9,15.4,7.7c-0.3,13.2-13.4,19-18.5,13.4C566.2,311.4,572.6,300.7,575,296.2L575,296.2z"/>
		<path class="st11" d="M502.9,206.6c0,11.5,14.3,9.4,14.3-2.7c0-4.6-3.6-9.7-7.3-8.2C506.6,197,502.9,202.1,502.9,206.6z"/>
		<path class="st12" d="M504.2,206.5c0.5,10.7,12.4,6.4,11.4-3.5C513.8,191.1,504.7,199.4,504.2,206.5L504.2,206.5z M509.4,194.3
			c8.2-2.5,13.1,12,5.5,18.9c-5,4.4-13,2.8-13.4-6.6C501.4,202.3,504.7,196.5,509.4,194.3z"/>
		<path class="st11" d="M332.7,194.2c8.7,0,16-19.8,3.9-19.8C326.3,174.5,322.2,194.2,332.7,194.2z"/>
		<path class="st12" d="M332.6,192.9c3.9-0.3,6.7-4.2,8-7.6c3.7-9.9-4.4-10.8-8-8C327.4,181.1,325.4,192.4,332.6,192.9L332.6,192.9z
			 M334.3,173.2c15.9-3.5,10.7,21.5-1.6,22.3C321.6,195.9,323.3,176.6,334.3,173.2z"/>
		<path class="st11" d="M359.9,181.7c8.2,0,9-16.1,4.1-16.1C356.8,165.5,351.8,181.7,359.9,181.7z"/>
		<path class="st12" d="M359.8,180.3c6.6-0.4,6.9-12.4,4.2-13.3c0.2,0,0,0,0.1,0C358.4,167.4,354.1,179.8,359.8,180.3L359.8,180.3z
			 M356.1,169.9c1.7-3,4.2-5.6,7.6-5.8c5.3-0.3,6,9.2,2.8,14.7C361.7,187.2,349.5,182.6,356.1,169.9z"/>
		<path class="st11" d="M247.2,303.9c-10.9,0-17.3,20.3-8.8,20.3C251,324.2,253,303.9,247.2,303.9z"/>
		<path class="st12" d="M246.6,305.3c-9.8,0.6-16.2,22.6-4.2,16.5c5-2.5,7-9.6,6.4-13.9c-0.4-2.8-1.6-2.7-1.6-2.7
			C247.4,305.3,246.8,305.3,246.6,305.3z M243.8,324.4c-15.8,8.2-12.8-17.9,0.6-21.5c1.6-0.4,2.7-0.4,2.7-0.4
			C254.1,302.5,253.2,319.6,243.8,324.4z"/>
		<path class="st11" d="M422.4,374c0,17.3,20.6,9.2,20.6-5.2c0-7.1-4.7-11.1-8.8-11.1C429.5,357.6,422.4,365.3,422.4,374z"/>
		<path class="st12" d="M423.7,374c0.8,19.7,25,1,15.9-11.6C434,354.1,424.4,363.5,423.7,374L423.7,374z M435.9,356.4
			c11.9,2.5,11.6,23.4-2.6,28.2c-6.2,2.1-11.9-0.7-12.2-10.5C420.9,366.1,427.9,355.2,435.9,356.4z"/>
		<path class="st11" d="M548.5,360c10.1,0,15.8-18.9,6.8-18.9C541.8,341.1,537.5,360,548.5,360z"/>
		<path class="st12" d="M548.5,358.7c6.1-0.4,9.5-7.2,9.9-11.3c1.1-8.9-11.7-4.5-14.2,3.5C542.9,354.9,543.9,358.4,548.5,358.7
			L548.5,358.7z M540.9,355c-2-14.6,22-22.2,20.2-7.3C559.6,362.6,542.4,365.7,540.9,355z"/>
		<path class="st11" d="M602.8,238.5c-2,26-47.5,29.8-47.5-0.5c0-16.1,12.3-24.9,24.5-25.2C587.7,221.3,595.3,229.9,602.8,238.5z"/>
		<path class="st12" d="M605.3,237.8c-5,43-74.4,24.4-48.6-15.7c5.4-8.1,14.1-11.8,24.3-12.1C589.2,219.4,597.2,228.4,605.3,237.8z
			 M600.3,239.3l-22.6-24.5l2.2,0.9c-8.1,0.4-14.6,4.6-17.8,9.8C542.6,258.3,596,268.1,600.3,239.3z"/>
		<path class="st11" d="M16.5,326.5c-5.2,2.6-2.5,13.3,4.6,13.3c11.6,0,13-17.7,4.5-17.7C22.7,322.1,19.6,324.9,16.5,326.5z"/>
		<path class="st12" d="M17.3,327.6c-0.1,0.1-0.9,0.6-1,0.7s-0.2,0.2-0.3,0.3c-5,8.9,10.9,15.3,13.5,2.3c0.7-3.8-0.7-6.3-2.1-7
			c-3-1.5-5.9,1.5-10.3,3.7H17.3z M25.7,320.7c9.5,0.5,8.9,15.8-0.1,19.6c-11.5,4.4-17.3-10.1-9.8-15
			C19.9,323,22.9,320.6,25.7,320.7z"/>
		<path class="st11" d="M41,347.4c-6.9,13.8,6.3,11.3,6.3,1.3C47.4,346.6,43.3,342.9,41,347.4z"/>
		<path class="st12" d="M42.3,348c-0.8,1.8-2.8,6.8-1.3,7.4c1.2,1,5.3-2.6,4.9-7C45.9,348.4,44.2,344.9,42.3,348L42.3,348z
			 M46.3,355.9c-4.4,5-12.4,3.2-6.5-9C43.4,339.4,53.7,347.5,46.3,355.9z"/>
		<path class="st10" d="M756.5,425.2c2-4.1-1.1-44.7,0.1-54.6c0.9-8,5.9-28.2,3.6-30.5c-0.1-0.1-0.1,0.1,0,0.2
			c0.1,0.2,0.5,0.4,0.4,0.5c-2.5,2-9.1,2.8-12.3,2.9c-122.1,6.2-164.1-212-323-209.2c-201.4,0-213.6,184.3-361,188.5
			c-50.1,0.4-48.6,0.7-57.7,20.4c-5.8,13.4-6.1,76.1-4.3,90.2c0-0.2,0,0.1,0.1,0.2c0,0.1,1.2,2.5,3.2,5.2
			c16,21.4,18.7,60.4,40.6,61.8c-1.4,0.1,13.7,0.9,24.6-15.5c21.5-32.4-19.1-64-2.1-97.7l2.6,1.1C63,417.4,82.9,437,83.7,462.4v0.3
			C82,501.1,43.4,523,24.5,492.2c-9.7-16.3-13.1-36.1-23.2-50.2c-6.2-9.1-2.5-7-2.4-18.4C-2.8,313,3.5,318.8,64.1,317.8
			c145.1-5.1,159.1-187,361-188.2c165.1-4.3,199.9,214.8,330.8,205.8c10.1-0.4,8.4,3.7,8.5,14.2c0.1,14.6-3.7,8.3-0.9,44.9
			c2,28.3,1.3,30.8-0.2,34L756.5,425.2z"/>
		<path class="st13" d="M95.5,393.6c43.5-2.5,63.1,18.6,99.8,40.2c157.7,93.1,473.9,28.5,568-11.8l2.8,6.3
			c-97.2,42.3-412.5,106.9-573.4,9.9C160.9,419,133.2,393,96,398.3L95.5,393.6"/>
		<path class="st10" d="M84.4,386.2c3.4,4.7,13.9,34.1,9.3,50.9c-2.1,7.7-6.5,15.8-11,22l-5.3-3.8c22.2-30.2,6.9-51.1,5.4-68.5
			L84.4,386.2z"/>
		<path class="st10" d="M95.3,382.1L95.3,382.1l-0.2-0.2l0,0c-0.1-0.1,0.1,0.2,0.4,0.2l0.4-0.6c3,4.8,4.3,17.1-6.1,28.9l-3-3
			c8-8.8,8.3-14.5,8.2-26.2c0.3,0,0.6-0.1,0.8,0.2v0.1c0.1,0.2,0.1,0.6,0,0.6H95.3z"/>
		<path class="st10" d="M96.6,399.5c0.2-0.6,0.4-1.2,0.6-1.8C96.9,398.3,96.8,398.9,96.6,399.5z M96,401.1c0.2-0.4,0.4-1.1,0.6-1.6
			C96.4,400.1,96.2,400.6,96,401.1z M93.4,406c0.2-0.3,0.2-0.3,0.2-0.4C93.6,405.7,93.5,405.9,93.4,406z"/>
		<path class="st14" d="M203.2,411c0,0.4,0.1,0.8,0.1,1.1c8,3.4,16.2,6.9,24.7,10.4c14.8,6.1,30.4,12.2,47,17.7
			c0.5-0.2,0.9-0.4,1.3-0.6c-16.9-5.5-32.9-11.7-47.9-18C219.7,418.1,211.3,414.5,203.2,411"/>
		<path class="st14" d="M617.9,435.8c-30.3,5.8-60.9,10.7-91.5,14.4c0.2,0.3,0.4,0.6,0.6,0.9c30.4-3.7,60.6-8.5,90.7-14.3
			C617.7,436.5,617.8,436.2,617.9,435.8"/>
		<path class="st15" d="M40.9,405.2c-3.9,5.2-9.6,8.5-16.1,8.8c1.3-12.5-6-30.6-4.5-44c7.5-0.7,14,0.3,20,7.4
			C37.7,387.4,38.9,397.5,40.9,405.2z"/>
		<path class="st16" d="M39.9,403.5c-3.3,4.6-8.3,7.5-14,7.7c1.2-11.1-5.2-27-3.9-38.8c6.5-0.6,12.1,0.3,17.3,6.5
			C37.2,387.7,38.2,396.7,39.9,403.5z"/>
		<path class="st10" d="M22.4,370c-2.7,12.6,5.5,31.1,3.3,42.9c-0.4,2.3-1.2,4.3-2.6,5.9c-0.7-1.7-1.1-4.3-1.3-6.1v-0.2
			c-2.8-27.4-5.1-26.2-6.9-37.6c-0.1-0.6-0.1-1.1-0.2-1.7c-0.7-10.1,6.2-16.4,12.5-17.1l1.5,4.2C25.1,362.8,23.3,366.1,22.4,370z"/>
		<path class="st10" d="M44.6,412.9c0.2,1.2,0.4,1.7,0,2.2c-0.5-0.2-2.6-4.1-4.3-10.1c-2.1-7.4-3.5-17.8-0.5-28
			c0.9-3.2,2.3-6.3,4.2-9.3l1,0.5c-1.4,4.4-2.2,8.6-2.6,12.9c-0.5,5.9-0.2,12,0.6,19.1C43.4,404.1,44,408.3,44.6,412.9z"/>
		<path class="st17" d="M29.1,391.6c0,2.6-1.7,4.9-4.1,5.9c-0.7-4.1-1.6-8.3-2.2-12.5C26.3,385.5,29.1,388.2,29.1,391.6z"/>
	</g>
</g>
</svg>
