<?xml version="1.0" encoding="utf-8"?>
<!-- Generator: Adobe Illustrator 19.2.1, SVG Export Plug-In . SVG Version: 6.00 Build 0)  -->
<svg version="1.1" id="Layer_1" xmlns="http://www.w3.org/2000/svg" xmlns:xlink="http://www.w3.org/1999/xlink" x="0px" y="0px"
	 width="149.1px" height="188.4px" viewBox="0 0 149.1 188.4" style="enable-background:new 0 0 149.1 188.4;" xml:space="preserve"
	>
<style type="text/css">
	.st0{fill:#426F4A;}
	.st1{fill:#424743;}
</style>
<g id="legs_back">
	<g>
		<path class="st0" d="M4.9,158.1C8,107,48.2,0,97.1,0C112.9,0,149,10.1,149,35.8c0,6.6-1.7,9.6-7.7,17
			c-66,81.1-43.2,135.3-81,135.4c-23.9,0-56.2,3.6-56.2-20.2C4.1,167.5,4.9,158.5,4.9,158.1z"/>
	</g>
	<g>
		<path class="st1" d="M3.9,168.9L0,168.1C7.6,132.3,24,60.4,54.1,25.3l3,2.6C27.7,62.2,11.4,133.6,3.9,168.9z"/>
	</g>
	<g>
		<path class="st1" d="M84.7,176.8l-4-0.6c7.4-46.8,30-93.8,65.3-136l3.1,2.6C114.2,84.3,92,130.7,84.7,176.8z"/>
	</g>
</g>
</svg>
