<?xml version="1.0" encoding="utf-8"?>
<!-- Generator: Adobe Illustrator 19.2.1, SVG Export Plug-In . SVG Version: 6.00 Build 0)  -->
<svg version="1.1" id="Layer_1" xmlns="http://www.w3.org/2000/svg" xmlns:xlink="http://www.w3.org/1999/xlink" x="0px" y="0px"
	 width="152.6px" height="155px" viewBox="0 0 152.6 155" style="enable-background:new 0 0 152.6 155;" xml:space="preserve">
<style type="text/css">
	.st0{fill:#008C47;}
	.st1{fill:#00A651;}
	.st2{fill:#006838;}
</style>
<g id="legs_front_left">
	<g>
		<path class="st0" d="M56.5,0c-27.1,0-49,18.3-49,40.8c0,22.6,22,40.8,49,40.8c27.1,0,49-18.3,49-40.8S83.6,0,56.5,0"/>
	</g>
	<g>
		<path class="st1" d="M29.3,154.6C-12.7,109.5-8.8-15.1,70,7.3c75.5,21.5,7.5,67.3,74.4,137.4c1.2,1.4,3.2,11.7,3.2,12.6
			c0,1-18.9,3.2-51,3.2c-18.9,0-38.5,1.3-57.9-2.2C35.5,157.7,32.5,153.9,29.3,154.6z"/>
	</g>
	<g>
		<path class="st2" d="M6.1,51.6C5.3,86.1,8.8,127.1,31.7,155l-6,5.1C0.6,129.3-0.8,88.4,1.3,51.4L6.1,51.6z"/>
	</g>
	<g>
		<path class="st2" d="M113.8,43.5c-3,35.9,19.8,81.8,39.5,112.3l-7.2,2.6C124,124.8,101.9,83,109,42.9L113.8,43.5z"/>
	</g>
	<g>
		<path class="st2" d="M16.6,111.7c0.6,1.4-3.6-4.7,4.5-11.6c12-11,22.1,2,24.7,4.2l-2.5,3.2c-2.7-2-9-6.4-12.9-6.8
			c0.2,0,0.1,0,0.1,0c-6.2,0.2-13,6.9-12.5,10.6L16.6,111.7z"/>
	</g>
	<g>
		<path class="st2" d="M23.9,130.7c5.2,5.9,13.5,5.5,18.6-2.6c0.9-1.4,1.9-3.2,2.8-3.9l2,0.9c0.1,2-3,14.9-12.5,13.9
			c0.1,0-0.2,0-0.2,0c-4.2-0.7-8.5-4.1-11.3-7.8L23.9,130.7z"/>
	</g>
	<g>
		<path class="st2" d="M24.3,119.8c0.2-3.2,4.9-8.1,11.4-2.9l-0.8,1.2c-4.1-2.3-7.8-2.9-9.8,2L24.3,119.8z"/>
	</g>
</g>
</svg>
